<svg width="252" height="45" fill="none" xmlns="http://www.w3.org/2000/svg"><path d="M27.895 13.335L21.216 28.99c-.164.394-.59.716-.95.716H9.285c-.05 0-.098.018-.164.036L.741 33.47c-.54.233-.9-.108-.67-.645L12.132 4.522c.114-.27.36-.52.638-.645L20.79.312c.54-.233.9.107.671.645L16.65 12.26c-.082.197 0 .358.18.358h10.737c.344.018.491.34.328.717zm-9.199 2.508H15.44c-.18 0-.393.16-.475.358l-4.239 9.96c-.082.197 0 .358.18.358h3.257c.18 0 .393-.161.475-.359l4.24-9.96c.081-.214 0-.357-.18-.357zm30.394-2.508L42.412 28.99c-.163.394-.589.716-.949.716h-18.2c-.36 0-.508-.322-.344-.716l3.486-8.186c.164-.395.59-.717.95-.717H38.09c.18 0 .393-.161.475-.358l1.522-3.565c.082-.197 0-.358-.18-.358H36.65c-.18 0-.393.161-.475.358l-.605 1.415c-.082.197-.295.359-.475.359H28.27c-.36 0-.507-.323-.344-.717l1.653-3.887c.164-.394.59-.717.95-.717h18.216c.36.018.524.34.344.717zm-12.373 9.977h-3.258c-.18 0-.392.162-.474.359l-1.064 2.49c-.082.197 0 .358.18.358h3.257c.18 0 .393-.161.475-.358l1.064-2.49c.081-.197 0-.359-.18-.359zm33.568-9.977L63.608 28.99c-.164.394-.59.716-.95.716h-6.727c-.261 0-.425-.16-.409-.43l.148-7.648c0-.359-.524-.233-.688.143l-3.077 7.219c-.163.394-.589.716-.95.716h-6.497c-.36 0-.507-.322-.344-.716l6.662-15.656c.163-.394.589-.717.95-.717h6.726c.262 0 .426.162.41.43l-.148 7.65c0 .357.524.232.687-.144l3.077-7.22c.164-.393.59-.716.95-.716h6.497c.377.018.54.34.36.717zm21.196 0l-1.67 3.923c-.163.394-.589.716-.949.716h-6.497c-.36 0-.508-.322-.344-.716l.458-1.075c.082-.197 0-.358-.18-.358h-3.257c-.18 0-.393.16-.475.358l-4.255 9.978c-.082.197 0 .358.18.358h3.257c.18 0 .393-.161.475-.358l2.275-5.338c.163-.395.589-.717.949-.717h6.498c.36 0 .507.322.344.716l-8.151 19.132c-.115.268-.36.52-.639.645l-8.02 3.564c-.54.233-.9-.107-.67-.645l5.728-13.434c.082-.198 0-.359-.18-.359H65.62c-.36 0-.507-.322-.344-.716l6.694-15.674c.164-.394.59-.717.95-.717h18.216c.36.018.524.34.344.717zm21.196 0l-3.486 8.186c-.164.394-.59.717-.95.717H97.504c-.18 0-.392.16-.474.358l-1.523 3.565c-.081.197 0 .358.18.358h3.258c.18 0 .393-.161.474-.358l.606-1.416c.082-.197.294-.358.474-.358h6.826c.36 0 .507.323.343.717l-1.669 3.923c-.164.394-.589.716-.949.716h-18.2c-.36 0-.508-.322-.344-.716l6.661-15.692c.164-.394.59-.717.95-.717h18.216c.36.018.524.34.344.717zm-9.182 2.508h-3.257c-.18 0-.393.16-.475.358l-1.064 2.49c-.082.197 0 .358.18.358h3.257c.18 0 .393-.161.475-.358l1.064-2.49c.065-.215 0-.358-.18-.358zm30.377-2.508l-1.669 3.923c-.164.394-.589.716-.949.716h-6.498c-.36 0-.508-.322-.344-.716l.458-1.075c.082-.197 0-.358-.18-.358h-3.257c-.18 0-.393.16-.474.358l-5.467 12.808c-.164.394-.589.716-.949.716h-6.498c-.36 0-.508-.322-.344-.716l6.662-15.656c.163-.394.589-.717.949-.717h18.217c.36.018.523.34.343.717zm21.53 0l-1.668 3.923c-.164.394-.59.716-.95.716h-6.497c-.361 0-.508-.322-.345-.716l.459-1.075c.081-.197 0-.358-.18-.358h-3.258c-.179 0-.392.16-.474.358l-4.239 9.96c-.081.197 0 .358.18.358h3.258c.179 0 .392-.161.474-.358l2.274-5.338c.165-.395.59-.717.95-.717h6.498c.36 0 .507.322.344.716l-8.151 19.132c-.115.268-.36.52-.639.645l-8.019 3.564c-.54.233-.901-.107-.672-.645l5.729-13.434c.082-.197 0-.359-.181-.359h-10.736c-.36 0-.507-.322-.344-.716l6.678-15.656c.164-.394.59-.717.949-.717h18.217c.361.018.524.34.343.717zm21.197 0l-6.678 15.656c-.164.394-.59.716-.95.716h-18.2c-.361 0-.508-.322-.343-.716l3.485-8.186c.164-.395.59-.717.949-.717h10.737c.181 0 .394-.161.476-.358l1.521-3.565c.083-.197 0-.358-.18-.358h-3.256c-.181 0-.393.161-.476.358l-.604 1.415c-.083.197-.295.359-.476.359h-6.825c-.359 0-.507-.323-.343-.717l1.652-3.887c.165-.394.59-.717.95-.717h18.216c.361.018.524.34.345.717zm-12.375 9.977h-3.256c-.18 0-.393.162-.475.359l-1.064 2.49c-.082.197 0 .358.18.358h3.258c.179 0 .392-.161.474-.358l1.064-2.49c.082-.197 0-.359-.181-.359zm45.289-9.977l-6.678 15.656c-.163.394-.59.716-.949.716h-6.498c-.36 0-.508-.322-.344-.716l3.077-7.22c.164-.375-.262-.5-.557-.142l-6.366 7.648c-.213.251-.524.43-.77.43h-6.727c-.359 0-.506-.322-.343-.716l3.077-7.22c.163-.375-.261-.5-.556-.142l-6.367 7.648c-.213.251-.524.43-.769.43h-6.728c-.36 0-.507-.322-.343-.716l6.678-15.656c.164-.394.588-.717.949-.717h6.498c.359 0 .507.323.343.717l-3.077 7.219c-.163.376.263.501.556.143l6.367-7.649c.213-.25.524-.43.769-.43h6.728c.36 0 .508.323.344.717l-3.077 7.219c-.165.376.262.501.556.143l6.367-7.649c.213-.25.524-.43.769-.43h6.728c.343.018.506.34.343.717zm21.228 0l-3.487 8.186c-.163.394-.588.717-.948.717h-10.737c-.18 0-.393.16-.475.358l-1.522 3.564c-.082.198 0 .359.18.359h3.257c.18 0 .393-.161.475-.359l.605-1.415c.082-.197.295-.358.475-.358h6.825c.361 0 .508.322.344.717l-1.669 3.923c-.164.394-.59.716-.95.716h-18.216c-.361 0-.508-.322-.345-.716l6.678-15.656c.165-.395.59-.717.95-.717h18.216c.344-.018.508.305.344.68zm-9.198 2.508h-3.258c-.179 0-.392.16-.474.358l-1.064 2.49c-.082.197 0 .358.181.358h3.256c.18 0 .393-.161.474-.358l1.065-2.49c.081-.215 0-.358-.18-.358zm30.393-2.508l-1.669 3.923c-.164.394-.589.716-.949.716h-6.498c-.359 0-.507-.322-.343-.716l.458-1.075c.082-.197 0-.358-.181-.358h-3.256c-.18 0-.393.16-.475.358l-1.293 3.027c-.082.197 0 .358.18.358h10.737c.36 0 .507.323.344.717l-3.716 8.724c-.164.394-.588.716-.949.716h-18.217c-.359 0-.507-.322-.343-.716l1.669-3.923c.164-.394.589-.717.949-.717h6.498c.361 0 .507.323.343.717l-.458 1.075c-.082.197 0 .358.181.358h3.256c.18 0 .393-.161.475-.358l1.293-3.028c.082-.197 0-.358-.18-.358h-10.736c-.361 0-.508-.322-.345-.716l3.716-8.724c.164-.394.589-.717.949-.717h18.201c.359.018.523.34.359.717z" fill="#D9D9D9"/></svg>