<svg width="156" height="75" fill="none" xmlns="http://www.w3.org/2000/svg"><path d="M70.149 42.827l-10.616.923v5.308l5.308-.462 5.308-.461v-5.308z" fill="#D9D9D9"/><path fill-rule="evenodd" clip-rule="evenodd" d="M59.533 70.289l-5.308.462V49.519l5.308-.461v5.307l10.616-.923v-5.307l5.308-.462v21.231l-5.308.46V58.75l-5.308.462-5.308.461V70.29z" fill="#D9D9D9"/><path d="M54.225 70.75l-.16.32.09.046.101-.009-.03-.356zm5.308-.461l.031.357.327-.029v-.328h-.358zM70.15 42.827h.358v-.222l-.198-.099-.16.32zm0 10.615l.03.357.328-.028v-.329h-.358zm0 5.308h.358v-.39l-.39.033.032.357zm5.308-11.077h.358v-.221l-.198-.1-.16.321zm0 21.231l.03.357.328-.028v-.329h-.358zm-15.924-9.23l-.031-.358-.327.029v.328h.358zm0-5.309h-.358v.391l.39-.034-.032-.357zM48.917 68.097h-.358v.221l.198.099.16-.32zm15.924-19.5l-.031-.358.03.357zm0-8.423l.16-.32-.09-.046-.101.009.03.357zm-15.923 6.691l-.032-.357-.327.03v.327h.358zm5.307-5.769l-.03-.357-.328.029v.328h.358zM70.15 69.365l-.16.32.09.045.1-.008-.03-.357zm-5.31-2.655h-.358v.222l.198.099.16-.32zm-10.585 4.396l5.308-.461-.062-.714-5.308.462.062.713zm5.308-27l10.616-.923-.062-.714-10.616.923.062.714zm10.226 4.028v5.307h.717v-5.307h-.717zm.39.357l5.307-.462-.061-.714-5.308.462.062.714zm-10.616 6.23L70.18 53.8l-.062-.714-10.616.923.062.714zM48.757 68.417l5.308 2.654.32-.641-5.307-2.654-.32.641zm21.033-25.59v2.195h.717v-2.195h-.717zm0 2.195v3.113h.717v-3.113h-.717zm5.827 2.33l-5.308-2.65-.32.64 5.307 2.652.32-.642zm-5.308 5.77L65 50.468l-.32.641 5.308 2.654.32-.641zm-10.745-3.707l5.308-.462-.062-.714-5.308.462.062.714zm5.308-.462l5.308-.461-.062-.714-5.308.461.062.714zm.327 1.836v-2.193h-.716v2.193h.716zm-5.308 3.576v-3.1h-.716v3.1h.716zm0-3.1v-2.207h-.716v2.206h.716zm4.918-.833l-5.308.475.064.714 5.308-.476-.064-.713zm-5.245 9.598l5.308-.461-.062-.714-5.308.461.062.714zm5.308-.461l5.308-.462-.062-.714-5.308.462.062.714zm5.437-17.063L65 39.853l-.32.641 5.308 2.653.32-.64zM59.175 59.673V70.29h.716V59.673h-.716zm0-15.923v5.308h.716V43.75h-.716zm-5.308 5.77v21.23h.717V49.52h-.717zm.39.356l5.307-.461-.062-.714-5.308.461.062.714zm5.437-1.139l-5.308-2.663-.321.64 5.307 2.664.322-.64zm-11.135-1.872v21.232h.717V46.865h-.717zm5.827 2.334l-5.308-2.654-.32.64 5.307 2.655.32-.641zm-.192-3.161l-5.308.47.063.714 5.308-.47-.063-.714zm10.616-6.221l-10.616.922.062.714 10.616-.922-.062-.714zm-5.117 3.612l-5.307-2.653-.32.64 5.307 2.654.32-.64zm-5.826-2.333v5.299h.717v-5.299h-.717zm21.559 27.451l-5.308.46.062.715 5.307-.46-.061-.715zm-4.919.818V58.75h-.717v10.615h.717zm-.198-.321L65 66.391l-.32.64 5.308 2.654.32-.641zm-5.11-2.333v-7.5h-.716v7.5h.716zm9.9-19.038v21.231h.716v-21.23h-.717zm-28.836-2.782l-10.615.923v5.308l5.308-.462 5.307-.461V44.89z" fill="#D9D9D9"/><path fill-rule="evenodd" clip-rule="evenodd" d="M30.34 72.815l5.308-.462V61.738l5.308-.462 5.307-.462V71.43l5.308-.46V60.353l-5.308.461v-5.307l5.308-.462v-5.308l-5.308.462v5.308l-10.615.923v-5.308l-5.308.462v21.23z" fill="#D9D9D9"/><path d="M30.34 72.815l-.16.32.09.045.101-.008-.031-.357zm5.308-.462l.03.357.328-.028v-.329h-.358zm10.615-27.462h.359v-.221l-.198-.1-.16.321zm5.308 10.154l.031.357.328-.028v-.329h-.359zm0 5.308h.359v-.219l-.195-.1-.164.319zm0-10.616h.359v-.221l-.199-.1-.16.321zm0 21.232l.031.356.328-.028v-.328h-.359zm-15.923-9.231l-.031-.358-.328.029v.328h.359zm0-5.308h-.359v.39l.39-.033-.031-.357zM25.032 70.16h-.358v.222l.198.1.16-.321zm15.924-19.5l-.031-.357.03.357zm0-8.422l.16-.32-.09-.046-.101.009.03.357zM25.032 48.93l-.031-.357-.327.029v.328h.358zm5.308-5.77l-.031-.356-.327.028v.328h.358zm15.923 28.27l-.16.32.09.046.101-.01-.03-.356zm-5.307-2.654h-.359v.222l.198.099.16-.32zM30.37 73.172l5.308-.462-.062-.714-5.308.462.062.714zm5.308-27l10.615-.924-.062-.714-10.615.923.062.714zm10.226 4.027v5.308h.717v-5.308h-.717zm.39 5.665l5.307-.462-.062-.714-5.308.462.063.714zm0 5.307l5.307-.461-.062-.714-5.308.462.063.713zm4.918-11.434v5.308h.717v-5.308h-.717zm-4.919.819l5.308-.462-.062-.714-5.308.462.063.714zm4.919 9.797v10.616h.717V60.353h-.717zm-15.534-3.566l10.615-.923-.062-.714-10.615.923.062.714zM24.872 70.48l5.308 2.654.32-.64-5.308-2.655-.32.641zm21.033-14.974v2.122h.717v-2.122h-.717zm0 2.122v3.185h.717V57.63h-.717zm5.83 2.405l-5.308-2.724-.327.637 5.308 2.725.327-.638zm-5.83-15.143v2.196h.717V44.89h-.717zm0 2.196v3.112h.717v-3.112h-.717zm5.826 2.33l-5.308-2.651-.32.641 5.308 2.65.32-.64zm-5.307 5.77l-5.308-2.655-.32.641 5.307 2.654.32-.64zm-10.745-3.708l5.308-.462-.062-.714-5.308.462.062.714zm5.308-.462l5.307-.461-.062-.714-5.307.461.062.714zm.327 1.836V50.66h-.717v2.193h.717zm-5.308 3.577v-2.954h-.717v2.954h.717zm0-2.954v-2.354h-.717v2.354h.717zm4.908-.979l-5.308.623.084.712 5.307-.623-.083-.712zm-5.235 9.597l5.308-.461-.062-.714-5.308.462.062.713zm5.308-.461l5.307-.462-.062-.713-5.307.461.062.714zm5.437-17.063l-5.308-2.653-.32.641 5.307 2.654.32-.642zM35.289 61.738v10.616h.717V61.738h-.717zm0-15.923v5.308h.717v-5.308h-.717zm-5.307 5.77v21.23h.716v-21.23h-.716zm.39.356l5.307-.461-.062-.714-5.308.462.062.713zm5.437-1.138L30.5 48.139l-.322.64 5.308 2.663.322-.64zM24.674 48.93v21.23h.716V48.93h-.716zm5.826 2.333l-5.308-2.654-.32.641 5.308 2.654.32-.641zm-.192-3.161l-5.307.47.063.714 5.308-.47-.064-.714zm10.617-6.221l-10.616.922.062.714 10.616-.922-.062-.714zm-5.117 3.613L30.5 42.84l-.32.64 5.308 2.655.32-.641zm-5.826-2.334v5.299h.716V43.16h-.716zM51.54 70.612l-5.307.46.061.714 5.308-.46-.062-.714zm-4.918.817V60.814h-.717V71.43h.717zm-.198-.32l-5.308-2.654-.32.64 5.307 2.654.32-.64zm-5.11-2.334v-7.499h-.717v7.5h.717z" fill="#D9D9D9"/><path fill-rule="evenodd" clip-rule="evenodd" d="M27.539 52.04v-5.31L6.308 48.577v5.308l2.654-.23 5.308-.462v21.231l5.307-.461V52.73l7.962-.692z" fill="#D9D9D9"/><path d="M6.308 53.885l-.16.32.09.046.1-.009-.03-.357zm21.231-7.154h.358v-.221l-.198-.1-.16.321zm0 5.308l.031.357.327-.028v-.329h-.358zm-13.27 1.154h.359v-.39l-.39.033.032.357zm0 21.231l-.16.32.09.046.101-.009-.03-.357zm5.308-21.693l-.03-.357-.328.029v.328h.358zm0 21.232l.031.357.328-.029v-.328h-.359zM8.962 71.77h-.359v.221l.198.1.16-.321zM1 45.924l-.031-.357-.327.028v.329H1zm0 5.307H.642v.222l.198.099.16-.32zm21.231-7.15l.16-.321-.09-.045-.1.009.03.357zM6.34 48.934l21.231-1.846-.062-.714L6.277 48.22l.062.714zm20.842-2.203v5.308h.716v-5.308h-.716zM5.949 48.577v5.308h.717v-5.307H5.95zm7.962 4.616v21.231h.717V53.193h-.717zm5.697-.105l7.962-.692-.062-.714-7.962.692.062.714zM14.3 74.781l5.308-.461-.062-.714-5.307.461.061.714zm4.919-22.05v21.232h.717V52.73h-.717zm-4.79 21.373l-5.307-2.655-.32.641 5.307 2.655.32-.641zM6.34 54.242l2.654-.23-.062-.715-2.654.231.062.714zm2.654-.23l5.307-.462-.062-.714-5.307.462.062.713zM9.32 71.77V53.655h-.717V71.77h.717zM6.468 48.257L1.16 45.603l-.32.641 5.308 2.654.32-.641zM.642 45.924v5.307h.716v-5.307H.642zm5.826 7.64L1.16 50.912l-.32.64 5.308 2.655.32-.641zM27.7 46.412l-5.308-2.651-.32.641 5.308 2.65.32-.64zm-5.5-2.688L.97 45.567l.062.714 21.231-1.843-.062-.714z" fill="#D9D9D9"/><path fill-rule="evenodd" clip-rule="evenodd" d="M83.418 68.225l-5.308.461V42.147l5.308-.461 10.616-.923v5.307l-5.308.462-5.308.462v15.923l10.616-.923v5.308l-10.616.923zm15.924-22.616v15.923l-5.308.462V46.07l5.308-.461z" fill="#D9D9D9"/><path d="M78.11 68.686l-.16.32.09.046.102-.009-.031-.357zm5.308-27l.031.357-.03-.357zm10.616-.923h.358v-.222l-.198-.099-.16.32zm0 26.539l.031.357.327-.029v-.328h-.358zm5.308-21.693h.358v-.222l-.198-.099-.16.32zm0 15.923l.03.357.328-.028v-.329h-.358zm-15.924 1.385h-.358v.39l.39-.033-.032-.357zm0-15.924l-.03-.357-.328.029v.328h.358zm-10.615-7.5l-.031-.357-.328.029v.328h.359zm0 26.54h-.359v.22l.198.1.16-.32zm15.923-19.501l-.03-.357.03.357zm0-8.423l.16-.32-.09-.045-.1.008.03.357zM78.142 69.043l5.307-.461-.062-.714-5.308.461.063.714zm0-26.539l5.307-.461-.062-.714-5.308.461.063.714zm5.307-.461l10.616-.923-.062-.714-10.616.923.062.714zm0 26.539l10.616-.923-.062-.714-10.616.923.062.714zm10.227-6.588v5.308h.716v-5.308h-.716zm.389-15.567l5.308-.461-.062-.714-5.308.461.062.714zm0 15.924l5.308-.462-.062-.714-5.308.462.062.714zm-10.616.923l10.616-.923-.062-.714-10.616.923.062.714zm-5.178-21.447l-5.308-2.654-.32.64 5.307 2.655.32-.641zm-5.827-2.334v26.54h.717v-26.54h-.717zm.198 26.86l5.308 2.654.32-.641-5.307-2.654-.32.64zm21.034-25.59v2.195h.716v-2.195h-.716zm0 2.195v3.112h.716v-3.112h-.716zm5.826 2.33l-5.308-2.65-.32.64 5.308 2.651.32-.64zm-16.053 2.063l5.308-.462-.062-.714-5.308.462.062.713zm5.308-.462l5.308-.462-.062-.714-5.308.462.062.714zm5.437 14.784l-5.308-2.656-.32.641 5.308 2.656.32-.64zm0-21.23l-5.308-2.654-.32.64 5.308 2.654.32-.64zm-5.499-2.69l-15.923 1.383.062.714 15.923-1.384-.062-.714zm4.98 8.317v15.924h.717V46.07h-.716zm5.308-.461v15.923h.717V45.61h-.717zm-10.615.923v12.806h.717V46.532h-.717zm-4.591 16.385V46.993h-.717v15.924h.717zm4.918-3.936l-5.308.461.062.714 5.308-.461-.062-.714zM78.47 68.686V42.147h-.717v26.54h.717zm5.308-8.887V46.993h-.717V59.8h.717zm0 3.118v-3.118h-.717v3.118h.717z" fill="#D9D9D9"/><path fill-rule="evenodd" clip-rule="evenodd" d="M107.304 66.123l-5.308.461V40.045l5.308-.461v26.539z" fill="#D9D9D9"/><path d="M101.996 40.045l5.308-.461m-5.308.461l-5.308-2.654m5.308 2.654v26.54m0 0l5.308-.462v-26.54m-5.308 27.001l-5.308-2.654V37.392m10.616 2.192l-5.308-2.654-5.308.462" stroke="#D9D9D9" stroke-width=".717"/><path fill-rule="evenodd" clip-rule="evenodd" d="M149.766 62.731v-5.308l5.308-.461V46.349l-5.308.443v10.631l-10.616.923V42.423l10.616-.923v-5.308l-15.924 1.385v26.539l15.924-1.385z" fill="#D9D9D9"/><path d="M133.842 37.577l-5.307-2.654m5.307 2.654v26.539m0-26.54l15.924-1.384m-15.924 27.924l-5.307-2.654v-26.54m5.307 29.194l15.924-1.385v-5.308m0-21.231l-5.308-2.653-15.923 1.384m21.231 1.269V41.5l-10.616.923m10.616 15l5.308-.461V46.349m-5.308 11.074l-10.616.923m10.616-.923l-5.308-2.656m5.308 2.656V46.792M139.15 58.346V42.423m0 15.923V55.23m0-12.806V55.23m5.308-.462l-5.308.462m5.308-.462v-10.61m10.616 2.192l-5.308-2.654-5.308.463m10.616 2.191l-5.308.443m0 0l-5.308-2.634" stroke="#D9D9D9" stroke-width=".717"/><path fill-rule="evenodd" clip-rule="evenodd" d="M115.265 65.423l-5.308.462V44.654l5.308-.462v21.231zm10.616-25.266V37.96l-10.616.923v5.308l5.308-.461 5.308-.462V64.5l5.307-.46V42.808l-5.307.461v-3.112z" fill="#D9D9D9"/><path d="M109.957 65.885l-.16.32.09.046.101-.01-.031-.356zm5.308-.462l.031.357.327-.028v-.329h-.358zm10.616-27.462h.358v-.221l-.198-.1-.16.321zm5.307 4.847h.359v-.222l-.198-.099-.161.32zm0 21.23l.031.358.328-.029v-.328h-.359zm-26.539-.807h-.358v.221l.198.1.16-.32zm15.924-19.5l-.031-.357.031.357zm0-8.423l.16-.32-.09-.046-.101.01.031.356zM104.649 42l-.031-.357-.327.029V42h.358zm5.308-5.77l-.031-.356-.327.028v.329h.358zm15.924 28.27l-.161.32.091.045.101-.009-.031-.357zm-5.308-2.654h-.358v.221l.198.1.16-.321zm-10.585 4.396l5.308-.462-.062-.713-5.308.461.062.714zm5.308-27l10.616-.924-.062-.714-10.616.924.062.713zm10.616 4.384l5.307-.462-.062-.713-5.307.461.062.714zm-21.423 19.926l5.308 2.654.32-.642-5.307-2.653-.321.64zm21.033-25.59v2.195h.717V37.96h-.717zm0 2.195v3.112h.717v-3.112h-.717zm5.827 2.33l-5.308-2.65-.32.64 5.307 2.651.321-.641zm-16.053 2.062l5.308-.461-.062-.714-5.308.461.062.714zm5.308-.461l5.308-.462-.062-.714-5.308.462.062.714zm5.437-6.447l-5.308-2.653-.32.64 5.307 2.654.321-.641zm-11.134 6.551v21.231h.716v-21.23h-.716zm0-5.308v5.308h.716v-5.308h-.716zm-5.308 5.77v21.231h.717V44.654h-.717zm.389.357l5.308-.462-.062-.714-5.308.462.062.714zm5.438-1.139l-5.308-2.663-.321.64 5.307 2.664.322-.641zM104.291 42v21.23h.717V42h-.717zm5.826 2.333l-5.307-2.654-.321.641 5.308 2.654.32-.64zm-.191-3.16l-5.308.47.063.714 5.308-.471-.063-.714zm10.616-6.222l-10.616.923.062.714 10.616-.923-.062-.714zm-5.117 3.613l-5.308-2.654-.32.641 5.308 2.654.32-.641zm-5.826-2.333v5.298h.717v-5.298h-.717zm21.558 27.45l-5.307.461.062.714 5.307-.46-.062-.714zm-5.116.498l-5.308-2.654-.32.641 5.307 2.654.321-.641zm4.789-21.371v21.23h.717v-21.23h-.717zm-4.591 21.691V43.27h-.717V64.5h.717zm-5.308-2.653V43.73h-.716v18.115h.716z" fill="#D9D9D9"/><path fill-rule="evenodd" clip-rule="evenodd" d="M83.271 31.013l-5.307.462V4.935l21.23-1.842v5.304L83.272 9.782v5.307l10.616-.922v5.308l-10.616.923v5.308l15.924-1.385v5.31l-5.308.46-10.616.922z" fill="#D9D9D9"/><path d="M77.964 4.936l-5.308-2.654m5.308 2.654l21.23-1.843m-21.23 1.843v26.539m0 0l5.307-.462 10.616-.923 5.308-.458V24.32m-21.231 7.154l-5.308-2.654V2.281m21.231 11.886l-10.616.923v-3.101m10.616 2.178l-5.308-2.64-5.308.462m10.616 2.178v5.308l-10.616.923v2.206m15.924 1.717L83.27 25.705v-3.101m15.924 1.717l-5.308-2.65-10.616.933M72.656 2.282L93.887.439l5.308 2.654M83.27 11.989V9.782l15.924-1.385V3.093" stroke="#D9D9D9" stroke-width=".717"/><path fill-rule="evenodd" clip-rule="evenodd" d="M75.31 10.683V5.375L54.078 7.22v5.308l2.654-.231 5.308-.462v21.232l5.308-.462v-21.23l7.962-.692z" fill="#D9D9D9"/><path d="M54.078 12.529l-.16.32.09.046.101-.01-.03-.356zM75.31 5.375h.359v-.222l-.198-.099-.16.32zm0 5.308l.032.357.327-.029v-.328h-.359zm-13.27 1.153h.358v-.39l-.389.034.031.356zm0 21.232l-.16.32.09.045.101-.008-.031-.357zm5.308-21.693l-.031-.357-.327.028v.329h.358zm0 21.231l.03.357.328-.028v-.329h-.358zm-10.616-2.193h-.358v.222l.198.099.16-.32zM48.77 4.567l-.03-.357-.328.029v.328h.358zm0 5.308h-.358v.221l.198.1.16-.321zm21.232-7.15l.16-.321-.09-.046-.101.01.03.356zM54.109 7.577l21.232-1.846-.063-.714-21.23 1.846.061.714zm20.842-2.203v5.308h.717V5.375h-.717zM53.72 7.22v5.308h.717V7.22h-.717zm7.962 4.615v21.232h.716v-21.23h-.716zm5.697-.104l7.962-.692-.063-.714-7.961.692.062.714zM62.07 33.425l5.308-.462-.062-.714-5.308.462.062.714zm4.919-22.05v21.231h.716V11.375h-.716zM62.2 32.747l-5.308-2.654-.32.64 5.308 2.655.32-.64zm-8.09-19.861l2.653-.231-.062-.714-2.654.23.062.715zm2.653-.231l5.308-.461-.062-.715-5.308.462.062.714zm.328 17.758V12.298h-.717v18.115h.716zM54.239 6.901L48.93 4.247l-.32.64 5.307 2.654.32-.64zm-5.827-2.334v5.308h.717V4.567h-.717zm5.827 7.641L48.93 9.554l-.32.641 5.307 2.654.32-.64zm21.23-7.154l-5.307-2.65-.32.64 5.307 2.651.32-.64zm-5.498-2.687L48.739 4.21l.063.714 21.23-1.843-.061-.714z" fill="#D9D9D9"/><path fill-rule="evenodd" clip-rule="evenodd" d="M35.5 8.897v10.616l10.616-.923V7.974l5.308-.461v15.923l-7.962.692v10.616l-5.308.462V24.59l-5.308.462-2.653.23V9.36l5.307-.462z" fill="#D9D9D9"/><path d="M30.193 25.282l-.16.32.09.046.1-.009-.03-.357zM24.885 6.705l-.031-.357-.328.028v.329h.359zM35.5 8.897h.359v-.221l-.199-.1-.16.321zm0 10.616h-.358v.39l.39-.033-.032-.357zm10.616-.923l.031.357.327-.029v-.328h-.358zm5.308-11.077h.358V7.29l-.198-.099-.16.32zm0 15.923l.03.357.328-.028v-.329h-.358zm-13.27 1.154l-.03-.357.03.357zm0 10.616l-.16.32.09.045.101-.008-.03-.357zm5.308-.462l.031.357.327-.028v-.329h-.358zM24.885 22.628h-.359v.222l.198.099.16-.32zm7.961 9.926h-.358v.222l.198.099.16-.321zm7.962-27.235l-.03-.357-.328.028v.33h.358zm-10.615.929l.16-.32-.09-.046-.101.009.03.357zm15.923-1.386l.16-.32-.09-.046-.1.01.03.356zM24.724 7.026l5.308 2.653.32-.64-5.307-2.654-.32.64zm5.5 2.69l5.307-.462-.062-.714-5.308.462.063.714zm4.918-.819v10.616h.717V8.897h-.717zm.39 10.973l10.615-.923-.062-.714-10.616.923.062.714zM45.757 7.974V18.59h.716V7.974h-.716zm.389.357l5.308-.461-.062-.714-5.308.461.062.714zm4.919-.818v15.923h.716V7.513h-.716zM37.796 24.59v10.616h.717V24.59h-.717zm.39.357l5.307-.462-.062-.713-5.308.461.062.714zm5.307-.462l7.962-.692-.062-.714-7.962.692.062.714zm-5.308 11.078l5.308-.462-.062-.714-5.308.462.062.714zm4.919-11.435v10.616h.716V24.128h-.716zm-12.751.834l-5.308-2.654-.32.64 5.307 2.655.32-.641zm-5.11-2.334V6.705h-.716v15.923h.716zm13.071 12.257l-5.307-2.651-.32.64 5.307 2.652.32-.64zm-8.09-9.246l2.653-.23-.062-.714-2.653.23.062.714zm2.653-.23l5.308-.462-.062-.714-5.308.462.063.713zm.328 7.145v-7.502h-.717v7.502h.717zM46.277 18.27l-5.308-2.663-.322.64 5.308 2.663.322-.64zm0-10.616l-5.309-2.655-.32.64 5.308 2.656.32-.641zM40.45 5.319v10.608h.716V5.32h-.716zm-4.79 3.258l-5.307-2.65-.32.641 5.307 2.65.32-.641zm15.924-1.385l-5.308-2.65-.32.64 5.308 2.651.32-.64zm-5.499-2.687l-5.308.457.062.714 5.308-.457-.062-.714zM30.162 5.891l-5.308.457.062.714 5.307-.457-.061-.714zm-.328 3.468v7.504h.717V9.36h-.717zm0 7.504v8.42h.717v-8.42h-.717zm10.943-1.293l-5.308.468.063.714 5.308-.468-.063-.714zm-5.635-6.673v7.498h.717V8.897h-.717zm0 7.498v3.118h.717v-3.118h-.717zM6.308 11.48v26.539l5.308-.462 10.615-.923v-5.307l-10.615.923v-5.308l5.307-.462 5.308-.461V20.71l-10.615.923v-5.308l5.307-.461 5.308-.462v-5.308l-10.615.923-5.308.462z" fill="#D9D9D9"/><path d="M22.231 15.403v5.308l5.308-.462v-5.307l-5.308.461zm0 10.616v5.308l5.308-.462v-5.308l-5.308.462z" fill="#D9D9D9"/><path d="M6.308 38.019l-.16.32.09.046.1-.009-.03-.357zm5.308-27l.03.356-.03-.357zm10.615-.924h.358v-.221l-.198-.1-.16.321zm0 26.54l.031.356.328-.028v-.329h-.359zm5.308-16.386l.031.357.327-.028v-.329h-.358zm0 5.308h.358v-.219l-.194-.1-.164.32zm0-10.615h.358v-.222l-.198-.099-.16.32zm0 15.923l.031.357.327-.029v-.328h-.358zm-15.923-3.923l-.031-.357-.328.028v.329h.359zm0 5.308h-.359v.39l.39-.033-.031-.357zm0-10.616h-.359v.39l.39-.033-.031-.357zm0-5.308l-.031-.357-.328.029v.328h.359zM1 8.826L.969 8.47l-.327.029v.328H1zm0 26.54H.642v.22l.198.1.16-.32zm15.923-19.501l-.03-.357.03.357zm0-8.423l.16-.32-.09-.046-.1.01.03.356zM5.95 11.48v26.539h.717V11.48H5.95zm.39 26.896l5.308-.462-.062-.714-5.308.462.062.714zm0-26.539l5.308-.462-.062-.713-5.308.461.062.714zm5.308-.462l10.615-.923-.062-.714-10.615.924.062.713zm0 26.54l10.615-.924-.062-.714-10.615.923.062.714zm10.226-6.588v5.307h.716v-5.307h-.716zm0-15.924v5.308h.716v-5.308h-.716zm.39 5.665l5.307-.462-.062-.714-5.308.462.062.714zm-.39 4.95v5.309h.716v-5.308h-.716zm.39.358l5.307-.462-.062-.714-5.308.462.062.714zm4.918-11.434v5.307h.716v-5.307h-.716zm-4.919.818l5.308-.461-.062-.714-5.308.461.062.714zm4.919 9.797v5.308h.716v-5.308h-.716zm-4.919 6.127l5.308-.462-.062-.714-5.308.462.062.713zM11.647 21.99l10.615-.923-.062-.714-10.615.923.062.714zm0 10.616l10.615-.924-.062-.713-10.615.923.062.714zM6.468 11.16L1.16 8.506l-.32.64L6.148 11.8l.32-.64zM.642 8.826v26.54h.716V8.825H.642zm.198 26.86l5.308 2.654.32-.642-5.308-2.653-.32.64zM21.873 20.71v2.122h.716V20.71h-.716zm0 2.122v3.186h.716v-3.186h-.716zm5.83 2.405l-5.308-2.724-.327.638 5.307 2.724.328-.638zm-5.83-15.143v2.196h.716v-2.196h-.716zm0 2.196v3.112h.716V12.29h-.716zm5.826 2.33l-5.308-2.65-.32.64 5.308 2.651.32-.641zm-5.308 5.77l-5.307-2.654-.32.64 5.307 2.654.32-.64zm-10.744-3.708l5.307-.461-.062-.714-5.307.461.062.714zm5.307-.461l5.308-.462-.062-.714-5.308.462.063.714zm.328 1.835v-2.192h-.717v2.192h.717zm-5.308 3.577V18.68h-.717v2.954h.717zm0-2.954v-2.354h-.717v2.354h.717zm4.908-.979l-5.308.623.083.712 5.308-.623-.083-.712zm5.51 13.305l-5.308-2.656-.32.64 5.307 2.657.32-.64zM11.647 27.3l5.307-.462-.062-.714-5.307.462.062.714zm5.307-.462l5.308-.461-.062-.714-5.308.461.063.714zm.328 1.834v-2.19h-.717v2.19h.717zm-5.308 3.579v-2.93h-.717v2.93h.717zm0-2.93v-2.378h-.717v2.378h.717zm4.906-1.005l-5.308.65.087.71 5.308-.649-.087-.711zm5.511-18.54l-5.307-2.653-.32.64 5.307 2.654.32-.641zm-5.499-2.69L.97 8.47l.062.714L16.954 7.8l-.062-.714z" fill="#D9D9D9"/></svg>