<svg width="150" height="90" fill="none" xmlns="http://www.w3.org/2000/svg"><path d="M75.89 24.3h-6.996l-5.158 19.09-1.344 4.961 5.227-.026h.321l4.04-.022a14.683 14.683 0 008.888-3.038 14.64 14.64 0 005.219-7.799 10.44 10.44 0 00-1.828-9.1 10.47 10.47 0 00-8.358-4.062l-.011-.005zm5.477 11.841a9.866 9.866 0 01-3.56 5.298 9.895 9.895 0 01-6.063 2.016l-2.468-.019 3.828-14.27 2.95.015a5.54 5.54 0 014.373 2.175 5.516 5.516 0 01.94 4.785zm55.285-7.447l-1.361 5.068 8.038.026 4.131.016-.581 2.16-.434 1.619-1.451 5.397-1.559 5.178-17.646.034 1.586-5.252h13.48l1.446-5.381-13.507.084 3.632-13.344H150l-1.2 4.464-12.148-.069zm-7.837-4.394l-5.081 18.82-.496 1.82a4.137 4.137 0 01-1.507 2.232c-.737.556-1.468 1.02-2.563 1.02h-8.951c-1.029 0-1.267-.208-1.847-.485a4.155 4.155 0 01-2.197-4.79l5.016-18.618h5.416l-1.212 4.523-3.352 12.523a1.322 1.322 0 00.702 1.54c.186.089.389.134.594.133l4.139-.035a1.32 1.32 0 001.272-.986l4.807-17.698h5.26zm-33.028 4.63l-1.366 5.067 12.158.045-.581 2.16-.434 1.62-12.158-.043-1.435 5.344 12.158.098-1.335 4.971H85.17l6.402-23.83 17.65-.063-1.26 4.705-12.159-.074h-.016z" fill="#fff"/><path fill-rule="evenodd" clip-rule="evenodd" d="M137.176 51.584l-9.54-.02c-.936 0-1.844.108-2.586.68a4.298 4.298 0 00-1.519 2.283l-4.329 16.193a5.648 5.648 0 00-.057 2.246 4.291 4.291 0 004.244 3.447h9.255a4.405 4.405 0 002.652-.983c.76-.576 1.31-1.683 1.557-2.606l.506-1.896 3.858-14.418a4.248 4.248 0 00-.719-3.65 3.173 3.173 0 00-1.281-1.04c-.575-.307-1.396-.228-2.041-.236zm-4.975 18.169a1.369 1.369 0 01-1.314 1.022l-4.283.035a1.4 1.4 0 01-.613-.14 1.383 1.383 0 01-.728-1.595l3.47-12.967 7.148-.09-3.68 13.735zM117.478 51.6l-3.845 4.646-4.212 5.232-3.15 3.912-.288.353-8.587 10.67h18.355l6.653-24.848-4.926.035zm-3.699 13.825l-1.497 5.578-4.599-.038 4.193-5.553 2.955-3.917-1.052 3.93z" fill="#fff"/><path d="M90.953 51.565h-7.228l-5.33 19.723-1.388 5.126 5.4-.028h.333l4.173-.022a15.17 15.17 0 009.183-3.138 15.122 15.122 0 005.391-8.058 10.77 10.77 0 00.158-4.92 10.8 10.8 0 00-5.872-7.588 10.835 10.835 0 00-4.81-1.09l-.01-.005zm5.658 12.234a10.193 10.193 0 01-3.678 5.473 10.222 10.222 0 01-6.264 2.082l-2.549-.02 3.954-14.742 3.049.016a5.721 5.721 0 014.517 2.247 5.7 5.7 0 01.971 4.944z" fill="#fff"/><path d="M26.12 72.172c-.91.21-1.741.084-2.362-.296.832-.499 1.52-.969 2.12-1.51a9.07 9.07 0 001.56-1.85c.287.242.598.477.896.684.315.22.639.426.937.595-.857 1.36-2.04 2.12-3.15 2.377zm-3.87 4.272c-.256.615-.734 1.182-1.467 1.631a4.1 4.1 0 00.009-.142 6.898 6.898 0 00-.09-1.273 21.47 21.47 0 00-.087-.554l-.007-.045a23.775 23.775 0 01-.09-.571c-.108-.771-.104-1.328.103-1.759.149-.31.464-.672 1.219-.98.752 1.485.802 2.746.41 3.693zm-5.571-13.357c.462-.229 1.179-.395 2.345-.356-.548 1.672-1.37 2.8-2.366 3.434-.68.433-1.495.67-2.458.658.122-.13.233-.267.335-.41a6.16 6.16 0 00.602-1.097c.068-.154.125-.29.18-.418.08-.191.154-.366.246-.557.273-.572.569-.983 1.116-1.254zm7.274.241c.442 1.141 1.022 2.122 1.671 3.02-.499.082-.943.118-1.432.034-.805-.139-1.816-.644-3.203-2.285h0c-.09-.106-.194-.403-.178-.85.01-.243.05-.442.095-.583 1.077-.14 1.997.054 3.047.664zm15.102-14.634c.5-1.514.597-2.846.437-4.01.14.207.28.43.413.668.724 1.287 1.176 2.768 1.042 4.034a11.7 11.7 0 00-1.892-.692zm-3.798-.845a13.075 13.075 0 00-2.087-.04c.088-1.853-.179-3.318-.761-4.488.474.234.956.606 1.402 1.117a5.98 5.98 0 011.446 3.411zm5.43-5.064a7.657 7.657 0 00-.588-.653c.502-.075 1.052-.011 1.693.108.14.026.286.056.44.087.444.088.935.187 1.406.235.132.014.267.025.405.03-.651.986-1.542 1.518-2.51 1.528a4.472 4.472 0 00-.166-.333 7.193 7.193 0 00-.68-1.002zm-6.837-.955a5.554 5.554 0 00-.692-.313c.147-.048.309-.094.485-.14.119-.032.247-.064.38-.098.264-.066.547-.137.814-.216-.178.41-.461.72-.78.89a3.22 3.22 0 00-.207-.123zm14.072 3.079a7.466 7.466 0 00-.963-.76c.672-.123 1.495-.15 2.422-.136.466.007.945.024 1.436.042l.04.001c.475.017.96.034 1.436.043.362.006.727.007 1.087-.002a3.736 3.736 0 01-.98.85c-.71.433-1.686.787-3.367 1.36a3.571 3.571 0 00-.126-.225 5.744 5.744 0 00-.985-1.173zm-1.269 7.607a28.62 28.62 0 01-1.233-1.047c.46-1.139.735-2.147.806-3.212.053-.784-.007-1.573-.161-2.44.621.364 1.075.846 1.456 1.467.603.983 1.032 2.323 1.547 4.198-.345.255-.744.55-1.11.827-.273.207-.532.405-.737.568l-.041.032a9.968 9.968 0 01-.527-.393zm-19.34 26.089a7.855 7.855 0 01-1.305-.142c.39.549.957 1.135 1.631 1.766.34.317.696.638 1.06.965l.031.028c.353.316.714.64 1.062.964.283.264.565.535.833.81a3.513 3.513 0 00-.067-1.333c-.187-.792-.623-1.713-1.406-3.283a3.69 3.69 0 01-.283.08 6.121 6.121 0 01-1.556.145zm5.109-6.68a4.98 4.98 0 01.018-.068 110.974 110.974 0 00-1.348-.83c-.994 2.073-2.553 4.044-4.488 5.502.108.026.213.046.315.06.454.06.9.01 1.41-.155.524-.168 1.1-.451 1.814-.85.394-.22.797-.455 1.241-.715.249-.146.51-.299.79-.461a9.573 9.573 0 01.066-1.482c.042-.35.103-.696.182-1.001zm15.312 14.402c.629-1.51 1.173-2.444 2.25-3.648.165.038.332.065.498.084.404.046.858.053 1.335.032.953-.043 2.06-.202 3.159-.434 1.1-.233 2.216-.544 3.188-.9a13.05 13.05 0 001.43-.616c.437 2.135-.725 4.203-2.886 5.479-2.318 1.369-5.687 1.72-8.974.003zm-12.629-9.113c-.474-.708-.68-1.477-.673-2.313.01-1.303.534-2.84 1.547-4.618.195-.34.412-.769.637-1.213l.218-.43c.311-.608.646-1.237 1.007-1.81.364-.578.734-1.061 1.103-1.396.118-.107.23-.193.335-.261.237.668.562 1.377.938 2.028.477.827 1.096 1.664 1.802 2.17.323.68.375 1.169.305 1.553-.063.34-.236.685-.56 1.07-.734-.05-1.471.179-2.128.507-.828.416-1.638 1.047-2.345 1.745a11.98 11.98 0 00-1.81 2.274 8.13 8.13 0 00-.376.694zm15.839-1.112l-.377-.435c-3.81-4.406-11.195-3.063-13.424 2.587l13.8-2.152zm0 0l.54-.196m-.54.196l.54-.196m0 0c2.23-.808 3.741-.88 4.84-.593.45.118.854.301 1.227.543m-6.066.05l6.066-.05m0 0c-.593.113-1.202.297-1.804.527-1.47.56-3.038 1.446-4.486 2.496-1.449 1.052-2.805 2.289-3.839 3.57-.87 1.081-1.561 2.254-1.831 3.416-1.797.41-3.809.421-5.152-.38-1.325-.79-2.368-2.097-2.967-3.496-.605-1.417-.7-2.793-.33-3.735l20.41-2.398zM66.23 55.64c-.383 1.259-.527 2.143-.486 3.446.113.06.222.126.325.194.3.196.609.445.915.725.614.559 1.263 1.279 1.865 2.041.604.765 1.173 1.59 1.623 2.366.206.356.396.716.552 1.065 1.321-1.147 1.65-3.044.955-4.988-.758-2.122-2.726-4.16-5.749-4.849zm-10.293-4.401a3.414 3.414 0 00-1.443-.187c-1 .08-2.14.573-3.403 1.56-.304.238-.697.497-1.083.752l-.162.106c-.453.3-.907.606-1.305.926-.394.318-.69.614-.866.883a7.329 7.329 0 011.676.5c.741.316 1.482.763 1.977 1.275.585.187.867.186 1.033.141.119-.032.261-.109.471-.337-.11-.577-.032-1.178.131-1.725.217-.725.61-1.45 1.085-2.092a7.533 7.533 0 011.689-1.669 5.66 5.66 0 01.2-.133zm6.445 12.656l-.568.093c-4.858.802-8.943-4.066-7.33-8.957l7.898 8.864zm0 0l.29.497m-.29-.497l.29.497m0 0c1.024 1.751 1.97 2.61 2.826 3.012.258.121.519.206.786.26m-3.612-3.272l3.612 3.272m0 0a9.883 9.883 0 01-.73-1.124c-.67-1.191-1.223-2.651-1.604-4.152-.382-1.502-.6-3.079-.578-4.508.019-1.175.2-2.326.65-3.255-.951-1.227-2.234-2.286-3.501-2.485-1.285-.203-2.67.08-3.819.668-1.165.596-1.958 1.434-2.218 2.223l11.8 12.633zm-17.406-.61l.551.982c.178.317.161.65.121.865a2.042 2.042 0 01-.26.669 2.38 2.38 0 01-.196.278c.47.281 1.061.397 1.695.35.234-.018.46-.057.674-.114a3.645 3.645 0 01-1.287-1.094c-.36-.499-.587-1.105-.57-1.74.017-.653.291-1.278.828-1.773.723-.665 1.675-1.01 2.711-.599.556.22 1.07.638 1.551 1.223.038-.726-.192-1.563-.787-2.308-.07.108-.142.211-.212.31-.052.075-.103.148-.15.219l-1.52-.607c.286-1.622-.114-3.36-1.226-4.603-1.09-1.22-2.963-2.071-5.848-1.748l3.925 9.69zm0 0l-.78.811m.78-.81l-.78.81m0 0c-.994 1.033-2.607 1.037-4.255-.046-1.624-1.068-3.013-3.069-3.24-5.457h0m7.494 5.503l-7.494-5.503m0 0c-.125-1.316.495-2.504 1.447-3.43m-1.447 3.43l1.447-3.43m0 0c.967-.94 2.154-1.484 2.903-1.568l-2.903 1.569z" stroke="#fff" stroke-width="1.672"/><path d="M33.034 49.806c3.465-.39 7.897.806 12.857 4.55a3.545 3.545 0 00-.515 1.651c-1.66.91-2.973 1.696-3.951 2.74-1.012 1.079-1.624 2.381-2.027 4.233-1.99.613-3.09 1.848-3.906 3.252-.34.586-.642 1.22-.933 1.833l-.215.45c-.26.539-.524 1.064-.827 1.57-3.268-1.85-5.819-4.128-7.302-6.586-1.567-2.598-1.943-5.385-.74-8.173 1.292-2.997 3.958-5.116 7.559-5.52zM9.632 38.89a.794.794 0 01.071.042c.583.939 1.036 2.45 1.23 3.827.094.662.12 1.247.087 1.682a3.671 3.671 0 00-.398-.04c-.594-.028-1.344.053-2.122.204-1.467.286-3.228.86-4.517 1.644a.455.455 0 01-.075-.054c-.124-.107-.285-.324-.448-.69-.323-.726-.548-1.8-.619-2.953-.07-1.149.019-2.288.261-3.134.121-.425.269-.73.418-.926.143-.187.254-.233.326-.245.852-.14 2.297-.095 3.62.094.654.093 1.242.217 1.68.356.22.07.38.136.486.193zm1.28 6.094l.003-.007a.027.027 0 01-.003.007zm-5.304 3.302l.015-.01.014-.012c.813-.627 2.144-1.207 3.417-1.593.627-.19 1.21-.324 1.671-.392.232-.034.418-.05.556-.05.106-.001.153.007.16.007.585.228 1.476.93 2.26 1.762.383.405.707.805.927 1.138l.1.158c-1.185.903-1.906 1.768-2.378 2.741-.455.937-.656 1.945-.87 3.021l-.015.072s0 0 0 0c-.23-.015-.586-.11-1.055-.32-.923-.413-2.058-1.171-3.058-2.08-1.011-.918-1.796-1.91-2.12-2.761-.159-.416-.186-.742-.133-.988.05-.226.182-.462.51-.693zm5.816-2.056h0zm.175 8.895a.035.035 0 01.01-.003l-.01.003zm15.61-4.3c-1.105.861-2.186 2.092-3.005 3.437-.958 1.573-1.655 3.462-1.495 5.243-2.646.32-5.383-.306-7.122-1.593-.945-.7-1.56-1.564-1.764-2.547-.203-.973-.03-2.18.818-3.622 1.364-1.888 3.277-2.796 5.592-2.835 2.044-.035 4.42.61 6.976 1.917zM6.387 31.16h0c.868-1.151 1.615-1.98 2.289-2.517.67-.533 1.202-.726 1.66-.725.453.002.987.197 1.659.762.641.54 1.355 1.374 2.177 2.557-.018.326-.137.8-.385 1.394a12.96 12.96 0 01-1.211 2.19c-.492.726-1.031 1.388-1.532 1.878-.25.246-.479.437-.677.572a2.41 2.41 0 01-.13.083c-1.125-.703-2.142-1.098-3.246-1.272-1.065-.168-2.173-.123-3.463-.005a.978.978 0 01-.015-.404c.05-.372.244-.844.568-1.397.47-.801 1.097-1.586 1.664-2.298.228-.286.447-.56.642-.819zm22.107-8.934c.004.003.122.065.18.452.055.367.025.866-.09 1.417a6.748 6.748 0 01-.509 1.523c-.211.436-.401.668-.502.75-.227.12-.588.241-1.072.35-.5.112-1.08.2-1.683.263-.814.086-1.643.126-2.334.131.081-.829.1-1.56.037-2.29-.072-.83-.25-1.63-.54-2.539.881-.67 1.94-.932 3.035-.923 1.272.011 2.538.39 3.478.866zm-7.759 5.178c-1.883 1.365-3.175 1.934-5.378 2.531-.582-.98-1.098-1.795-1.72-2.473-.61-.666-1.306-1.183-2.229-1.639.14-.142.33-.309.571-.495.775-.593 1.923-1.254 3.153-1.791 1.236-.54 2.485-.924 3.462-1.015.49-.045.853-.01 1.094.07.219.074.305.17.351.275.61 1.373.773 2.604.696 4.537zm-9.59-1.25a.064.064 0 01-.01.021l.01-.02zm18.128.695c1.106-1.34 2.054-3.18 1.378-5.225 5.98-9.531 16.219-12.828 25.226-10.89 8.226 1.77 15.418 7.902 17.38 17.705-1.47-1.709-3.02-2.836-4.667-3.48-2.41-.94-4.901-.793-7.412-.102-2.496.687-5.084 1.932-7.717 3.259l-1.147.58c-2.292 1.163-4.633 2.35-7.066 3.32-.947.377-2.192.417-3.667.163-1.465-.252-3.076-.78-4.704-1.45-2.813-1.16-5.587-2.711-7.604-3.88z" stroke="#fff" stroke-width="1.672"/><path d="M58.895 53.057c-.509.023-1.666.406-2.315 1.01-1.446 1.306-1.387 3.462-1.387 3.462s.85-3.008 2.481-3.812c1.275-.63 1.746-.607 1.746-.607s-.017-.076-.525-.053zm-1.071 8.931s.153.126.368.293c1.823 1.309 4.128 1.055 4.813.377-.007.941.465 1.88 1.115 2.57-.552-.541-1.204-1.325-1.369-2.08 0 0-1.998.73-3.493-.113-.293-.165-.747-.506-1.066-.754a4.882 4.882 0 01-.368-.293zm5.363-6.84c-.72 1.692-.615 6.172.839 8.399-.829-2.33-1.359-5.772-.839-8.398zm-11.722 6.769c-.212-1.346-2.242-3.248-4.256-3.248.017-.286.064-.375-.144-.667 1.126.282 3.947 1.044 4.4 3.915zm-9.267-1.26c-.211.146-.562-.047-.542 2.056.019 2.102 1.352 4.078 2.784 4.8 1.432.722 1.767.711 1.767.711s-2.087-.486-2.768-3.287c-.68-2.802.065-4.738.065-4.738s-1.026.261-1.306.458zm13.198 15.119s-.95-.118-1.725-.03c-1.596.179-2.978 1.065-2.978 1.065s-.755-1.08-1.354-1.674c-.56-.555-1.827-1.175-1.827-1.175s1.117.754 1.904 1.627c.594.659.956 1.354 1.192 1.81 0 0 2.374-1.88 4.788-1.623zm-16.831 6.228s.62 2.072 2.63 3.092a5.34 5.34 0 003.802.428l.191-.604s-2.157.445-3.58-.217a7.631 7.631 0 01-3.043-2.699zm19.272.11c-3.046 1.49-6.457 1.47-7.594 1.298-.175.1-.38.222-.552.486 2.449.243 6.26-.17 8.146-1.784zm-22.142-6.66s-.94-.79-.52-2.572c.422-1.782 3.066-4.95 3.066-4.95s-.728 1.153-1.263 2.077c-1.874 3.219-.569 4.495-.569 4.495l-.714.95zm5.117-4.084c.204-.186.367-.412.478-.664.19-.425.167-1.07.167-1.07.07.04.137.088.2.14.102.086.277.453.15.885-.125.432-.354.535-.57.551a1.2 1.2 0 00-.425.158zm-12.53-1.92c-.536 1.06-1.377 1.873-2.513 2.123.916.144 2.462-.567 3.13-1.793a1.355 1.355 0 01-.617-.33zm3.668 3.018c-1.58 1.935-2.47 2.921-3.625 3.242 1.277-.355 2.26-.903 3.43-1.566-.084-.195-.114-.977.195-1.676zm-7.44-7.192c-1.322.089-1.919-.263-2.726-1.173.449 1.138 1.901 2.077 3.152 1.939a4.202 4.202 0 01-.426-.766zm-8.776-.449c.34-1.464 1.615-1.858 3.172-1.948-1.07.099-2.991 1.45-3.172 1.948zM14.568 57s1.053 1.428 3.528 2.222c1.72.644 4.17.443 4.675.284.132-.199.01-2.32.732-3.845-1.042.991-1 2.261-2.323 2.911-.758.24-3.894.555-6.612-1.571zm6.225-7.386s2.046.32 2.87 1.245c.705.791.56 2.242.56 2.242s.353-.822.821-1.206c.264-.218.858-.774 1.154-.945 0 0-1.672-.567-2.989-.968-1.316-.4-2.416-.368-2.416-.368zm-5.941 1.829c.628-.885 4.374-2.725 7.01-2.445-2.866-.716-6.119.867-7.01 2.445zm-4.522-5.257s-3.039.704-4.273 1.596c-.85.614-1.418 1.27-1.275 1.95.17.808 1.432 2.08 1.912 2.335-.184-.246-1.244-1.913-1.067-2.65.161-.67 1.308-1.963 4.702-3.231z" fill="#fff"/><path d="M14.808 49.408s-.661-1.285-1.389-1.976c-1.187-1.126-1.642-1.505-2.19-1.47-.226.013-2.527.682-2.999.946.776-.197 2.85-.737 3.564-.367.951.493 2.636 2.177 3.014 2.867zM3.33 38.66s-.828 2.479-.557 4.4c.27 1.923.955 3.173 1.206 3.182.251.008 1.597-.836 2.144-.89.547-.055-1.29-.012-1.817-.545-.526-.533-1.392-2.518-.975-6.147zm7.078 4.568s-.045-1.449-.39-2.506c-.46-1.192-.913-1.449-1.344-1.564a10.9 10.9 0 00-2.122-.184c1.016.272 1.559.446 2.231.835.673.389 1.225 1.296 1.625 3.419zm3.225-11.783c-.2.792-.495 1.556-.88 2.277-.6 1.066-2.432 2.926-2.852 2.871-.148-.019-.468-.41-1.194-.682a14.028 14.028 0 00-2.153-.521s2.244.09 2.875.05c1.669-.11 4.204-3.995 4.204-3.995zM12.54 29.15s-1.062-1.02-1.68-1.288c-.617-.268-.826-.19-1.681.25-.856.44-4.204 4.43-4.795 5.394-1.218 1.857-.805 2.18-.805 2.18s-.014-1.882 4.65-6.073c1.937-1.479 3.122-.97 4.31-.462zM19.31 27s-.293.305-1.062.792c-.77.487-2.32 1.101-2.578.916-.198-.142-.88-1.27-.88-1.27s.59.369 1.037.474c.629.148 1.712-.09 2.346-.437.36-.201.74-.36 1.137-.474zm1.279-1.963s-.003-1.45-.371-1.999c-.369-.549-.582-.602-1.525-.689-.943-.087-3.182.86-4.178 1.343-1.76.854-2.847 1.894-2.847 1.894s4.115-2.356 6.269-2.53c2.389-.194 2.476 1.033 2.652 1.981zm8.133-2.247c-.008-1.026-1.756-1.314-2.538-1.44-1.507-.243-2.758-.022-3.17.132-.414.153-.905.346-1.02.631-.116.285.242 1.008.242 1.008s-.027-.541.783-.945c.809-.403 3.04-.522 4.022-.286.52.112 1.107.2 1.681.9zm-1.613 3.148c-.385.362-.825.373-1.516.5-.993.18-2.21.166-2.48.004-.233-.137-.14-1.4-.14-1.4.092.284.167.65.417.815.371.244.586.28 1.606.242.62-.023 1.77-.002 2.113-.161zm3.719.812c4.644 2.616 11.742 5.048 16.608 3.72-5.549 2.279-12.453-.794-16.608-3.72zm10.958-13.639c-4.565 2.043-8.968 5.583-10.345 8.456 1.287-2.224 5.608-5.786 10.479-7.91 4.584-2 9.702-2.63 11.776-2.62-2.637-.51-7.354.036-11.91 2.074zm-8.511 55.777s-3.085-1.53-5.346-4.086c-3.516-3.979-1.985-8.014-1.985-8.014s-.398 2.896 1.363 5.216c3.742 4.932 6.72 5.367 6.72 5.367l-.752 1.517zm4.922-17.765a23.306 23.306 0 012.947 1.88c1.604 1.19 2.17 2.203 2.25 2.81a2.5 2.5 0 01-.08 1.074c.22-.24.467-.453.737-.636.286-.15.623-.333.623-.333a2.837 2.837 0 01-.042-.834 2.53 2.53 0 01.308-.833s-1.248-1.093-3.424-2.006c-2.226-.944-3.32-1.122-3.32-1.122zm8.385-.621c-.005.38-.071.756-.197 1.115 0 0 .55.443.691.514.14.072.214.12.325.068.111-.053.352-.297.48-.402.128-.105-1.277-2.14-1.3-1.295zm-6.722-3.209a6.278 6.278 0 01-.409 1.155s.619.319.76.398c.255.152.505.084.608.075-.202-.054-.916-.239-.96-1.628zm-6.39-1.172c.057.455.063.915.018 1.372 0 0 .932.004 1.11.029.434.068.403-.076.117-.259-.976-.625-1.363-2.107-1.245-1.142zm13.514-1.972l-.006-.004c.767-.266 1.997-.456 4.053-.062-1.166-.06-2.357.007-3.356.241.367.21 1.118 1.36 1.366 1.97-.642-1.143-1.506-1.755-2.057-2.145zm3.901 12.183s.624.023.99-.318c.364-.34.404-.742.559-1.044.154-.302.25-.324.25-.324a4.91 4.91 0 00-.154.7c-.036.32.001.733-.097 1.017-.098.283-.282.451-.773.378a1.324 1.324 0 01-.775-.409z" fill="#fff"/></svg>