<svg width="194" height="27" fill="none" xmlns="http://www.w3.org/2000/svg"><path d="M12.453 26.424c-2.425 0-4.52-.53-6.285-1.59-1.742-1.082-3.096-2.577-4.06-4.483C1.141 18.42.66 16.184.66 13.64c0-2.518.482-4.73 1.447-6.637.965-1.93 2.319-3.437 4.06-4.52C7.934 1.401 10.029.86 12.454.86c2.824 0 5.12.683 6.885 2.048 1.789 1.342 2.93 3.225 3.425 5.65H19.48c-.377-1.53-1.153-2.755-2.33-3.673-1.154-.941-2.719-1.412-4.696-1.412-1.766 0-3.308.412-4.626 1.236-1.318.8-2.342 1.965-3.072 3.495-.706 1.507-1.059 3.32-1.059 5.438s.353 3.943 1.06 5.473c.73 1.506 1.753 2.672 3.071 3.495 1.318.8 2.86 1.2 4.626 1.2 1.977 0 3.542-.446 4.696-1.34 1.177-.919 1.953-2.131 2.33-3.638h3.284c-.494 2.378-1.636 4.237-3.425 5.58-1.765 1.34-4.06 2.012-6.885 2.012zM25.613 26V1.284h7.98c1.93 0 3.507.318 4.731.953 1.224.636 2.13 1.507 2.72 2.613.588 1.106.882 2.33.882 3.672 0 1.554-.424 2.954-1.271 4.202-.824 1.247-2.119 2.13-3.884 2.648L42.173 26h-3.495l-5.014-10.204h-5.085V26h-2.966zm2.966-12.535h4.802c1.907 0 3.296-.459 4.167-1.377.87-.918 1.306-2.095 1.306-3.53 0-1.46-.435-2.613-1.306-3.46C36.7 4.225 35.3 3.79 33.346 3.79h-4.767v9.674zM43.577 26l9.11-24.716h3.143L64.904 26h-3.142l-2.26-6.356H48.98L46.685 26h-3.108zm6.285-8.757h8.757L54.241 5.027l-4.379 12.216zM66.107 26v-2.33L78.288 3.86H66.283V1.284H81.75v2.33L69.532 23.422H81.89V26H66.107zm24.686 0v-9.392l-8.05-15.324h3.354l6.18 12.5 6.178-12.5h3.319l-8.015 15.324V26h-2.966zm12.891 0V1.284h2.966v22.35h11.511V26h-14.477zm17.139 0V1.284h2.966V26h-2.966zm18.023.424c-2.425 0-4.555-.53-6.391-1.59-1.813-1.082-3.237-2.588-4.273-4.519-1.012-1.93-1.518-4.154-1.518-6.673s.506-4.731 1.518-6.638c1.036-1.93 2.46-3.437 4.273-4.52 1.836-1.083 3.966-1.624 6.391-1.624 2.448 0 4.578.541 6.39 1.624 1.836 1.083 3.261 2.59 4.273 4.52 1.012 1.907 1.518 4.12 1.518 6.638 0 2.519-.506 4.743-1.518 6.673-1.012 1.93-2.437 3.437-4.273 4.52-1.812 1.06-3.942 1.589-6.39 1.589zm0-2.613c1.812 0 3.401-.4 4.766-1.2 1.389-.825 2.46-1.99 3.213-3.496.777-1.53 1.166-3.355 1.166-5.473 0-2.119-.389-3.931-1.166-5.438-.753-1.506-1.824-2.66-3.213-3.46-1.365-.824-2.954-1.236-4.766-1.236-1.813 0-3.414.412-4.802 1.236-1.366.8-2.437 1.954-3.214 3.46-.753 1.507-1.129 3.32-1.129 5.438s.376 3.943 1.129 5.473c.777 1.506 1.848 2.672 3.214 3.495 1.388.8 2.989 1.2 4.802 1.2zM153.893 26V1.284h2.966l13.171 19.808V1.284h2.966V26h-2.966L156.859 6.192V26h-2.966zm30.806.424c-1.813 0-3.39-.33-4.732-.989-1.341-.659-2.377-1.577-3.107-2.754-.729-1.177-1.094-2.542-1.094-4.096h3.107c0 .965.223 1.86.671 2.684.447.8 1.094 1.447 1.942 1.942.871.47 1.942.706 3.213.706 1.671 0 2.966-.4 3.884-1.2.918-.801 1.377-1.801 1.377-3.002 0-.989-.212-1.777-.636-2.366-.423-.612-1-1.106-1.73-1.483-.706-.376-1.53-.706-2.471-.988-.919-.283-1.884-.6-2.896-.954-1.906-.659-3.319-1.47-4.237-2.436-.918-.989-1.377-2.271-1.377-3.849-.023-1.318.283-2.483.918-3.495.636-1.036 1.53-1.836 2.684-2.401 1.177-.589 2.565-.883 4.166-.883 1.577 0 2.942.294 4.096.883 1.177.588 2.083 1.4 2.719 2.436.659 1.036 1 2.213 1.024 3.531h-3.108c0-.683-.176-1.354-.529-2.013-.353-.682-.895-1.235-1.624-1.66-.707-.423-1.601-.635-2.684-.635-1.342-.023-2.448.318-3.319 1.024-.847.706-1.271 1.683-1.271 2.93 0 1.06.294 1.872.883 2.437.612.565 1.459 1.036 2.542 1.413 1.083.353 2.33.765 3.743 1.235 1.177.424 2.236.918 3.177 1.483.942.565 1.672 1.295 2.19 2.19.541.894.812 2.036.812 3.424 0 1.177-.306 2.296-.918 3.355-.612 1.035-1.542 1.883-2.79 2.542-1.224.66-2.766.989-4.625.989z" fill="#fff"/></svg>