<svg width="168" height="66" fill="none" xmlns="http://www.w3.org/2000/svg"><path d="M93.091 23.367l-13.85 17.72h10.202l13.812-17.72H93.091zM90.466 0H80.38l13.29 17.012h9.932L90.466 0zm14.468 9.804l5.164 6.695L122.346 0h-10.395l-7.017 9.804zm-.087 20.801l7.558 10.482h10.154l-12.297-17.4-5.415 6.918z" fill="#fff"/><path d="M93.091 23.367l-13.85 17.72h10.202l13.812-17.72H93.091zM90.466 0H80.38l13.29 17.012h9.932L90.466 0zm14.468 9.804l5.164 6.695L122.346 0h-10.395l-7.017 9.804zm-.087 20.801l7.558 10.482h10.154l-12.297-17.4-5.415 6.918zM29.253 0v30.76h-.116L10.113 0H.452v41.097h7.287V9.349h.116l19.43 31.748h9.255V0h-7.287zm17.74 0h27.122v6.384H54.281v10.444h18.792v6.152H54.281v11.616h20.877v6.5H46.993V0zm92.611 6.384h-12.547V0h32.382v6.384h-12.548v34.713h-7.287V6.384zM168 32.503h-8.561v8.584H168v-8.584zM8.84 51.835H0v13.298h9.025v-1.071h-7.77v-5.283h6.847v-1.07H1.255v-4.803h7.586v-1.071zm19.259 3.86h1.291a6.076 6.076 0 00-.59-1.828 4.501 4.501 0 00-1.108-1.312 5.178 5.178 0 00-1.55-.813 6.951 6.951 0 00-1.9-.258c-.887 0-1.699.13-2.456.37a5.012 5.012 0 00-1.956 1.218c-.554.573-.978 1.293-1.292 2.18-.314.886-.48 1.957-.48 3.232 0 .942.11 1.847.314 2.678.203.85.554 1.588 1.015 2.235a4.855 4.855 0 001.772 1.514c.72.388 1.606.573 2.62.573.887 0 1.662-.13 2.326-.388a5.109 5.109 0 001.68-1.016c.461-.425.83-.942 1.107-1.514a8.43 8.43 0 00.646-1.81h-1.31a5.95 5.95 0 01-.536 1.459c-.24.443-.535.83-.886 1.145a3.92 3.92 0 01-1.236.776 4.14 4.14 0 01-1.55.277c-.905 0-1.662-.167-2.27-.517-.61-.351-1.09-.795-1.44-1.367a5.629 5.629 0 01-.757-1.903 9.62 9.62 0 01-.24-2.18c0-.793.093-1.532.277-2.252.166-.702.443-1.33.83-1.866a4.15 4.15 0 011.422-1.293c.572-.314 1.273-.48 2.067-.48 1.126 0 2.049.24 2.75.72.701.48 1.181 1.293 1.44 2.42zm10.183 2.807c0 .96.129 1.866.387 2.697.259.85.646 1.588 1.163 2.216a5.414 5.414 0 001.938 1.515c.775.37 1.68.554 2.695.554s1.92-.185 2.694-.554a5.414 5.414 0 001.938-1.515c.517-.628.905-1.367 1.181-2.216a9.069 9.069 0 00.388-2.697c0-.979-.13-1.884-.387-2.752a6.995 6.995 0 00-1.182-2.234 5.825 5.825 0 00-1.956-1.496c-.794-.351-1.698-.536-2.732-.536-.996 0-1.882.185-2.639.554a5.681 5.681 0 00-1.92 1.496 6.608 6.608 0 00-1.162 2.235c-.277.85-.406 1.755-.406 2.733zm6.201 5.91c-.867 0-1.624-.166-2.233-.48a4.192 4.192 0 01-1.532-1.292 5.228 5.228 0 01-.886-1.884 8.202 8.202 0 01-.295-2.254c0-.775.092-1.514.295-2.235.185-.72.48-1.348.886-1.902a4.424 4.424 0 011.532-1.311c.609-.333 1.347-.499 2.196-.499.757 0 1.458.13 2.067.407a4.304 4.304 0 011.57 1.181c.424.518.756 1.146.996 1.866.221.739.332 1.57.332 2.493a8.91 8.91 0 01-.277 2.235 5.921 5.921 0 01-.886 1.884 4.518 4.518 0 01-1.532 1.293c-.627.332-1.365.499-2.233.499zm16.794-3.25h-1.218c0 .72.129 1.348.369 1.884.24.535.572.997.996 1.348.425.37.942.647 1.532.831.59.166 1.237.259 1.92.259 1.532 0 2.731-.333 3.58-1.016.85-.683 1.274-1.625 1.274-2.863 0-.646-.11-1.182-.314-1.607a3.168 3.168 0 00-.867-1.034c-.351-.277-.757-.48-1.219-.646a16.322 16.322 0 00-1.44-.425l-1.439-.333a6.417 6.417 0 01-1.31-.406 3.395 3.395 0 01-.997-.628c-.277-.259-.443-.61-.517-1.034a2.454 2.454 0 01.056-1.034c.092-.351.277-.665.535-.942a2.997 2.997 0 011.052-.702c.425-.166.96-.259 1.606-.259.424 0 .83.056 1.218.166.388.111.738.277 1.052.518.314.24.554.535.738.905.166.369.259.812.259 1.31h1.2c0-.535-.093-1.052-.278-1.532a3.625 3.625 0 00-.83-1.274 3.99 3.99 0 00-1.384-.85c-.573-.203-1.219-.314-1.975-.314-.738 0-1.384.092-1.957.295-.572.204-1.033.462-1.402.795-.388.332-.665.72-.85 1.145a3.039 3.039 0 00-.295 1.33c0 .646.111 1.182.351 1.606.24.425.535.776.923 1.053.37.277.794.48 1.292.647.48.166.978.295 1.495.406.498.13.996.24 1.495.37a6.2 6.2 0 011.292.48c.369.203.664.48.904.794.24.314.35.739.35 1.256 0 .37-.055.72-.184 1.052a2.18 2.18 0 01-.609.868 2.925 2.925 0 01-1.052.61c-.424.148-.941.222-1.532.222a5.08 5.08 0 01-1.42-.185 3.09 3.09 0 01-1.164-.554 2.655 2.655 0 01-.83-1.016c-.222-.406-.35-.905-.406-1.496zm27.693-9.327h-1.46l-4.005 6.409-3.913-6.41h-1.44l4.744 7.592v5.707h1.255v-5.8l4.817-7.498zm10.373 9.327h-1.218c0 .72.13 1.348.37 1.884.24.535.572.997.996 1.348.424.37.941.647 1.532.831a7.095 7.095 0 001.919.259c1.532 0 2.732-.333 3.581-1.016.849-.683 1.273-1.625 1.273-2.863 0-.646-.11-1.182-.313-1.607a3.17 3.17 0 00-.868-1.034c-.35-.277-.756-.48-1.218-.646a16.299 16.299 0 00-1.439-.425l-1.44-.333a6.43 6.43 0 01-1.311-.406 3.403 3.403 0 01-.996-.628c-.277-.259-.443-.61-.517-1.034a2.454 2.454 0 01.055-1.034c.093-.351.277-.665.536-.942a2.993 2.993 0 011.052-.702c.424-.166.959-.259 1.605-.259.425 0 .831.056 1.219.166.387.111.738.277 1.052.518.313.24.553.535.738.905.166.369.258.812.258 1.31h1.2a4.25 4.25 0 00-.277-1.532 3.62 3.62 0 00-.831-1.274 3.983 3.983 0 00-1.384-.85c-.572-.203-1.218-.314-1.975-.314-.738 0-1.384.092-1.956.295-.572.204-1.034.462-1.403.795a3.15 3.15 0 00-.849 1.145 3.039 3.039 0 00-.295 1.33c0 .646.11 1.182.35 1.606.24.425.536.776.924 1.053.369.277.793.48 1.291.647.48.166.979.295 1.495.406.499.13.997.24 1.495.37.48.129.905.276 1.292.48.37.203.665.48.905.794.24.314.35.739.35 1.256 0 .37-.055.72-.184 1.052a2.184 2.184 0 01-.609.868 2.93 2.93 0 01-1.052.61c-.425.148-.942.222-1.532.222-.498 0-.978-.056-1.421-.185a3.089 3.089 0 01-1.163-.554 2.653 2.653 0 01-.83-1.016c-.222-.406-.351-.905-.407-1.496zm26.988-8.256v-1.071h-9.671v1.071h4.208v12.227h1.255V52.906h4.208zm19.037-1.071h-8.841v13.298h9.025v-1.071h-7.77v-5.283h6.847v-1.07h-6.847v-4.803h7.586v-1.071zm12.056 0h-1.919v13.298h1.255V53.275h.037l4.374 11.858h1.181l4.356-11.858h.037v11.858H168V51.835h-1.901l-4.282 11.728h-.037l-4.356-11.728z" fill="#fff"/></svg>