<svg width="241" height="50" fill="none" xmlns="http://www.w3.org/2000/svg"><path d="M199.569 41.485l-2.281 6.314-2.244-6.314h-1.335l2.868 7.604h1.442l2.856-7.604h-1.306zm-27.074 0v.976h2.066v6.616h1.239V42.46h2.021v-.976h-5.326zm-15.952 0l-2.644 5.962-2.67-5.962h-1.343v7.604h1.24v-5.206l2.331 5.206h.855l2.318-5.206v5.206h1.24v-7.604h-1.327zm-27.971 0v3.283h-3.574v-3.283h-1.24v7.604h1.24v-3.358h3.574v3.358h1.24v-7.604h-1.24zm-15.207 0v.976h2.033v6.616h1.24V42.46h2.021v-.976h-5.294zm-27.422 0v.976h2.034v6.616h1.24V42.46h2.02v-.976h-5.294zm-20.992 0l-2.66 5.962-2.666-5.962h-1.347v7.604h1.24v-5.206l2.33 5.206h.864l2.343-5.206v5.206h1.24v-7.604H64.95zm-38.785 6.653v-6.653h-1.24v7.604h3.814v-.951h-2.574zM9.178 41.485L7.59 47.646l-1.587-6.16H4.608l-1.708 6.2-1.575-6.202H0L2.157 49.1h1.4l1.695-5.755L6.847 49.1h1.41l2.251-7.616h-1.33zm231.499.964v-.972h-4.198v7.612h4.198v-.972h-2.955V45.72h2.628v-.963h-2.628V42.45h2.955zm-30.724 0v-.972h-4.198v7.612h4.198v-.972h-2.95V45.72h2.624v-.963h-2.624V42.45h2.95zm-23.343-.972h-1.442l-2.723 7.612h1.301l.546-1.55h3.182l.545 1.55h1.314l-2.723-7.612zm-1.979 5.086l1.239-3.577 1.24 3.577h-2.479zm-17.096-4.114v-.972h-4.19v7.612h4.19v-.972h-2.954V45.72h2.624v-.963h-2.624V42.45h2.954zm-28.049 0v-.972h-4.182v7.612h4.198v-.972h-2.959V45.72h2.624v-.963h-2.624V42.45h2.943zm-63.539 0v-.972H71.75v7.612h4.198v-.972h-2.95V45.72h2.624v-.963h-2.624V42.45h2.95zm-56.384 0v-.972h-4.199v7.612h4.199v-.972h-2.95V45.72h2.623v-.963h-2.624V42.45h2.95zm199.299 3.477a2.19 2.19 0 001.331-.827c.285-.391.437-.864.434-1.348a2.19 2.19 0 00-.302-1.15 2.1 2.1 0 00-.909-.826 3.228 3.228 0 00-1.483-.306h-2.624v7.603h1.239V46.05h.951l1.752 3.039h1.487l-1.876-3.163zm-2.305-.873V42.45h1.392a1.45 1.45 0 011.062.343 1.261 1.261 0 01.351.959 1.294 1.294 0 01-.355.951 1.475 1.475 0 01-1.058.352h-1.392zM38.281 47.741a2.512 2.512 0 01-1.215.29c-.47.007-.933-.11-1.343-.34a2.41 2.41 0 01-.925-.97 3.29 3.29 0 010-2.895c.207-.402.525-.735.917-.96a2.59 2.59 0 011.343-.339 2.44 2.44 0 011.215.29c.358.192.647.491.827.856h1.5a3.353 3.353 0 00-1.372-1.687 4.13 4.13 0 00-4.112-.1 3.72 3.72 0 00-1.413 1.386 4.137 4.137 0 000 4.002 3.773 3.773 0 001.409 1.385 4.176 4.176 0 004.132-.095 3.357 3.357 0 001.372-1.683h-1.5a2.03 2.03 0 01-.835.86zm64.882-4.469a3.595 3.595 0 00-1.405-1.386 4.078 4.078 0 00-3.913 0 3.72 3.72 0 00-1.413 1.386 4.136 4.136 0 000 4.006 3.81 3.81 0 001.413 1.394 4.105 4.105 0 003.913 0 3.67 3.67 0 001.405-1.394 4.14 4.14 0 000-4.006zm-1.099 3.448a2.418 2.418 0 01-.922.976 2.806 2.806 0 01-2.69 0 2.422 2.422 0 01-.925-.976 3.29 3.29 0 010-2.894c.208-.405.53-.74.925-.964a2.837 2.837 0 012.69 0c.395.225.715.56.922.964a3.285 3.285 0 010 2.894zm-49.348-3.448a3.593 3.593 0 00-1.405-1.386 4.085 4.085 0 00-3.918 0 3.72 3.72 0 00-1.409 1.386 4.116 4.116 0 000 4.006 3.798 3.798 0 001.41 1.394 4.131 4.131 0 003.917 0 3.67 3.67 0 001.405-1.394 4.174 4.174 0 000-4.006zm-1.1 3.448c-.21.406-.53.745-.925.976a2.808 2.808 0 01-2.69 0 2.48 2.48 0 01-.926-.976 3.309 3.309 0 010-2.894c.21-.403.532-.737.926-.964a2.837 2.837 0 012.69 0c.395.225.717.56.926.964a3.31 3.31 0 010 2.894zm179.227-.939a2.025 2.025 0 00-.827-.64 8.95 8.95 0 00-1.239-.414 9.495 9.495 0 01-.897-.285 1.548 1.548 0 01-.542-.356.828.828 0 01-.214-.575 1.001 1.001 0 01.334-.827c.25-.196.563-.296.881-.28a1.42 1.42 0 01.954.301 1.044 1.044 0 01.389.753h1.38a2.036 2.036 0 00-.785-1.517 2.815 2.815 0 00-1.81-.555 3.343 3.343 0 00-1.364.265 2.07 2.07 0 00-.922.752 2.034 2.034 0 00-.326 1.15c-.009.407.117.806.36 1.133.207.272.48.489.793.628a9.22 9.22 0 001.211.414c.312.076.62.171.921.285.213.078.404.205.558.372.153.17.233.395.223.624a1.084 1.084 0 01-.359.827 1.45 1.45 0 01-1.004.323 1.357 1.357 0 01-.972-.327 1.288 1.288 0 01-.388-.827h-1.331c-.01.41.111.814.348 1.15.245.337.578.6.962.76a3.52 3.52 0 001.381.27 3.04 3.04 0 001.405-.31c.371-.189.684-.475.904-.828a2.06 2.06 0 00.315-1.095 1.838 1.838 0 00-.339-1.17zM82.278 8.746H72.32V.762h28.906v7.984h-9.96v20.996h-8.987V8.747zm28.839-7.98l-11.496 28.98h8.988l1.806-4.713L119.704.766h-8.587zm12.236 1.083l-4.492 11.739 6.257 16.158h9.558L123.353 1.85zm94.733 11.185v16.709h-8.79V.761h9.191l13.401 16.22V.763h8.789v28.98h-8.678l-13.913-16.708zM68.36.762V7.79H52.5v3.721h15.34v7.207H52.5v3.974h16.076v7.087H43.513V.762h24.848zM0 .762h12.434L19.15 17.3 26 .76h11.897v28.982h-8.822V11.628L21.69 29.742h-5.68L8.69 11.628v18.114H.012L0 .762zm150.981 29.452a20.83 20.83 0 01-5.628-.683 14.65 14.65 0 01-4.133-1.81 11.149 11.149 0 01-2.838-2.61 14.203 14.203 0 01-1.79-3.076 13.754 13.754 0 01-.917-3.213 19.723 19.723 0 01-.252-3.06v-1.17a19.67 19.67 0 01.252-3.055 13.87 13.87 0 01.901-3.196 13.454 13.454 0 011.768-3.035 11.065 11.065 0 012.86-2.572A15.12 15.12 0 01145.336.96a21.35 21.35 0 015.645-.662h1.504a26.014 26.014 0 015.665.559 16.4 16.4 0 014.133 1.46 10.185 10.185 0 012.789 2.124c.691.758 1.272 1.61 1.723 2.531.412.852.704 1.756.868 2.688.148.849.226 1.71.231 2.571v.31h-9.326a7.613 7.613 0 00-.232-.988 3.905 3.905 0 00-.888-1.488 5.78 5.78 0 00-2.037-1.369 9.259 9.259 0 00-3.661-.595 8.046 8.046 0 00-3.525.665 5.79 5.79 0 00-2.104 1.654 5.61 5.61 0 00-1.02 2.175 10.057 10.057 0 00-.269 2.233v.467a9.96 9.96 0 00.285 2.274 6.21 6.21 0 001.037 2.25 5.693 5.693 0 002.104 1.724c1.105.5 2.312.735 3.525.686a9.316 9.316 0 003.644-.583 5.866 5.866 0 002.021-1.344 3.86 3.86 0 00.888-1.463 8.58 8.58 0 00.232-.935h9.322v.319a14.404 14.404 0 01-.231 2.452 11.053 11.053 0 01-.851 2.667 10.304 10.304 0 01-4.513 4.755 16.556 16.556 0 01-4.132 1.538 24.355 24.355 0 01-5.678.579h-1.504zM188.78.257a23.055 23.055 0 015.785.641c1.496.369 2.931.952 4.261 1.732a11.16 11.16 0 012.942 2.535 12.74 12.74 0 011.818 3.035 14.34 14.34 0 01.938 3.254c.171 1.036.26 2.084.264 3.134v1.154a19.592 19.592 0 01-.264 3.134 14.233 14.233 0 01-.938 3.254 13.378 13.378 0 01-1.818 3.076 11.16 11.16 0 01-2.926 2.593c-1.323.8-2.76 1.397-4.26 1.77a22.63 22.63 0 01-5.786.665h-1.504a22.418 22.418 0 01-5.785-.665 15.376 15.376 0 01-4.244-1.77 11.444 11.444 0 01-2.942-2.593 13.043 13.043 0 01-1.839-3.076 14.228 14.228 0 01-.934-3.254 19.723 19.723 0 01-.293-3.134v-1.17a19.74 19.74 0 01.268-3.155 14.02 14.02 0 01.951-3.233 13.213 13.213 0 011.839-3.035 11.216 11.216 0 012.925-2.535A15.616 15.616 0 01181.482.88a23.068 23.068 0 015.786-.64l1.512.016zm6.583 14.604a10.364 10.364 0 00-.269-2.253 5.61 5.61 0 00-1.05-2.212 5.849 5.849 0 00-2.223-1.683 11.238 11.238 0 00-7.62 0 5.675 5.675 0 00-2.206 1.683 5.785 5.785 0 00-1.037 2.212 10.3 10.3 0 00-.265 2.253v.414c.006.765.095 1.527.265 2.274.188.825.554 1.6 1.07 2.27a5.985 5.985 0 002.239 1.745c2.436.91 5.118.91 7.554 0a5.845 5.845 0 002.223-1.745 5.943 5.943 0 001.05-2.27 10.68 10.68 0 00.269-2.274v-.414z" fill="#D9D9D9"/></svg>