<svg width="253" height="22" fill="none" xmlns="http://www.w3.org/2000/svg"><path d="M68.276 4.634c2.053 2.421 3.82 4.527 3.926 4.68.128.186.32.108.569-.233.206-.282 1.873-2.387 3.702-4.678L79.8.24l4.103-.003 4.103-.003-1.84 2.136-6.303 7.309-4.461 5.172v6.926h-6.284l-.012-3.526-.012-3.527-6.397-7.156C59.179 3.631 56.3.371 56.3.322c0-.05 1.855-.09 4.121-.09h4.122l3.733 4.402zM50.051.603c.918.198 2.25.616 2.961.927 1.552.682 3.319 2.583 3.743 4.028.367 1.25.384 3.456.036 4.735-.518 1.903-2.508 3.841-4.486 4.37-.484.129-.384.294 1.002 1.64.848.824 2.332 2.392 3.299 3.486l1.758 1.987-4.362-.014-4.363-.015-2.262-2.792-2.262-2.792-5.09-.014-5.089-.015v5.642h-6.283V10.748h9.739c8.769 0 9.827-.045 10.619-.45 1.68-.856 1.873-2.647.406-3.766-.666-.508-1.09-.534-10.752-.657l-10.06-.128 2.068-2.757L32.741.233l7.82.004c5.751.003 8.264.1 9.49.366zM6.484 4.465c-.041 2.327-.046 4.232-.012 4.232.035 0 2.24-1.902 4.902-4.226L16.21.246l4.763-.007c2.684-.003 4.659.09 4.524.215-.4.371-10.45 8.024-11.857 9.03l-1.32.944 1.051.709c.847.571 11.996 9.588 12.88 10.416.137.128-1.876.223-4.699.223h-4.938l-4.977-4.452L6.66 12.87l-.068 4.453-.069 4.452H0V.233h6.558l-.074 4.232zM109.77.976c1.838.685 3.861 2.418 4.639 3.972.64 1.278.873 3.965.474 5.469-.572 2.158-2.615 4.177-5.174 5.111-1.057.387-2.412.481-8.545.597l-7.289.137-.071 2.757-.072 2.757h-6.517V10.748h9.575c10.415 0 10.888-.059 11.502-1.435.585-1.31.235-2.417-.965-3.05-.617-.326-2.259-.388-10.298-.388-5.26 0-9.563-.06-9.563-.133 0-.073.933-1.349 2.073-2.834L91.613.207l8.294.092c7.886.088 8.371.12 9.863.677zm32.69 2.067l-2.087 2.81-3.833.011-3.833.011v15.901h-6.284v-15.9h-4.922c-2.859 0-4.887-.099-4.838-.235.046-.129.962-1.398 2.036-2.821l1.952-2.587h23.897l-2.088 2.81z" fill="#fff"/><path fill-rule="evenodd" clip-rule="evenodd" d="M164.94.583c2.279.527 4.801 1.79 5.986 3 3.56 3.632 3.626 10.997.132 14.659-2.644 2.77-7.386 4.003-14.293 3.718-7.892-.326-12.001-2.626-13.387-7.494-.591-2.073-.412-6.437.334-8.134.652-1.485 2.257-3.3 3.657-4.138 1.241-.742 3.97-1.618 6.073-1.949 2.187-.344 9.471-.13 11.498.338zm-15.437 11.76c-.651-3.469.867-5.921 3.997-6.458 1.765-.303 7.833-.307 9.388-.006 3.194.618 4.128 1.779 4.124 5.126-.002 2.866-.407 3.654-2.34 4.562-1.292.607-1.787.68-5.22.777-7.141.2-9.326-.678-9.949-4z" fill="#fff"/><path d="M198.341.603c.918.198 2.25.616 2.961.927 1.552.682 3.319 2.583 3.743 4.028.367 1.25.384 3.456.036 4.735-.518 1.903-2.508 3.841-4.486 4.37-.485.129-.384.294 1.002 1.64.848.824 2.332 2.392 3.299 3.486l1.758 1.987-4.363-.014-4.362-.015-2.262-2.792-2.262-2.792-5.09-.014-5.089-.015v5.642h-6.284V10.748h9.74c8.769 0 9.827-.045 10.619-.45 1.68-.856 1.873-2.647.406-3.766-.666-.508-1.09-.534-10.753-.657l-10.058-.128 2.067-2.757 2.068-2.757 7.821.004c5.75.003 8.262.1 9.489.366zm17.308 10.402v10.771h-6.535V.233h6.535v10.771zM237.586.33c.445.194 1.148.72 1.563 1.17.414.45 3.701 5.167 7.302 10.483L253 21.648l-5.966.069a648.19 648.19 0 01-12.157 0l-6.191-.069 1.959-2.773 1.959-2.773 4.344.08c2.825.052 4.309-.01 4.245-.176-.132-.345-5.445-8.336-5.542-8.336-.043 0-2.269 3.174-4.95 7.053l-4.872 7.053h-3.848c-3.014 0-3.807-.07-3.657-.32.926-1.548 13.191-19.016 13.887-19.778.498-.545 1.245-1.147 1.66-1.337.984-.45 2.698-.456 3.715-.012z" fill="#fff"/></svg>