<svg width="147" height="26" fill="none" xmlns="http://www.w3.org/2000/svg"><path d="M.613 25.238V.52h2.966v24.716H.613zm14.668.423c-1.813 0-3.39-.33-4.732-.988-1.341-.66-2.377-1.577-3.107-2.754-.73-1.177-1.094-2.543-1.094-4.096h3.107c0 .965.224 1.86.67 2.683.448.8 1.095 1.448 1.943 1.942.87.47 1.942.706 3.213.706 1.671 0 2.966-.4 3.884-1.2.918-.8 1.377-1.8 1.377-3.001 0-.99-.212-1.778-.636-2.366-.423-.612-1-1.107-1.73-1.483-.706-.377-1.53-.706-2.471-.989-.918-.282-1.883-.6-2.896-.953-1.906-.66-3.319-1.471-4.237-2.436-.918-.99-1.377-2.272-1.377-3.85-.023-1.317.283-2.482.918-3.495.636-1.035 1.53-1.836 2.684-2.4 1.177-.59 2.566-.883 4.166-.883 1.577 0 2.943.294 4.096.882 1.177.589 2.083 1.4 2.719 2.437.659 1.035 1 2.212 1.024 3.53h-3.107c0-.682-.177-1.353-.53-2.012-.353-.683-.895-1.236-1.624-1.66-.707-.423-1.601-.635-2.684-.635-1.341-.024-2.448.318-3.319 1.024-.847.706-1.27 1.683-1.27 2.93 0 1.06.293 1.872.882 2.437.612.565 1.46 1.035 2.542 1.412 1.083.353 2.33.765 3.743 1.236 1.177.424 2.236.918 3.178 1.483.941.565 1.67 1.295 2.189 2.19.541.894.812 2.035.812 3.424 0 1.177-.306 2.295-.918 3.354-.612 1.036-1.542 1.884-2.79 2.543-1.224.659-2.765.988-4.625.988zm22.355 0c-2.425 0-4.555-.53-6.391-1.589-1.813-1.082-3.237-2.589-4.272-4.52-1.013-1.93-1.519-4.154-1.519-6.673 0-2.518.506-4.73 1.519-6.638 1.035-1.93 2.46-3.436 4.272-4.52C33.081.64 35.211.099 37.635.099c2.449 0 4.58.541 6.392 1.624 1.836 1.083 3.26 2.59 4.272 4.52 1.012 1.906 1.518 4.119 1.518 6.637 0 2.52-.506 4.744-1.518 6.674-1.012 1.93-2.436 3.436-4.272 4.52-1.813 1.059-3.943 1.588-6.391 1.588zm0-2.613c1.812 0 3.401-.4 4.767-1.2 1.388-.824 2.46-1.99 3.213-3.496.776-1.53 1.165-3.354 1.165-5.473 0-2.118-.389-3.93-1.165-5.437-.754-1.507-1.825-2.66-3.213-3.46-1.366-.824-2.955-1.236-4.767-1.236-1.813 0-3.413.412-4.802 1.236-1.365.8-2.436 1.953-3.213 3.46-.753 1.506-1.13 3.319-1.13 5.437 0 2.119.377 3.943 1.13 5.473.777 1.507 1.848 2.672 3.213 3.496 1.389.8 2.99 1.2 4.802 1.2zm21.532 2.19L49.883.52h3.213L60.9 22.095 68.772.521h3.143l-9.286 24.716h-3.46zm14.723 0V.52H89.18v2.437H76.857v8.615h11.264v2.401H76.857V22.8H89.18v2.437H73.891zm18.518 0V.52h7.98c1.93 0 3.507.318 4.731.954 1.224.635 2.131 1.506 2.719 2.613.589 1.106.883 2.33.883 3.672 0 1.553-.424 2.954-1.271 4.201-.824 1.248-2.119 2.13-3.884 2.649l5.402 10.628h-3.496l-5.014-10.205h-5.084v10.205h-2.966zm2.966-12.535h4.802c1.907 0 3.296-.46 4.166-1.377.871-.918 1.307-2.095 1.307-3.531 0-1.46-.436-2.613-1.307-3.46-.847-.871-2.248-1.307-4.201-1.307h-4.767v9.675zm24.426 12.958c-1.813 0-3.39-.33-4.732-.988-1.341-.66-2.377-1.577-3.107-2.754-.73-1.177-1.094-2.543-1.094-4.096h3.107c0 .965.223 1.86.671 2.683.447.8 1.094 1.448 1.942 1.942.871.47 1.942.706 3.213.706 1.671 0 2.966-.4 3.884-1.2.918-.8 1.377-1.8 1.377-3.001 0-.99-.212-1.778-.636-2.366-.423-.612-1-1.107-1.73-1.483-.706-.377-1.53-.706-2.472-.989a81.97 81.97 0 01-2.895-.953c-1.907-.66-3.319-1.471-4.237-2.436-.918-.99-1.377-2.272-1.377-3.85-.024-1.317.282-2.482.918-3.495.636-1.035 1.53-1.836 2.684-2.4 1.176-.59 2.565-.883 4.166-.883 1.577 0 2.942.294 4.096.882 1.177.589 2.083 1.4 2.719 2.437.659 1.035 1 2.212 1.024 3.53h-3.108c0-.682-.176-1.353-.529-2.012-.353-.683-.895-1.236-1.624-1.66-.707-.423-1.601-.635-2.684-.635-1.342-.024-2.448.318-3.319 1.024-.847.706-1.271 1.683-1.271 2.93 0 1.06.294 1.872.883 2.437.612.565 1.459 1.035 2.542 1.412 1.083.353 2.33.765 3.743 1.236 1.177.424 2.236.918 3.177 1.483.942.565 1.672 1.295 2.19 2.19.541.894.812 2.035.812 3.424 0 1.177-.306 2.295-.918 3.354-.612 1.036-1.542 1.884-2.79 2.543-1.224.659-2.766.988-4.625.988zm11.126-.424V.521h15.289v2.437h-12.323v8.615h11.264v2.401h-11.264v8.827h12.323v2.437h-15.289z" fill="#fff"/></svg>