<svg width="186" height="26" fill="none" xmlns="http://www.w3.org/2000/svg"><path d="M12.453 25.661c-2.425 0-4.52-.53-6.285-1.589-1.742-1.082-3.096-2.577-4.06-4.484C1.141 17.658.66 15.422.66 12.88c0-2.518.482-4.73 1.447-6.638.965-1.93 2.319-3.436 4.06-4.52C7.934.64 10.029.099 12.454.099c2.824 0 5.12.682 6.885 2.048 1.789 1.341 2.93 3.224 3.425 5.649H19.48c-.377-1.53-1.153-2.754-2.33-3.672-1.154-.942-2.719-1.413-4.696-1.413-1.766 0-3.308.412-4.626 1.236-1.318.8-2.342 1.966-3.072 3.496-.706 1.506-1.059 3.319-1.059 5.437 0 2.119.353 3.943 1.06 5.473.73 1.507 1.753 2.672 3.071 3.496 1.318.8 2.86 1.2 4.626 1.2 1.977 0 3.542-.447 4.696-1.341 1.177-.918 1.953-2.13 2.33-3.637h3.284c-.494 2.377-1.636 4.237-3.425 5.579-1.765 1.341-4.06 2.012-6.885 2.012zm13.16-.424V.521h2.966v10.91h12.817V.522h2.966v24.717h-2.966v-11.37H28.58v11.37h-2.966zm20.999 0L55.722.521h3.142l9.074 24.716h-3.142l-2.26-6.355H52.014l-2.295 6.355h-3.107zm6.285-8.756h8.756L57.275 4.264l-4.378 12.217zM70.2 25.237V.521h2.966v24.716H70.2zm6.795 0V.521h2.965L93.13 20.33V.52h2.967v24.716H93.13L79.96 5.43v19.809h-2.966zm36.371.424c-2.236 0-3.99-.623-5.261-1.871s-1.906-2.978-1.906-5.19h3.001c0 1.247.306 2.295.918 3.142.612.847 1.683 1.271 3.213 1.271 1.483 0 2.507-.412 3.072-1.236.588-.824.883-1.848.883-3.072V.521h2.966v18.184c0 2.19-.612 3.896-1.837 5.12-1.2 1.224-2.883 1.836-5.049 1.836zm21.928 0c-2.425 0-4.555-.53-6.391-1.589-1.812-1.082-3.237-2.589-4.272-4.52-1.013-1.93-1.519-4.154-1.519-6.673 0-2.518.506-4.73 1.519-6.638 1.035-1.93 2.46-3.436 4.272-4.52C130.739.64 132.869.099 135.294.099c2.448 0 4.578.541 6.391 1.624 1.836 1.083 3.26 2.59 4.272 4.52 1.012 1.906 1.519 4.119 1.519 6.637 0 2.52-.507 4.744-1.519 6.674-1.012 1.93-2.436 3.436-4.272 4.52-1.813 1.059-3.943 1.588-6.391 1.588zm0-2.613c1.812 0 3.401-.4 4.767-1.2 1.388-.824 2.46-1.99 3.213-3.496.777-1.53 1.165-3.354 1.165-5.473 0-2.118-.388-3.93-1.165-5.437-.753-1.507-1.825-2.66-3.213-3.46-1.366-.824-2.955-1.236-4.767-1.236-1.813 0-3.413.412-4.802 1.236-1.365.8-2.436 1.953-3.213 3.46-.753 1.506-1.13 3.319-1.13 5.437 0 2.119.377 3.943 1.13 5.473.777 1.507 1.848 2.672 3.213 3.496 1.389.8 2.989 1.2 4.802 1.2zm15.048 2.19V.52h15.289v2.437h-12.323v8.615h11.263v2.401h-11.263V22.8h12.323v2.437h-15.289zm26.392.423c-1.813 0-3.39-.33-4.732-.988-1.342-.66-2.377-1.577-3.107-2.754-.73-1.177-1.095-2.543-1.095-4.096h3.108c0 .965.223 1.86.671 2.683.447.8 1.094 1.448 1.942 1.942.87.47 1.941.706 3.213.706 1.671 0 2.966-.4 3.884-1.2.918-.8 1.377-1.8 1.377-3.001 0-.99-.212-1.778-.636-2.366-.424-.612-1-1.107-1.73-1.483-.706-.377-1.53-.706-2.472-.989a81.97 81.97 0 01-2.895-.953c-1.907-.66-3.319-1.471-4.237-2.436-.918-.99-1.377-2.272-1.377-3.85-.024-1.317.282-2.482.918-3.495.635-1.035 1.53-1.836 2.683-2.4 1.177-.59 2.566-.883 4.167-.883 1.577 0 2.942.294 4.096.882 1.177.589 2.083 1.4 2.718 2.437.66 1.035 1.001 2.212 1.024 3.53h-3.107c0-.682-.176-1.353-.529-2.012-.354-.683-.895-1.236-1.625-1.66-.706-.423-1.6-.635-2.683-.635-1.342-.024-2.448.318-3.319 1.024-.848.706-1.271 1.683-1.271 2.93 0 1.06.294 1.872.882 2.437.612.565 1.46 1.035 2.543 1.412 1.083.353 2.33.765 3.742 1.236 1.177.424 2.237.918 3.178 1.483.942.565 1.672 1.295 2.189 2.19.542.894.813 2.035.813 3.424 0 1.177-.307 2.295-.919 3.354-.612 1.036-1.541 1.884-2.789 2.543-1.224.659-2.766.988-4.625.988z" fill="#fff"/></svg>