<svg width="192" height="52" fill="none" xmlns="http://www.w3.org/2000/svg"><path d="M15.176.428L8.904 12.384V20h-1.96v-7.616L.616.428h2.212l5.096 10.164L12.992.428h2.184zm8.44 19.796c-1.437 0-2.734-.317-3.891-.952-1.139-.653-2.044-1.568-2.716-2.744-.654-1.195-.98-2.585-.98-4.172 0-1.587.336-2.968 1.008-4.144.672-1.195 1.586-2.11 2.744-2.744 1.157-.653 2.454-.98 3.892-.98 1.437 0 2.734.327 3.892.98a6.7 6.7 0 012.744 2.744c.672 1.176 1.008 2.557 1.008 4.144 0 1.568-.336 2.95-1.008 4.144a7.068 7.068 0 01-2.772 2.772c-1.176.635-2.483.952-3.92.952zm0-1.708a5.962 5.962 0 002.8-.672c.86-.467 1.55-1.157 2.073-2.072.541-.933.812-2.072.812-3.416 0-1.344-.262-2.473-.784-3.388-.523-.933-1.214-1.624-2.072-2.072a5.77 5.77 0 00-2.8-.7 5.77 5.77 0 00-2.8.7c-.859.448-1.55 1.139-2.072 2.072-.504.915-.756 2.044-.756 3.388 0 1.344.252 2.483.756 3.416.522.915 1.204 1.605 2.044 2.072a5.962 5.962 0 002.8.672zM47.015 4.712V20h-1.96v-2.688a4.698 4.698 0 01-2.073 2.184c-.933.504-1.978.756-3.136.756-1.829 0-3.322-.56-4.48-1.68-1.157-1.139-1.736-2.781-1.736-4.928V4.712h1.933v8.708c0 1.661.41 2.93 1.232 3.808.84.877 1.978 1.316 3.416 1.316 1.474 0 2.65-.467 3.527-1.4.878-.933 1.316-2.305 1.316-4.116V4.712h1.96zm5.314 2.716a4.811 4.811 0 011.96-2.212c.896-.523 1.988-.784 3.276-.784v2.044h-.532c-1.418 0-2.557.383-3.416 1.148-.858.765-1.288 2.044-1.288 3.836V20h-1.96V4.712h1.96v2.716zm12.732 4.928c0-1.587.318-2.968.952-4.144.635-1.195 1.512-2.11 2.632-2.744 1.12-.653 2.4-.98 3.836-.98 1.886 0 3.435.467 4.648 1.4 1.232.933 2.026 2.203 2.38 3.808h-2.1c-.26-1.101-.83-1.96-1.708-2.576-.858-.635-1.932-.952-3.22-.952-1.026 0-1.95.233-2.772.7-.82.467-1.474 1.167-1.96 2.1-.466.915-.7 2.044-.7 3.388 0 1.344.234 2.483.7 3.416.486.933 1.14 1.633 1.96 2.1.822.467 1.746.7 2.772.7 1.288 0 2.362-.308 3.22-.924.878-.635 1.447-1.512 1.708-2.632h2.1c-.354 1.568-1.148 2.828-2.38 3.78s-2.78 1.428-4.648 1.428c-1.437 0-2.716-.317-3.836-.952-1.12-.653-1.997-1.568-2.632-2.744-.634-1.195-.952-2.585-.952-4.172zm23.64 7.868c-1.437 0-2.734-.317-3.892-.952a7.238 7.238 0 01-2.716-2.744c-.653-1.195-.98-2.585-.98-4.172 0-1.587.336-2.968 1.008-4.144.672-1.195 1.587-2.11 2.744-2.744 1.158-.653 2.455-.98 3.892-.98 1.438 0 2.735.327 3.892.98a6.7 6.7 0 012.744 2.744c.672 1.176 1.008 2.557 1.008 4.144 0 1.568-.336 2.95-1.008 4.144a7.068 7.068 0 01-2.772 2.772c-1.176.635-2.482.952-3.92.952zm0-1.708a5.962 5.962 0 002.8-.672c.859-.467 1.55-1.157 2.072-2.072.542-.933.812-2.072.812-3.416 0-1.344-.261-2.473-.784-3.388-.522-.933-1.213-1.624-2.072-2.072a5.77 5.77 0 00-2.8-.7 5.77 5.77 0 00-2.8.7c-.858.448-1.55 1.139-2.072 2.072-.504.915-.756 2.044-.756 3.388 0 1.344.252 2.483.756 3.416.523.915 1.204 1.605 2.044 2.072a5.962 5.962 0 002.8.672zm28.353-14.084c1.792 0 3.248.57 4.368 1.708 1.139 1.12 1.708 2.753 1.708 4.9V20h-1.932v-8.736c0-1.661-.401-2.93-1.204-3.808-.803-.877-1.895-1.316-3.276-1.316-1.437 0-2.585.476-3.444 1.428s-1.288 2.333-1.288 4.144V20h-1.932v-8.736c0-1.661-.401-2.93-1.204-3.808-.803-.877-1.904-1.316-3.304-1.316-1.437 0-2.585.476-3.444 1.428s-1.288 2.333-1.288 4.144V20h-1.96V4.712h1.96v2.632c.485-.952 1.176-1.67 2.072-2.156.896-.504 1.895-.756 2.996-.756 1.325 0 2.483.317 3.472.952 1.008.635 1.736 1.568 2.184 2.8.411-1.213 1.111-2.137 2.1-2.772 1.008-.653 2.147-.98 3.416-.98zm11.241 3.64c.485-1.027 1.251-1.876 2.296-2.548 1.064-.69 2.324-1.036 3.78-1.036 1.381 0 2.623.327 3.724.98 1.12.635 1.988 1.55 2.604 2.744.635 1.176.952 2.548.952 4.116 0 1.568-.317 2.95-.952 4.144-.616 1.195-1.484 2.119-2.604 2.772-1.101.653-2.343.98-3.724.98-1.437 0-2.688-.336-3.752-1.008-1.064-.69-1.839-1.55-2.324-2.576v10.584h-1.932V4.712h1.932v3.36zm11.368 4.256c0-1.27-.252-2.361-.756-3.276-.485-.933-1.157-1.643-2.016-2.128-.859-.485-1.829-.728-2.912-.728a5.688 5.688 0 00-2.884.756c-.859.504-1.54 1.223-2.044 2.156s-.756 2.016-.756 3.248c0 1.232.252 2.315.756 3.248.504.933 1.185 1.652 2.044 2.156a5.688 5.688 0 002.884.756c1.083 0 2.053-.243 2.912-.728.859-.504 1.531-1.223 2.016-2.156.504-.952.756-2.053.756-3.304zm3.579 0c0-1.568.308-2.94.924-4.116.634-1.195 1.502-2.11 2.604-2.744 1.12-.653 2.38-.98 3.78-.98 1.456 0 2.706.336 3.752 1.008 1.064.672 1.829 1.53 2.296 2.576v-3.36h1.96V20h-1.96v-3.388c-.486 1.045-1.26 1.913-2.324 2.604-1.046.672-2.296 1.008-3.752 1.008-1.382 0-2.632-.327-3.752-.98-1.102-.653-1.97-1.577-2.604-2.772-.616-1.195-.924-2.576-.924-4.144zm13.356.028c0-1.232-.252-2.315-.756-3.248-.504-.933-1.195-1.652-2.072-2.156-.859-.504-1.811-.756-2.856-.756-1.083 0-2.054.243-2.912.728-.859.485-1.54 1.195-2.044 2.128-.486.915-.728 2.007-.728 3.276 0 1.25.242 2.352.728 3.304.504.933 1.185 1.652 2.044 2.156.858.485 1.829.728 2.912.728 1.045 0 1.997-.252 2.856-.756.877-.504 1.568-1.223 2.072-2.156s.756-2.016.756-3.248zm12.482-7.924c1.829 0 3.323.57 4.48 1.708 1.157 1.12 1.736 2.753 1.736 4.9V20h-1.932v-8.736c0-1.661-.42-2.93-1.26-3.808-.821-.877-1.951-1.316-3.388-1.316-1.475 0-2.651.467-3.528 1.4-.877.933-1.316 2.305-1.316 4.116V20h-1.96V4.712h1.96v2.604a4.916 4.916 0 012.1-2.128c.915-.504 1.951-.756 3.108-.756zm22.031.28l-9.072 22.484h-2.044l2.968-7.28-6.272-15.204h2.156l5.208 13.048 5.04-13.048h2.016zM9.52 35.432c1.157 0 2.193.243 3.108.728.933.485 1.661 1.232 2.184 2.24.541.99.812 2.203.812 3.64V51h-1.932v-8.736c0-1.661-.42-2.93-1.26-3.808-.821-.877-1.95-1.316-3.388-1.316-1.475 0-2.65.467-3.528 1.4-.877.933-1.316 2.305-1.316 4.116V51H2.24V30.28H4.2v8.036a5.086 5.086 0 012.128-2.128c.952-.504 2.016-.756 3.192-.756zm23.15 7.14c0 .672-.018 1.185-.055 1.54H19.93c.056 1.157.336 2.147.84 2.968a5.046 5.046 0 001.988 1.876c.821.41 1.717.616 2.688.616 1.27 0 2.333-.308 3.192-.924a4.318 4.318 0 001.736-2.492h2.072c-.374 1.493-1.176 2.716-2.408 3.668-1.214.933-2.744 1.4-4.592 1.4-1.438 0-2.726-.317-3.864-.952a7.037 7.037 0 01-2.688-2.744c-.635-1.195-.952-2.585-.952-4.172 0-1.587.317-2.977.952-4.172.634-1.195 1.521-2.11 2.66-2.744 1.138-.635 2.436-.952 3.892-.952s2.725.317 3.808.952c1.101.635 1.941 1.493 2.52 2.576.597 1.064.896 2.25.896 3.556zm-1.987-.056c.018-1.139-.215-2.11-.7-2.912a4.542 4.542 0 00-1.932-1.82 5.925 5.925 0 00-2.688-.616c-1.456 0-2.698.467-3.724 1.4-1.027.933-1.596 2.25-1.708 3.948h10.752zm6.414-4.088a4.813 4.813 0 011.96-2.212c.896-.523 1.988-.784 3.276-.784v2.044H41.8c-1.419 0-2.558.383-3.416 1.148-.859.765-1.288 2.044-1.288 3.836V51h-1.96V35.712h1.96v2.716zm20.896 4.144c0 .672-.018 1.185-.056 1.54H45.253c.056 1.157.336 2.147.84 2.968a5.046 5.046 0 001.988 1.876c.822.41 1.718.616 2.688.616 1.27 0 2.334-.308 3.192-.924a4.317 4.317 0 001.736-2.492h2.072c-.373 1.493-1.176 2.716-2.408 3.668-1.213.933-2.744 1.4-4.592 1.4-1.437 0-2.725-.317-3.864-.952a7.037 7.037 0 01-2.688-2.744c-.634-1.195-.952-2.585-.952-4.172 0-1.587.318-2.977.952-4.172.635-1.195 1.522-2.11 2.66-2.744 1.139-.635 2.436-.952 3.892-.952s2.726.317 3.808.952c1.102.635 1.942 1.493 2.52 2.576.598 1.064.896 2.25.896 3.556zm-1.988-.056c.019-1.139-.214-2.11-.7-2.912a4.542 4.542 0 00-1.932-1.82 5.925 5.925 0 00-2.688-.616c-1.456 0-2.697.467-3.724 1.4-1.026.933-1.596 2.25-1.708 3.948h10.752z" fill="#fff"/></svg>