<svg width="728" height="197" fill="none" xmlns="http://www.w3.org/2000/svg"><path d="M579.8 154.231H595c3.6 0 6.716.6 9.35 1.8 2.633 1.167 5.65 2.867 7.05 5.1 1.433 2.2 2.15 4.8 2.15 7.8 0 4.067-.934 7.634-2.8 10.7-1.834 3.067-4.4 5.434-7.7 7.1-3.3 1.667-7.084 2.5-11.35 2.5h-17.9l6-35zm12.2 27.1c2.4 0 4.466-.5 6.2-1.5 1.766-1.033 3.1-2.433 4-4.2.9-1.8 1.35-3.833 1.35-6.1 0-2.366-.734-4.183-2.2-5.45-1.467-1.3-3.617-1.95-6.45-1.95h-5.8l-3.8 19.2h6.7zm42.008 8.6c-3.533 0-6.616-.65-9.25-1.95-2.6-1.3-4.616-3.116-6.05-5.45-1.4-2.333-2.1-5-2.1-8 0-4 .917-7.6 2.75-10.8 1.867-3.2 2.642-4.731 6.75-7.5 3.334-1.8 7.117-2.7 11.35-2.7 3.534 0 6.6.65 9.2 1.95 2.634 1.3 5.292 2.519 7.05 5.45 1.759 2.932 2.15 5 2.15 8 0 4-.933 7.6-2.8 10.8-1.833 3.2-4.416 5.7-7.75 7.5-3.3 1.8-7.066 2.7-11.3 2.7zm.85-8.2c2.2 0 4.134-.55 5.8-1.65 1.667-1.1 2.95-2.566 3.85-4.4.9-1.866 1.35-3.916 1.35-6.15 0-2.366-.733-4.25-2.2-5.65-1.433-1.433-3.45-2.15-6.05-2.15-2.2 0-4.133.55-5.8 1.65-1.666 1.1-2.95 2.584-3.85 4.45-.9 1.834-1.35 3.867-1.35 6.1 0 2.367.717 4.267 2.15 5.7 1.467 1.4 3.5 2.1 6.1 2.1zm43.336-27.5c4.533 0 8.033.984 10.5 2.95 2.466 1.967 4.7 4.734 4.7 8.3 0 2.934-.717 5.5-2.15 7.7-1.4 2.2-3.417 3.9-6.05 5.1-2.6 1.2-5.634 1.8-9.1 1.8h-7l-1.8 9.15h-9.9l6-35h14.8zm-1.65 18.05c2.2 0 3.883-.516 5.05-1.55 1.2-1.033 1.8-2.5 1.8-4.4 0-1.433-.484-2.5-1.45-3.2-.934-.733-2.284-1.1-4.05-1.1h-5.2l-2.05 10.25h5.9zm32.427-10.4l-1.15 5.9h15.55l-1.45 7.4h-15.6l-1.25 6.4h18.35l-1.6 7.65h-28.05l6-35h27.4l-.55 7.65h-17.65zm-126.105-28.135c-2.789-.794-5.338-1.883-7.647-3.268-2.309-1.385-4.099-2.83-5.369-4.335l5.777-6.05a22.243 22.243 0 004.722 4.047 21.973 21.973 0 005.538 2.46c1.828.52 3.312.665 4.451.434 1.181-.253 1.904-.844 2.169-1.774.228-.801-.059-1.559-.861-2.272-.77-.704-2.044-1.587-3.822-2.647-2.016-1.198-3.663-2.29-4.941-3.278a10.531 10.531 0 01-2.971-3.808c-.68-1.511-.736-3.26-.171-5.247.684-2.405 1.939-4.318 3.765-5.739 1.834-1.454 4.111-2.33 6.83-2.631 2.72-.3 5.715.014 8.985.945 2.404.684 4.576 1.579 6.514 2.685 1.947 1.074 3.541 2.29 4.784 3.649l-5.474 6.084c-1.078-1.208-2.359-2.248-3.843-3.121a18.258 18.258 0 00-4.666-2.055c-1.891-.539-3.469-.658-4.732-.359-1.231.308-1.984.943-2.258 1.905-.237.833.046 1.607.848 2.32.802.714 2.108 1.605 3.917 2.674 2.025 1.166 3.661 2.238 4.908 3.216a9.885 9.885 0 012.95 3.699c.688 1.478.759 3.179.211 5.103-.675 2.372-1.946 4.281-3.812 5.725-1.825 1.421-4.114 2.278-6.865 2.569-2.72.301-5.699-.01-8.937-.931zm36.764 10.461c-3.398-.967-6.186-2.436-8.363-4.407-2.145-1.962-3.588-4.261-4.328-6.898-.708-2.627-.651-5.384.17-8.269 1.095-3.848 2.962-7.059 5.601-9.635 2.671-2.567 5.84-4.265 9.507-5.093 3.698-.819 7.584-.649 11.655.51 3.399.967 6.17 2.431 8.315 4.393 2.177 1.971 3.62 4.27 4.328 6.898.74 2.636.699 5.397-.122 8.283-1.095 3.847-2.978 7.054-5.649 9.621-2.639 2.576-5.808 4.274-9.507 5.093-3.666.828-7.535.663-11.607-.496zm3.062-7.654c2.116.602 4.126.602 6.03 0s3.54-1.661 4.907-3.178c1.377-1.549 2.371-3.398 2.982-5.546.647-2.276.458-4.288-.57-6.036-.986-1.771-2.73-3.012-5.23-3.724-2.116-.602-4.127-.602-6.031 0-1.904.601-3.544 1.677-4.921 3.226-1.367 1.517-2.356 3.349-2.967 5.498-.648 2.276-.479 4.299.507 6.07 1.028 1.748 2.792 2.978 5.293 3.69zm-77.22 12.748c.019.004.021.005.04.011.604.182 1.224.296 1.501-.263l42.921-118.695c.126-.587.081-.807-.222-.96a.498.498 0 00-.135-.043l-28.036-5.355c-.699-.098-1.208-.225-1.462.506l-39.785 119.006c-.079.239.01.432.255.49 3.134.737 24.351 5.183 24.923 5.303zM443.217 24.665a.664.664 0 00-.654.55l-28.597 164.433a.665.665 0 00.655.778h26.877a.664.664 0 00.655-.558l14.655-90.6c.125-.777 1.256-.73 1.318.053l7.163 90.493a.665.665 0 00.662.612h37.361a.664.664 0 00.655-.553L531.98 25.448a.665.665 0 00-.661-.776l-26.397.243a.665.665 0 00-.649.554l-14.848 87.969c-.13.772-1.255.722-1.317-.058l-7.057-88.104a.663.663 0 00-.662-.611h-37.172zm-101.347 0a.665.665 0 00-.656.555l-27.406 164.432a.665.665 0 00.656.774h26.888c.323 0 .6-.233.654-.552l15.633-90.838c.133-.77 1.256-.72 1.318.06l7.181 90.718a.664.664 0 00.662.612h37.36a.664.664 0 00.655-.553l28.013-164.425a.664.664 0 00-.661-.776l-26.595.243a.665.665 0 00-.65.555l-14.652 87.921c-.128.773-1.255.725-1.317-.056L381.9 25.276a.665.665 0 00-.662-.611H341.87zm-130.887-.002a.664.664 0 00-.631.45l-56.12 164.16a.665.665 0 00.631.88l26.96-.11a.665.665 0 00.622-.438l37.061-101.934c.259-.713 1.319-.504 1.288.254l-4.158 101.809a.665.665 0 00.664.692h30.327a.664.664 0 00.608-.396l42.57-96.498c.315-.712 1.386-.397 1.265.371l-15.088 95.478a.665.665 0 00.651.768l27.213.209a.663.663 0 00.659-.55l28.678-164.365a.664.664 0 00-.657-.779l-41.776.127a.664.664 0 00-.605.395l-43.153 97.433c-.299.675-1.309.433-1.271-.303l5.062-96.827a.664.664 0 00-.661-.7l-40.139-.126z" fill="#fff"/><path fill-rule="evenodd" clip-rule="evenodd" d="M117.153 165.753a.665.665 0 01-.677-.64L110.338.698a.664.664 0 01.668-.69L139.621.2a.663.663 0 01.659.643l1.172 35.835a.664.664 0 00.656.642l26.633.305a.665.665 0 00.634-.44L182.515.443a.664.664 0 01.628-.44l28.079.124a.664.664 0 01.623.887L153.67 164.616a.667.667 0 01-.613.442l-35.904.695zm40.203-97.36c.456 0 .776.449.628.88l-12.938 37.728c-.239.697-1.266.545-1.293-.191l-1.374-37.728a.665.665 0 01.664-.689h14.313zM28.67 25.108a.664.664 0 00-.66.552L.132 189.651a.664.664 0 00.658.776l84.379-.377c11.593-.298 19.805-6.428 21.61-15.136 1.804-8.708-2.833-125.318-2.834-125.334-.853-20.343-16.013-23.846-21.458-24.131l-53.818-.341zm6.574 134.665a.664.664 0 01-.67-.768l16.438-103.54a.664.664 0 01.657-.56l10.47.02c5.514-.012 12.737-.027 13.497 5.054l1.16 57.977c.203 20.981.237 38.017.11 39.288-.038.382-.129 1.653-1.525 1.653l-40.137.876z" fill="#fff"/><ellipse cx="536.806" cy="173.269" rx="15.626" ry="17.415" transform="rotate(32.925 536.806 173.269)" fill="#fff"/></svg>