<svg width="168" height="66" viewBox="0 0 168 66" fill="none" xmlns="http://www.w3.org/2000/svg">
<path d="M93.0911 23.3674L79.2406 41.0869H89.4427L103.255 23.3674H93.0911Z" fill="white"/>
<path d="M90.4659 1.51878e-05H80.3796L93.6703 17.0123H103.602L90.4659 1.51878e-05Z" fill="white"/>
<path d="M104.934 9.80433L110.098 16.4988L122.346 1.51878e-05H111.951L104.934 9.80433Z" fill="white"/>
<path d="M104.847 30.6045L112.405 41.087H122.559L110.262 23.6873L104.847 30.6045Z" fill="white"/>
<path d="M93.0911 23.3674L79.2406 41.0869H89.4427L103.255 23.3674H93.0911Z" fill="white"/>
<path d="M90.4659 1.51878e-05H80.3796L93.6703 17.0123H103.602L90.4659 1.51878e-05Z" fill="white"/>
<path d="M104.934 9.80433L110.098 16.4988L122.346 1.51878e-05H111.951L104.934 9.80433Z" fill="white"/>
<path d="M104.847 30.6045L112.405 41.087H122.559L110.262 23.6873L104.847 30.6045Z" fill="white"/>
<path d="M29.2531 0V30.7596H29.1373L10.1133 0H0.45166V41.0968H7.73889V9.34898H7.85471L27.2841 41.0968H36.5403V0H29.2531Z" fill="white"/>
<path d="M46.9934 7.59389e-06H74.1154V6.38444H54.2807V16.8282H73.073V22.9801H54.2807V34.5961H75.1579V41.0968H46.9934V7.59389e-06Z" fill="white"/>
<path d="M139.604 6.38444H127.057V7.59389e-06H159.439V6.38444H146.891V41.0968H139.604V6.38444Z" fill="white"/>
<path d="M168 32.5034H159.439V41.087H168V32.5034Z" fill="white"/>
<path d="M8.84066 51.8348H0V65.133H9.02522V64.0617H1.25504V58.7794H8.1024V57.7082H1.25504V52.906H8.84066V51.8348Z" fill="white"/>
<path d="M28.0985 55.695H29.3904C29.2797 55.0116 29.0767 54.4021 28.7998 53.8665C28.5045 53.3493 28.1354 52.906 27.6924 52.5551C27.231 52.2042 26.7143 51.9272 26.1421 51.7425C25.5515 51.5762 24.924 51.4839 24.2411 51.4839C23.3552 51.4839 22.5431 51.6132 21.7864 51.8533C21.0297 52.1119 20.3837 52.5182 19.83 53.0723C19.2763 53.6448 18.8518 54.3652 18.538 55.2517C18.2243 56.1382 18.0582 57.2095 18.0582 58.4839C18.0582 59.4258 18.1689 60.3309 18.3719 61.162C18.5749 62.0116 18.9256 62.7504 19.387 63.3968C19.8484 64.0433 20.439 64.5419 21.1589 64.9113C21.8787 65.2992 22.7646 65.4839 23.7797 65.4839C24.6656 65.4839 25.4408 65.3546 26.1052 65.096C26.7512 64.8559 27.3233 64.505 27.7847 64.0802C28.2461 63.6554 28.6153 63.1382 28.8921 62.5657C29.169 61.9931 29.3904 61.4021 29.5381 60.7557H28.2277C28.0985 61.2913 27.9324 61.7715 27.6924 62.2148C27.4525 62.658 27.1572 63.0459 26.8065 63.3599C26.4559 63.6923 26.0314 63.9509 25.57 64.1356C25.1085 64.3203 24.5918 64.4126 24.0196 64.4126C23.1152 64.4126 22.3585 64.2464 21.7495 63.8955C21.1404 63.5446 20.6605 63.1013 20.3099 62.5287C19.9592 61.9747 19.7008 61.3467 19.5531 60.6264C19.387 59.9061 19.3132 59.1857 19.3132 58.4469C19.3132 57.6528 19.4055 56.914 19.59 56.1936C19.7562 55.4918 20.033 54.8638 20.4206 54.3282C20.7897 53.7926 21.2696 53.3493 21.8417 53.0353C22.4139 52.7214 23.1152 52.5551 23.9089 52.5551C25.0347 52.5551 25.9575 52.7952 26.6589 53.2754C27.3602 53.7557 27.8401 54.5683 28.0985 55.695Z" fill="white"/>
<path d="M38.2818 58.5024C38.2818 59.4628 38.411 60.3678 38.6693 61.1989C38.9277 62.0485 39.3153 62.7873 39.8321 63.4153C40.3489 64.0617 40.9949 64.5604 41.77 64.9298C42.5452 65.2992 43.4496 65.4839 44.4647 65.4839C45.4798 65.4839 46.3842 65.2992 47.1593 64.9298C47.9345 64.5604 48.5805 64.0617 49.0973 63.4153C49.614 62.7873 50.0016 62.0485 50.2785 61.1989C50.5369 60.3678 50.6661 59.4628 50.6661 58.5024C50.6661 57.5235 50.5369 56.6185 50.2785 55.7504C50.0016 54.9008 49.614 54.162 49.0973 53.5155C48.562 52.8876 47.916 52.3889 47.1409 52.0195C46.3472 51.6686 45.4429 51.4839 44.4093 51.4839C43.4127 51.4839 42.5268 51.6686 41.77 52.038C41.0133 52.4074 40.3673 52.906 39.8506 53.534C39.3338 54.1805 38.9462 54.9192 38.6878 55.7688C38.411 56.6185 38.2818 57.5235 38.2818 58.5024ZM44.4831 64.4126C43.6157 64.4126 42.859 64.2464 42.2499 63.9324C41.6224 63.6185 41.1056 63.1752 40.718 62.6396C40.312 62.1039 40.0167 61.476 39.8321 60.7557C39.6291 60.0353 39.5368 59.2966 39.5368 58.5024C39.5368 57.7266 39.6291 56.9878 39.8321 56.2675C40.0167 55.5472 40.312 54.9192 40.718 54.3652C41.1056 53.8295 41.6224 53.3863 42.2499 53.0538C42.859 52.7214 43.5972 52.5551 44.4462 52.5551C45.2029 52.5551 45.9043 52.6844 46.5134 52.9615C47.1224 53.2385 47.6577 53.6264 48.0822 54.1435C48.5067 54.6607 48.8389 55.2886 49.0788 56.009C49.3003 56.7477 49.411 57.5789 49.411 58.5024C49.411 59.2781 49.3187 60.0169 49.1342 60.7372C48.9312 61.4575 48.6359 62.0855 48.2483 62.6211C47.8422 63.1567 47.3254 63.6 46.7164 63.914C46.0889 64.2464 45.3506 64.4126 44.4831 64.4126Z" fill="white"/>
<path d="M61.2768 61.162H60.0587C60.0587 61.8823 60.1879 62.5103 60.4278 63.0459C60.6677 63.5815 61 64.0433 61.4244 64.3942C61.8489 64.7636 62.3657 65.0406 62.9563 65.2253C63.5469 65.3915 64.1929 65.4839 64.8758 65.4839C66.4077 65.4839 67.6074 65.1514 68.4564 64.4681C69.3054 63.7847 69.7299 62.8427 69.7299 61.6053C69.7299 60.9588 69.6191 60.4232 69.4161 59.9984C69.1946 59.5736 68.8993 59.2411 68.5487 58.9641C68.198 58.6871 67.7919 58.4839 67.3305 58.3177C66.8691 58.1514 66.3892 58.0221 65.8909 57.8929L64.4513 57.5604C63.9714 57.4681 63.5285 57.3203 63.1409 57.1541C62.7533 56.9878 62.4211 56.7847 62.1443 56.5261C61.8674 56.2675 61.7013 55.9166 61.6275 55.4918C61.5721 55.1409 61.5906 54.8084 61.6828 54.4575C61.7751 54.1066 61.9597 53.7926 62.2181 53.5155C62.4765 53.2385 62.8271 52.9984 63.2701 52.8137C63.6946 52.6475 64.2298 52.5551 64.8758 52.5551C65.3003 52.5551 65.7064 52.6105 66.0939 52.7214C66.4815 52.8322 66.8322 52.9984 67.146 53.2385C67.4597 53.4786 67.6997 53.7741 67.8842 54.1435C68.0503 54.5129 68.1426 54.9562 68.1426 55.4549H69.3423C69.3423 54.9192 69.25 54.4021 69.0654 53.9219C68.8809 53.4417 68.604 53.0169 68.2349 52.6475C67.8658 52.2966 67.4044 52.001 66.8507 51.7979C66.2785 51.5947 65.6325 51.4839 64.8758 51.4839C64.1376 51.4839 63.4916 51.5762 62.9194 51.7794C62.3473 51.9826 61.8859 52.2411 61.5167 52.5736C61.1292 52.906 60.8523 53.2939 60.6677 53.7187C60.4647 54.1435 60.3724 54.5868 60.3724 55.0485C60.3724 55.695 60.4832 56.2306 60.7231 56.6554C60.963 57.0802 61.2583 57.4311 61.6459 57.7082C62.0151 57.9852 62.4396 58.1884 62.9379 58.3546C63.4178 58.5208 63.9161 58.6501 64.4329 58.7609C64.9312 58.8902 65.4295 59.001 65.9278 59.1303C66.4077 59.2596 66.8322 59.4074 67.2198 59.6105C67.5889 59.8137 67.8842 60.0907 68.1242 60.4047C68.3641 60.7187 68.4748 61.1435 68.4748 61.6607C68.4748 62.0301 68.4195 62.381 68.2903 62.7134C68.1611 63.0459 67.9581 63.3414 67.6812 63.5815C67.4044 63.8401 67.0537 64.0433 66.6292 64.191C66.2047 64.3388 65.6879 64.4126 65.0973 64.4126C64.599 64.4126 64.1191 64.3572 63.6761 64.228C63.2332 64.1171 62.8456 63.9324 62.5134 63.6739C62.1627 63.4153 61.8859 63.0828 61.6828 62.658C61.4614 62.2517 61.3322 61.753 61.2768 61.162Z" fill="white"/>
<path d="M88.9692 51.8348H87.5112L83.5061 58.2438L79.5934 51.8348H78.1537L82.8971 59.4258V65.133H84.1521V59.3335L88.9692 51.8348Z" fill="white"/>
<path d="M99.3434 61.162H98.1253C98.1253 61.8823 98.2545 62.5103 98.4944 63.0459C98.7343 63.5815 99.0665 64.0433 99.491 64.3942C99.9155 64.7636 100.432 65.0406 101.023 65.2253C101.614 65.3915 102.26 65.4839 102.942 65.4839C104.474 65.4839 105.674 65.1514 106.523 64.4681C107.372 63.7847 107.796 62.8427 107.796 61.6053C107.796 60.9588 107.686 60.4232 107.483 59.9984C107.261 59.5736 106.966 59.2411 106.615 58.9641C106.265 58.6871 105.859 58.4839 105.397 58.3177C104.936 58.1514 104.456 58.0221 103.958 57.8929L102.518 57.5604C102.038 57.4681 101.595 57.3203 101.207 57.1541C100.82 56.9878 100.488 56.7847 100.211 56.5261C99.934 56.2675 99.7679 55.9166 99.6941 55.4918C99.6387 55.1409 99.6572 54.8084 99.7494 54.4575C99.8417 54.1066 100.026 53.7926 100.285 53.5155C100.543 53.2385 100.894 52.9984 101.337 52.8137C101.761 52.6475 102.296 52.5551 102.942 52.5551C103.367 52.5551 103.773 52.6105 104.161 52.7214C104.548 52.8322 104.899 52.9984 105.213 53.2385C105.526 53.4786 105.766 53.7741 105.951 54.1435C106.117 54.5129 106.209 54.9562 106.209 55.4549H107.409C107.409 54.9192 107.317 54.4021 107.132 53.9219C106.947 53.4417 106.671 53.0169 106.301 52.6475C105.932 52.2966 105.471 52.001 104.917 51.7979C104.345 51.5947 103.699 51.4839 102.942 51.4839C102.204 51.4839 101.558 51.5762 100.986 51.7794C100.414 51.9826 99.9525 52.2411 99.5833 52.5736C99.1957 52.906 98.9189 53.2939 98.7343 53.7187C98.5313 54.1435 98.439 54.5868 98.439 55.0485C98.439 55.695 98.5498 56.2306 98.7897 56.6554C99.0296 57.0802 99.3249 57.4311 99.7125 57.7082C100.082 57.9852 100.506 58.1884 101.004 58.3546C101.484 58.5208 101.983 58.6501 102.499 58.7609C102.998 58.8902 103.496 59.001 103.994 59.1303C104.474 59.2596 104.899 59.4074 105.286 59.6105C105.656 59.8137 105.951 60.0907 106.191 60.4047C106.431 60.7187 106.541 61.1435 106.541 61.6607C106.541 62.0301 106.486 62.381 106.357 62.7134C106.228 63.0459 106.025 63.3414 105.748 63.5815C105.471 63.8401 105.12 64.0433 104.696 64.191C104.271 64.3388 103.754 64.4126 103.164 64.4126C102.666 64.4126 102.186 64.3572 101.743 64.228C101.3 64.1171 100.912 63.9324 100.58 63.6739C100.229 63.4153 99.9525 63.0828 99.7494 62.658C99.528 62.2517 99.3988 61.753 99.3434 61.162Z" fill="white"/>
<path d="M126.331 52.906V51.8348H116.66V52.906H120.868V65.133H122.123V52.906H126.331Z" fill="white"/>
<path d="M145.368 51.8348H136.527V65.133H145.552V64.0617H137.782V58.7794H144.629V57.7082H137.782V52.906H145.368V51.8348Z" fill="white"/>
<path d="M157.424 51.8348H155.505V65.133H156.76V53.2754H156.797L161.171 65.133H162.352L166.708 53.2754H166.745V65.133H168V51.8348H166.099L161.817 63.563H161.78L157.424 51.8348Z" fill="white"/>
</svg>
