<svg width="194" height="27" viewBox="0 0 194 27" fill="none" xmlns="http://www.w3.org/2000/svg">
<path d="M12.4527 26.4237C10.0281 26.4237 7.93315 25.8941 6.1677 24.8348C4.4258 23.752 3.07229 22.2573 2.10718 20.3506C1.14207 18.4204 0.659518 16.1841 0.659518 13.6419C0.659518 11.1232 1.14207 8.9105 2.10718 7.00382C3.07229 5.0736 4.4258 3.56709 6.1677 2.48428C7.93315 1.40148 10.0281 0.860074 12.4527 0.860074C15.2774 0.860074 17.5725 1.54271 19.3379 2.90799C21.1269 4.24973 22.2686 6.13287 22.7629 8.55741H19.4792C19.1025 7.02736 18.3257 5.80332 17.1488 4.88529C15.9953 3.94372 14.43 3.47293 12.4527 3.47293C10.6872 3.47293 9.14542 3.88487 7.82722 4.70874C6.50902 5.50908 5.48507 6.67427 4.75535 8.20432C4.04917 9.71083 3.69608 11.5234 3.69608 13.6419C3.69608 15.7604 4.04917 17.5847 4.75535 19.1148C5.48507 20.6213 6.50902 21.7865 7.82722 22.6103C9.14542 23.4107 10.6872 23.8108 12.4527 23.8108C14.43 23.8108 15.9953 23.3636 17.1488 22.4691C18.3257 21.5511 19.1025 20.3388 19.4792 18.8323H22.7629C22.2686 21.2098 21.1269 23.0694 19.3379 24.4111C17.5725 25.7528 15.2774 26.4237 12.4527 26.4237ZM25.6132 26V1.28378H33.5931C35.5233 1.28378 37.1004 1.60156 38.3244 2.23712C39.5485 2.87268 40.4547 3.74363 41.0432 4.84998C41.6317 5.95632 41.9259 7.18036 41.9259 8.5221C41.9259 10.0757 41.5022 11.4763 40.6548 12.7239C39.831 13.9714 38.5363 14.8542 36.7709 15.372L42.1731 26H38.6775L33.6637 15.7957H33.4518H28.5792V26H25.6132ZM28.5792 13.4653H33.3812C35.2879 13.4653 36.6767 13.0063 37.5476 12.0883C38.4186 11.1703 38.8541 9.99331 38.8541 8.55741C38.8541 7.09798 38.4186 5.94455 37.5476 5.09714C36.7002 4.22619 35.2996 3.79071 33.3459 3.79071H28.5792V13.4653ZM43.5775 26L52.6872 1.28378H55.8296L64.904 26H61.7615L59.5018 19.6444H48.9797L46.6846 26H43.5775ZM49.8624 17.2434H58.6191L54.2407 5.02652L49.8624 17.2434ZM66.1067 26V23.6696L78.2883 3.86133H66.2833V1.28378H81.7486V3.61417L69.5317 23.4225H81.8898V26H66.1067ZM90.7932 26V16.6078L82.7427 1.28378H86.0971L92.2761 13.7831L98.4552 1.28378H101.774L93.7591 16.6078V26H90.7932ZM103.684 26V1.28378H106.65V23.6343H118.161V26H103.684ZM120.823 26V1.28378H123.789V26H120.823ZM138.846 26.4237C136.421 26.4237 134.291 25.8941 132.455 24.8348C130.642 23.752 129.218 22.2455 128.182 20.3153C127.17 18.3851 126.664 16.1606 126.664 13.6419C126.664 11.1232 127.17 8.9105 128.182 7.00382C129.218 5.0736 130.642 3.56709 132.455 2.48428C134.291 1.40148 136.421 0.860074 138.846 0.860074C141.294 0.860074 143.424 1.40148 145.236 2.48428C147.072 3.56709 148.497 5.0736 149.509 7.00382C150.521 8.9105 151.027 11.1232 151.027 13.6419C151.027 16.1606 150.521 18.3851 149.509 20.3153C148.497 22.2455 147.072 23.752 145.236 24.8348C143.424 25.8941 141.294 26.4237 138.846 26.4237ZM138.846 23.8108C140.658 23.8108 142.247 23.4107 143.612 22.6103C145.001 21.7865 146.072 20.6213 146.825 19.1148C147.602 17.5847 147.991 15.7604 147.991 13.6419C147.991 11.5234 147.602 9.71083 146.825 8.20432C146.072 6.69781 145.001 5.54439 143.612 4.74405C142.247 3.92018 140.658 3.50824 138.846 3.50824C137.033 3.50824 135.432 3.92018 134.044 4.74405C132.678 5.54439 131.607 6.69781 130.83 8.20432C130.077 9.71083 129.701 11.5234 129.701 13.6419C129.701 15.7604 130.077 17.5847 130.83 19.1148C131.607 20.6213 132.678 21.7865 134.044 22.6103C135.432 23.4107 137.033 23.8108 138.846 23.8108ZM153.893 26V1.28378H156.859L170.03 21.0921V1.28378H172.996V26H170.03L156.859 6.19171V26H153.893ZM184.699 26.4237C182.886 26.4237 181.309 26.0942 179.967 25.4351C178.626 24.776 177.59 23.8579 176.86 22.681C176.131 21.504 175.766 20.1387 175.766 18.5851H178.873C178.873 19.5502 179.096 20.4447 179.544 21.2686C179.991 22.0689 180.638 22.7163 181.486 23.2106C182.357 23.6814 183.428 23.9168 184.699 23.9168C186.37 23.9168 187.665 23.5166 188.583 22.7163C189.501 21.9159 189.96 20.9155 189.96 19.715C189.96 18.7264 189.748 17.9378 189.324 17.3493C188.901 16.7373 188.324 16.243 187.594 15.8664C186.888 15.4897 186.064 15.1602 185.123 14.8777C184.204 14.5952 183.239 14.2775 182.227 13.9244C180.321 13.2653 178.908 12.4532 177.99 11.488C177.072 10.4994 176.613 9.21651 176.613 7.63938C176.59 6.32118 176.896 5.15599 177.531 4.1438C178.167 3.10807 179.061 2.30774 180.215 1.7428C181.392 1.15431 182.78 0.860074 184.381 0.860074C185.958 0.860074 187.323 1.15431 188.477 1.7428C189.654 2.33128 190.56 3.14338 191.196 4.17911C191.855 5.21484 192.196 6.3918 192.22 7.71H189.112C189.112 7.02736 188.936 6.35649 188.583 5.69739C188.23 5.01475 187.688 4.46158 186.959 4.03787C186.252 3.61417 185.358 3.40231 184.275 3.40231C182.933 3.37877 181.827 3.72009 180.956 4.42627C180.109 5.13245 179.685 6.10933 179.685 7.35691C179.685 8.41618 179.979 9.22828 180.568 9.79322C181.18 10.3582 182.027 10.8289 183.11 11.2056C184.193 11.5587 185.44 11.9706 186.853 12.4414C188.03 12.8651 189.089 13.3594 190.03 13.9244C190.972 14.4893 191.702 15.219 192.22 16.1135C192.761 17.008 193.032 18.1497 193.032 19.5385C193.032 20.7154 192.726 21.8336 192.114 22.8928C191.502 23.9285 190.572 24.776 189.324 25.4351C188.1 26.0942 186.558 26.4237 184.699 26.4237Z" fill="white"/>
</svg>
