<svg width="147" height="26" viewBox="0 0 147 26" fill="none" xmlns="http://www.w3.org/2000/svg">
<path d="M0.612857 25.2375V0.521329H3.5788V25.2375H0.612857ZM15.2809 25.6613C13.4684 25.6613 11.8913 25.3317 10.5495 24.6726C9.20781 24.0135 8.17209 23.0955 7.44237 21.9185C6.71265 20.7416 6.34779 19.3763 6.34779 17.8227H9.45497C9.45497 18.7878 9.6786 19.6823 10.1258 20.5062C10.5731 21.3065 11.2204 21.9538 12.0678 22.4481C12.9388 22.9189 14.0098 23.1543 15.2809 23.1543C16.9522 23.1543 18.2469 22.7542 19.1649 21.9538C20.0829 21.1535 20.542 20.1531 20.542 18.9526C20.542 17.9639 20.3301 17.1754 19.9064 16.5869C19.4827 15.9749 18.906 15.4805 18.1763 15.1039C17.4701 14.7273 16.6462 14.3977 15.7046 14.1152C14.7866 13.8328 13.8215 13.515 12.8093 13.1619C10.9026 12.5028 9.49028 11.6907 8.57225 10.7256C7.65422 9.73695 7.19521 8.45406 7.19521 6.87693C7.17167 5.55873 7.47768 4.39354 8.11324 3.38135C8.7488 2.34562 9.64329 1.54529 10.7967 0.980344C11.9737 0.391864 13.3625 0.0976232 14.9632 0.0976232C16.5403 0.0976232 17.9056 0.391864 19.059 0.980344C20.236 1.56883 21.1422 2.38093 21.7778 3.41666C22.4369 4.45239 22.7782 5.62935 22.8017 6.94755H19.6946C19.6946 6.26491 19.518 5.59404 19.1649 4.93494C18.8118 4.2523 18.2704 3.69913 17.5407 3.27542C16.8345 2.85172 15.94 2.63986 14.8572 2.63986C13.5155 2.61632 12.4092 2.95764 11.5382 3.66382C10.6908 4.37 10.2671 5.34688 10.2671 6.59446C10.2671 7.65372 10.5613 8.46583 11.1498 9.03077C11.7618 9.59571 12.6092 10.0665 13.692 10.4431C14.7748 10.7962 16.0224 11.2082 17.4348 11.6789C18.6117 12.1026 19.671 12.597 20.6126 13.1619C21.5542 13.7269 22.2839 14.4566 22.8017 15.3511C23.3431 16.2456 23.6138 17.3872 23.6138 18.776C23.6138 19.953 23.3078 21.0711 22.6958 22.1304C22.0838 23.1661 21.154 24.0135 19.9064 24.6726C18.6824 25.3317 17.1405 25.6613 15.2809 25.6613ZM37.6359 25.6613C35.2113 25.6613 33.081 25.1316 31.245 24.0724C29.4324 22.9895 28.0083 21.483 26.9726 19.5528C25.9604 17.6226 25.4543 15.3981 25.4543 12.8794C25.4543 10.3607 25.9604 8.14805 26.9726 6.24137C28.0083 4.31115 29.4324 2.80464 31.245 1.72183C33.081 0.639026 35.2113 0.0976232 37.6359 0.0976232C40.084 0.0976232 42.2143 0.639026 44.0268 1.72183C45.8628 2.80464 47.287 4.31115 48.2992 6.24137C49.3114 8.14805 49.8174 10.3607 49.8174 12.8794C49.8174 15.3981 49.3114 17.6226 48.2992 19.5528C47.287 21.483 45.8628 22.9895 44.0268 24.0724C42.2143 25.1316 40.084 25.6613 37.6359 25.6613ZM37.6359 23.0484C39.4484 23.0484 41.0373 22.6482 42.4026 21.8479C43.7914 21.024 44.8624 19.8588 45.6157 18.3523C46.3925 16.8223 46.7809 14.998 46.7809 12.8794C46.7809 10.7609 46.3925 8.94838 45.6157 7.44187C44.8624 5.93536 43.7914 4.78193 42.4026 3.9816C41.0373 3.15773 39.4484 2.74579 37.6359 2.74579C35.8234 2.74579 34.2227 3.15773 32.8339 3.9816C31.4686 4.78193 30.3976 5.93536 29.6208 7.44187C28.8675 8.94838 28.4909 10.7609 28.4909 12.8794C28.4909 14.998 28.8675 16.8223 29.6208 18.3523C30.3976 19.8588 31.4686 21.024 32.8339 21.8479C34.2227 22.6482 35.8234 23.0484 37.6359 23.0484ZM59.1685 25.2375L49.8823 0.521329H53.0954L60.8986 22.0951L68.7725 0.521329H71.915L62.6288 25.2375H59.1685ZM73.8912 25.2375V0.521329H89.18V2.95764H76.8572V11.573H88.1207V13.974H76.8572V22.8012H89.18V25.2375H73.8912ZM92.4091 25.2375V0.521329H100.389C102.319 0.521329 103.896 0.839109 105.12 1.47467C106.344 2.11023 107.251 2.98118 107.839 4.08753C108.428 5.19387 108.722 6.41791 108.722 7.75965C108.722 9.31324 108.298 10.7138 107.451 11.9614C106.627 13.209 105.332 14.0917 103.567 14.6096L108.969 25.2375H105.473L100.459 15.0333H100.248H95.375V25.2375H92.4091ZM95.375 12.7029H100.177C102.084 12.7029 103.473 12.2439 104.343 11.3258C105.214 10.4078 105.65 9.23085 105.65 7.79496C105.65 6.33552 105.214 5.1821 104.343 4.33469C103.496 3.46374 102.095 3.02826 100.142 3.02826H95.375V12.7029ZM119.801 25.6613C117.988 25.6613 116.411 25.3317 115.069 24.6726C113.728 24.0135 112.692 23.0955 111.962 21.9185C111.232 20.7416 110.868 19.3763 110.868 17.8227H113.975C113.975 18.7878 114.198 19.6823 114.646 20.5062C115.093 21.3065 115.74 21.9538 116.588 22.4481C117.459 22.9189 118.53 23.1543 119.801 23.1543C121.472 23.1543 122.767 22.7542 123.685 21.9538C124.603 21.1535 125.062 20.1531 125.062 18.9526C125.062 17.9639 124.85 17.1754 124.426 16.5869C124.003 15.9749 123.426 15.4805 122.696 15.1039C121.99 14.7273 121.166 14.3977 120.224 14.1152C119.306 13.8328 118.341 13.515 117.329 13.1619C115.422 12.5028 114.01 11.6907 113.092 10.7256C112.174 9.73695 111.715 8.45406 111.715 6.87693C111.691 5.55873 111.997 4.39354 112.633 3.38135C113.269 2.34562 114.163 1.54529 115.317 0.980344C116.493 0.391864 117.882 0.0976232 119.483 0.0976232C121.06 0.0976232 122.425 0.391864 123.579 0.980344C124.756 1.56883 125.662 2.38093 126.298 3.41666C126.957 4.45239 127.298 5.62935 127.322 6.94755H124.214C124.214 6.26491 124.038 5.59404 123.685 4.93494C123.332 4.2523 122.79 3.69913 122.061 3.27542C121.354 2.85172 120.46 2.63986 119.377 2.63986C118.035 2.61632 116.929 2.95764 116.058 3.66382C115.211 4.37 114.787 5.34688 114.787 6.59446C114.787 7.65372 115.081 8.46583 115.67 9.03077C116.282 9.59571 117.129 10.0665 118.212 10.4431C119.295 10.7962 120.542 11.2082 121.955 11.6789C123.132 12.1026 124.191 12.597 125.132 13.1619C126.074 13.7269 126.804 14.4566 127.322 15.3511C127.863 16.2456 128.134 17.3872 128.134 18.776C128.134 19.953 127.828 21.0711 127.216 22.1304C126.604 23.1661 125.674 24.0135 124.426 24.6726C123.202 25.3317 121.66 25.6613 119.801 25.6613ZM130.927 25.2375V0.521329H146.216V2.95764H133.893V11.573H145.157V13.974H133.893V22.8012H146.216V25.2375H130.927Z" fill="white"/>
</svg>
