<svg width="186" height="26" viewBox="0 0 186 26" fill="none" xmlns="http://www.w3.org/2000/svg">
<path d="M12.4527 25.6613C10.0281 25.6613 7.93315 25.1316 6.1677 24.0724C4.4258 22.9895 3.07229 21.4948 2.10718 19.5881C1.14207 17.6579 0.659518 15.4217 0.659518 12.8794C0.659518 10.3607 1.14207 8.14805 2.10718 6.24137C3.07229 4.31115 4.4258 2.80464 6.1677 1.72183C7.93315 0.639026 10.0281 0.0976232 12.4527 0.0976232C15.2774 0.0976232 17.5725 0.780261 19.3379 2.14554C21.1269 3.48728 22.2686 5.37042 22.7629 7.79496H19.4792C19.1025 6.26491 18.3257 5.04087 17.1488 4.12283C15.9953 3.18127 14.43 2.71048 12.4527 2.71048C10.6872 2.71048 9.14542 3.12242 7.82722 3.94629C6.50902 4.74663 5.48507 5.91182 4.75535 7.44187C4.04917 8.94838 3.69608 10.7609 3.69608 12.8794C3.69608 14.998 4.04917 16.8223 4.75535 18.3523C5.48507 19.8588 6.50902 21.024 7.82722 21.8479C9.14542 22.6482 10.6872 23.0484 12.4527 23.0484C14.43 23.0484 15.9953 22.6012 17.1488 21.7067C18.3257 20.7886 19.1025 19.5764 19.4792 18.0698H22.7629C22.2686 20.4473 21.1269 22.3069 19.3379 23.6486C17.5725 24.9904 15.2774 25.6613 12.4527 25.6613ZM25.6132 25.2375V0.521329H28.5792V11.4318H41.3963V0.521329H44.3623V25.2375H41.3963V13.8681H28.5792V25.2375H25.6132ZM46.6118 25.2375L55.7215 0.521329H58.864L67.9384 25.2375H64.7959L62.5361 18.8819H52.0141L49.719 25.2375H46.6118ZM52.8968 16.4809H61.6534L57.2751 4.26407L52.8968 16.4809ZM70.2004 25.2375V0.521329H73.1663V25.2375H70.2004ZM76.9946 25.2375V0.521329H79.9605L93.1307 20.3296V0.521329H96.0967V25.2375H93.1307L79.9605 5.42926V25.2375H76.9946ZM113.366 25.6613C111.13 25.6613 109.376 25.0375 108.105 23.7899C106.834 22.5423 106.199 20.8122 106.199 18.5995H109.2C109.2 19.8471 109.506 20.8946 110.118 21.742C110.73 22.5894 111.801 23.0131 113.331 23.0131C114.814 23.0131 115.838 22.6012 116.403 21.7773C116.991 20.9534 117.286 19.9294 117.286 18.7054V0.521329H120.252V18.7054C120.252 20.8946 119.64 22.6012 118.415 23.8252C117.215 25.0492 115.532 25.6613 113.366 25.6613ZM135.294 25.6613C132.869 25.6613 130.739 25.1316 128.903 24.0724C127.091 22.9895 125.666 21.483 124.631 19.5528C123.618 17.6226 123.112 15.3981 123.112 12.8794C123.112 10.3607 123.618 8.14805 124.631 6.24137C125.666 4.31115 127.091 2.80464 128.903 1.72183C130.739 0.639026 132.869 0.0976232 135.294 0.0976232C137.742 0.0976232 139.872 0.639026 141.685 1.72183C143.521 2.80464 144.945 4.31115 145.957 6.24137C146.969 8.14805 147.476 10.3607 147.476 12.8794C147.476 15.3981 146.969 17.6226 145.957 19.5528C144.945 21.483 143.521 22.9895 141.685 24.0724C139.872 25.1316 137.742 25.6613 135.294 25.6613ZM135.294 23.0484C137.106 23.0484 138.695 22.6482 140.061 21.8479C141.449 21.024 142.521 19.8588 143.274 18.3523C144.051 16.8223 144.439 14.998 144.439 12.8794C144.439 10.7609 144.051 8.94838 143.274 7.44187C142.521 5.93536 141.449 4.78193 140.061 3.9816C138.695 3.15773 137.106 2.74579 135.294 2.74579C133.481 2.74579 131.881 3.15773 130.492 3.9816C129.127 4.78193 128.056 5.93536 127.279 7.44187C126.526 8.94838 126.149 10.7609 126.149 12.8794C126.149 14.998 126.526 16.8223 127.279 18.3523C128.056 19.8588 129.127 21.024 130.492 21.8479C131.881 22.6482 133.481 23.0484 135.294 23.0484ZM150.342 25.2375V0.521329H165.631V2.95764H153.308V11.573H164.571V13.974H153.308V22.8012H165.631V25.2375H150.342ZM176.734 25.6613C174.921 25.6613 173.344 25.3317 172.002 24.6726C170.66 24.0135 169.625 23.0955 168.895 21.9185C168.165 20.7416 167.8 19.3763 167.8 17.8227H170.908C170.908 18.7878 171.131 19.6823 171.579 20.5062C172.026 21.3065 172.673 21.9538 173.521 22.4481C174.391 22.9189 175.462 23.1543 176.734 23.1543C178.405 23.1543 179.7 22.7542 180.618 21.9538C181.536 21.1535 181.995 20.1531 181.995 18.9526C181.995 17.9639 181.783 17.1754 181.359 16.5869C180.935 15.9749 180.359 15.4805 179.629 15.1039C178.923 14.7273 178.099 14.3977 177.157 14.1152C176.239 13.8328 175.274 13.515 174.262 13.1619C172.355 12.5028 170.943 11.6907 170.025 10.7256C169.107 9.73695 168.648 8.45406 168.648 6.87693C168.624 5.55873 168.93 4.39354 169.566 3.38135C170.201 2.34562 171.096 1.54529 172.249 0.980344C173.426 0.391864 174.815 0.0976232 176.416 0.0976232C177.993 0.0976232 179.358 0.391864 180.512 0.980344C181.689 1.56883 182.595 2.38093 183.23 3.41666C183.89 4.45239 184.231 5.62935 184.254 6.94755H181.147C181.147 6.26491 180.971 5.59404 180.618 4.93494C180.264 4.2523 179.723 3.69913 178.993 3.27542C178.287 2.85172 177.393 2.63986 176.31 2.63986C174.968 2.61632 173.862 2.95764 172.991 3.66382C172.143 4.37 171.72 5.34688 171.72 6.59446C171.72 7.65372 172.014 8.46583 172.602 9.03077C173.214 9.59571 174.062 10.0665 175.145 10.4431C176.228 10.7962 177.475 11.2082 178.887 11.6789C180.064 12.1026 181.124 12.597 182.065 13.1619C183.007 13.7269 183.737 14.4566 184.254 15.3511C184.796 16.2456 185.067 17.3872 185.067 18.776C185.067 19.953 184.76 21.0711 184.148 22.1304C183.536 23.1661 182.607 24.0135 181.359 24.6726C180.135 25.3317 178.593 25.6613 176.734 25.6613Z" fill="white"/>
</svg>
