<svg width="192" height="52" viewBox="0 0 192 52" fill="none" xmlns="http://www.w3.org/2000/svg">
<path d="M15.176 0.427998L8.904 12.384V20H6.944V12.384L0.616 0.427998H2.828L7.924 10.592L12.992 0.427998H15.176ZM23.6167 20.224C22.1794 20.224 20.882 19.9067 19.7247 19.272C18.586 18.6187 17.6807 17.704 17.0087 16.528C16.3554 15.3333 16.0287 13.9427 16.0287 12.356C16.0287 10.7693 16.3647 9.388 17.0367 8.212C17.7087 7.01733 18.6234 6.10267 19.7807 5.468C20.938 4.81467 22.2354 4.488 23.6727 4.488C25.11 4.488 26.4074 4.81467 27.5647 5.468C28.7407 6.10267 29.6554 7.01733 30.3087 8.212C30.9807 9.388 31.3167 10.7693 31.3167 12.356C31.3167 13.924 30.9807 15.3053 30.3087 16.5C29.6367 17.6947 28.7127 18.6187 27.5367 19.272C26.3607 19.9067 25.054 20.224 23.6167 20.224ZM23.6167 18.516C24.6247 18.516 25.558 18.292 26.4167 17.844C27.2754 17.3773 27.966 16.6867 28.4887 15.772C29.03 14.8387 29.3007 13.7 29.3007 12.356C29.3007 11.012 29.0394 9.88267 28.5167 8.968C27.994 8.03467 27.3034 7.344 26.4447 6.896C25.586 6.42933 24.6527 6.196 23.6447 6.196C22.6367 6.196 21.7034 6.42933 20.8447 6.896C19.986 7.344 19.2954 8.03467 18.7727 8.968C18.2687 9.88267 18.0167 11.012 18.0167 12.356C18.0167 13.7 18.2687 14.8387 18.7727 15.772C19.2954 16.6867 19.9767 17.3773 20.8167 17.844C21.6754 18.292 22.6087 18.516 23.6167 18.516ZM47.0135 4.712V20H45.0535V17.312C44.6055 18.264 43.9149 18.992 42.9815 19.496C42.0482 20 41.0029 20.252 39.8455 20.252C38.0162 20.252 36.5229 19.692 35.3655 18.572C34.2082 17.4333 33.6295 15.7907 33.6295 13.644V4.712H35.5615V13.42C35.5615 15.0813 35.9722 16.3507 36.7935 17.228C37.6335 18.1053 38.7722 18.544 40.2095 18.544C41.6842 18.544 42.8602 18.0773 43.7375 17.144C44.6149 16.2107 45.0535 14.8387 45.0535 13.028V4.712H47.0135ZM52.3283 7.428C52.7576 6.476 53.4109 5.73867 54.2883 5.216C55.1843 4.69333 56.2763 4.432 57.5643 4.432V6.476H57.0323C55.6136 6.476 54.4749 6.85867 53.6163 7.624C52.7576 8.38933 52.3283 9.668 52.3283 11.46V20H50.3683V4.712H52.3283V7.428ZM65.0604 12.356C65.0604 10.7693 65.3777 9.388 66.0124 8.212C66.6471 7.01733 67.5244 6.10267 68.6444 5.468C69.7644 4.81467 71.0431 4.488 72.4804 4.488C74.3657 4.488 75.9151 4.95467 77.1284 5.888C78.3604 6.82133 79.1537 8.09067 79.5084 9.696H77.4084C77.1471 8.59467 76.5777 7.736 75.7004 7.12C74.8417 6.48533 73.7684 6.168 72.4804 6.168C71.4537 6.168 70.5297 6.40133 69.7084 6.868C68.8871 7.33467 68.2337 8.03467 67.7484 8.968C67.2817 9.88267 67.0484 11.012 67.0484 12.356C67.0484 13.7 67.2817 14.8387 67.7484 15.772C68.2337 16.7053 68.8871 17.4053 69.7084 17.872C70.5297 18.3387 71.4537 18.572 72.4804 18.572C73.7684 18.572 74.8417 18.264 75.7004 17.648C76.5777 17.0133 77.1471 16.136 77.4084 15.016H79.5084C79.1537 16.584 78.3604 17.844 77.1284 18.796C75.8964 19.748 74.3471 20.224 72.4804 20.224C71.0431 20.224 69.7644 19.9067 68.6444 19.272C67.5244 18.6187 66.6471 17.704 66.0124 16.528C65.3777 15.3333 65.0604 13.9427 65.0604 12.356ZM88.7003 20.224C87.2629 20.224 85.9656 19.9067 84.8083 19.272C83.6696 18.6187 82.7643 17.704 82.0923 16.528C81.4389 15.3333 81.1123 13.9427 81.1123 12.356C81.1123 10.7693 81.4483 9.388 82.1203 8.212C82.7923 7.01733 83.7069 6.10267 84.8643 5.468C86.0216 4.81467 87.3189 4.488 88.7563 4.488C90.1936 4.488 91.4909 4.81467 92.6483 5.468C93.8243 6.10267 94.7389 7.01733 95.3923 8.212C96.0643 9.388 96.4003 10.7693 96.4003 12.356C96.4003 13.924 96.0643 15.3053 95.3923 16.5C94.7203 17.6947 93.7963 18.6187 92.6203 19.272C91.4443 19.9067 90.1376 20.224 88.7003 20.224ZM88.7003 18.516C89.7083 18.516 90.6416 18.292 91.5003 17.844C92.3589 17.3773 93.0496 16.6867 93.5723 15.772C94.1136 14.8387 94.3843 13.7 94.3843 12.356C94.3843 11.012 94.1229 9.88267 93.6003 8.968C93.0776 8.03467 92.3869 7.344 91.5283 6.896C90.6696 6.42933 89.7363 6.196 88.7283 6.196C87.7203 6.196 86.7869 6.42933 85.9283 6.896C85.0696 7.344 84.3789 8.03467 83.8563 8.968C83.3523 9.88267 83.1003 11.012 83.1003 12.356C83.1003 13.7 83.3523 14.8387 83.8563 15.772C84.3789 16.6867 85.0603 17.3773 85.9003 17.844C86.7589 18.292 87.6923 18.516 88.7003 18.516ZM117.053 4.432C118.845 4.432 120.301 5.00133 121.421 6.14C122.56 7.26 123.129 8.89333 123.129 11.04V20H121.197V11.264C121.197 9.60267 120.796 8.33333 119.993 7.456C119.19 6.57867 118.098 6.14 116.717 6.14C115.28 6.14 114.132 6.616 113.273 7.568C112.414 8.52 111.985 9.90133 111.985 11.712V20H110.053V11.264C110.053 9.60267 109.652 8.33333 108.849 7.456C108.046 6.57867 106.945 6.14 105.545 6.14C104.108 6.14 102.96 6.616 102.101 7.568C101.242 8.52 100.813 9.90133 100.813 11.712V20H98.8531V4.712H100.813V7.344C101.298 6.392 101.989 5.67333 102.885 5.188C103.781 4.684 104.78 4.432 105.881 4.432C107.206 4.432 108.364 4.74933 109.353 5.384C110.361 6.01867 111.089 6.952 111.537 8.184C111.948 6.97067 112.648 6.04667 113.637 5.412C114.645 4.75867 115.784 4.432 117.053 4.432ZM128.294 8.072C128.779 7.04533 129.545 6.196 130.59 5.524C131.654 4.83333 132.914 4.488 134.37 4.488C135.751 4.488 136.993 4.81467 138.094 5.468C139.214 6.10267 140.082 7.01733 140.698 8.212C141.333 9.388 141.65 10.76 141.65 12.328C141.65 13.896 141.333 15.2773 140.698 16.472C140.082 17.6667 139.214 18.5907 138.094 19.244C136.993 19.8973 135.751 20.224 134.37 20.224C132.933 20.224 131.682 19.888 130.618 19.216C129.554 18.5253 128.779 17.6667 128.294 16.64V27.224H126.362V4.712H128.294V8.072ZM139.662 12.328C139.662 11.0587 139.41 9.96667 138.906 9.052C138.421 8.11867 137.749 7.40933 136.89 6.924C136.031 6.43867 135.061 6.196 133.978 6.196C132.933 6.196 131.971 6.448 131.094 6.952C130.235 7.456 129.554 8.17467 129.05 9.108C128.546 10.0413 128.294 11.124 128.294 12.356C128.294 13.588 128.546 14.6707 129.05 15.604C129.554 16.5373 130.235 17.256 131.094 17.76C131.971 18.264 132.933 18.516 133.978 18.516C135.061 18.516 136.031 18.2733 136.89 17.788C137.749 17.284 138.421 16.5653 138.906 15.632C139.41 14.68 139.662 13.5787 139.662 12.328ZM143.241 12.328C143.241 10.76 143.549 9.388 144.165 8.212C144.799 7.01733 145.667 6.10267 146.769 5.468C147.889 4.81467 149.149 4.488 150.549 4.488C152.005 4.488 153.255 4.824 154.301 5.496C155.365 6.168 156.13 7.02667 156.597 8.072V4.712H158.557V20H156.597V16.612C156.111 17.6573 155.337 18.5253 154.273 19.216C153.227 19.888 151.977 20.224 150.521 20.224C149.139 20.224 147.889 19.8973 146.769 19.244C145.667 18.5907 144.799 17.6667 144.165 16.472C143.549 15.2773 143.241 13.896 143.241 12.328ZM156.597 12.356C156.597 11.124 156.345 10.0413 155.841 9.108C155.337 8.17467 154.646 7.456 153.769 6.952C152.91 6.448 151.958 6.196 150.913 6.196C149.83 6.196 148.859 6.43867 148.001 6.924C147.142 7.40933 146.461 8.11867 145.957 9.052C145.471 9.96667 145.229 11.0587 145.229 12.328C145.229 13.5787 145.471 14.68 145.957 15.632C146.461 16.5653 147.142 17.284 148.001 17.788C148.859 18.2733 149.83 18.516 150.913 18.516C151.958 18.516 152.91 18.264 153.769 17.76C154.646 17.256 155.337 16.5373 155.841 15.604C156.345 14.6707 156.597 13.588 156.597 12.356ZM169.079 4.432C170.908 4.432 172.402 5.00133 173.559 6.14C174.716 7.26 175.295 8.89333 175.295 11.04V20H173.363V11.264C173.363 9.60267 172.943 8.33333 172.103 7.456C171.282 6.57867 170.152 6.14 168.715 6.14C167.24 6.14 166.064 6.60667 165.187 7.54C164.31 8.47333 163.871 9.84533 163.871 11.656V20H161.911V4.712H163.871V7.316C164.356 6.38267 165.056 5.67333 165.971 5.188C166.886 4.684 167.922 4.432 169.079 4.432ZM191.11 4.712L182.038 27.196H179.994L182.962 19.916L176.69 4.712H178.846L184.054 17.76L189.094 4.712H191.11ZM9.52 35.432C10.6773 35.432 11.7133 35.6747 12.628 36.16C13.5613 36.6453 14.2893 37.392 14.812 38.4C15.3533 39.3893 15.624 40.6027 15.624 42.04V51H13.692V42.264C13.692 40.6027 13.272 39.3333 12.432 38.456C11.6107 37.5787 10.4813 37.14 9.044 37.14C7.56933 37.14 6.39333 37.6067 5.516 38.54C4.63867 39.4733 4.2 40.8453 4.2 42.656V51H2.24V30.28H4.2V38.316C4.68533 37.4013 5.39467 36.692 6.328 36.188C7.28 35.684 8.344 35.432 9.52 35.432ZM32.6707 42.572C32.6707 43.244 32.6521 43.7573 32.6147 44.112H19.9307C19.9867 45.2693 20.2667 46.2587 20.7707 47.08C21.2747 47.9013 21.9374 48.5267 22.7587 48.956C23.5801 49.3667 24.4761 49.572 25.4467 49.572C26.7161 49.572 27.7801 49.264 28.6387 48.648C29.5161 48.032 30.0947 47.2013 30.3747 46.156H32.4468C32.0734 47.6493 31.2707 48.872 30.0387 49.824C28.8254 50.7573 27.2947 51.224 25.4467 51.224C24.0094 51.224 22.7214 50.9067 21.5827 50.272C20.4441 49.6187 19.5481 48.704 18.8947 47.528C18.2601 46.3333 17.9427 44.9427 17.9427 43.356C17.9427 41.7693 18.2601 40.3787 18.8947 39.184C19.5294 37.9893 20.4161 37.0747 21.5547 36.44C22.6934 35.8053 23.9907 35.488 25.4467 35.488C26.9027 35.488 28.1721 35.8053 29.2547 36.44C30.3561 37.0747 31.1961 37.9333 31.7748 39.016C32.3721 40.08 32.6707 41.2653 32.6707 42.572ZM30.6827 42.516C30.7014 41.3773 30.4681 40.4067 29.9827 39.604C29.5161 38.8013 28.8721 38.1947 28.0507 37.784C27.2294 37.3733 26.3334 37.168 25.3627 37.168C23.9067 37.168 22.6654 37.6347 21.6387 38.568C20.6121 39.5013 20.0427 40.8173 19.9307 42.516H30.6827ZM37.0967 38.428C37.5261 37.476 38.1794 36.7387 39.0567 36.216C39.9527 35.6933 41.0447 35.432 42.3327 35.432V37.476H41.8007C40.3821 37.476 39.2434 37.8587 38.3847 38.624C37.5261 39.3893 37.0967 40.668 37.0967 42.46V51H35.1367V35.712H37.0967V38.428ZM57.9932 42.572C57.9932 43.244 57.9746 43.7573 57.9373 44.112H45.2532C45.3092 45.2693 45.5892 46.2587 46.0932 47.08C46.5972 47.9013 47.2599 48.5267 48.0812 48.956C48.9026 49.3667 49.7986 49.572 50.7692 49.572C52.0386 49.572 53.1026 49.264 53.9612 48.648C54.8386 48.032 55.4173 47.2013 55.6972 46.156H57.7693C57.3959 47.6493 56.5932 48.872 55.3612 49.824C54.1479 50.7573 52.6172 51.224 50.7692 51.224C49.3319 51.224 48.0439 50.9067 46.9052 50.272C45.7666 49.6187 44.8706 48.704 44.2172 47.528C43.5826 46.3333 43.2652 44.9427 43.2652 43.356C43.2652 41.7693 43.5826 40.3787 44.2172 39.184C44.8519 37.9893 45.7386 37.0747 46.8772 36.44C48.0159 35.8053 49.3132 35.488 50.7692 35.488C52.2252 35.488 53.4946 35.8053 54.5773 36.44C55.6786 37.0747 56.5186 37.9333 57.0973 39.016C57.6946 40.08 57.9932 41.2653 57.9932 42.572ZM56.0052 42.516C56.0239 41.3773 55.7906 40.4067 55.3052 39.604C54.8386 38.8013 54.1946 38.1947 53.3732 37.784C52.5519 37.3733 51.6559 37.168 50.6853 37.168C49.2292 37.168 47.9879 37.6347 46.9612 38.568C45.9346 39.5013 45.3652 40.8173 45.2532 42.516H56.0052Z" fill="white"/>
</svg>
