<svg width="241" height="50" viewBox="0 0 241 50" fill="none" xmlns="http://www.w3.org/2000/svg">
<path d="M199.569 41.4851L197.288 47.7989L195.044 41.4851H193.709L196.577 49.089H198.019L200.875 41.4851H199.569Z" fill="#D9D9D9"/>
<path d="M172.495 41.4851V42.4609H174.561V49.0766H175.8V42.4609H177.821V41.4851H172.495Z" fill="#D9D9D9"/>
<path d="M156.543 41.4851L153.899 47.4475L151.229 41.4851H149.886V49.089H151.126V43.8833L153.457 49.089H154.312L156.63 43.8833V49.089H157.87V41.4851H156.543Z" fill="#D9D9D9"/>
<path d="M128.572 41.4851V44.7681H124.998V41.4851H123.758V49.089H124.998V45.7315H128.572V49.089H129.812V41.4851H128.572Z" fill="#D9D9D9"/>
<path d="M113.365 41.4851V42.4609H115.398V49.0766H116.638V42.4609H118.659V41.4851H113.365Z" fill="#D9D9D9"/>
<path d="M85.9434 41.4851V42.4609H87.9765V49.0766H89.2161V42.4609H91.2368V41.4851H85.9434Z" fill="#D9D9D9"/>
<path d="M64.9515 41.4851L62.2903 47.4475L59.625 41.4851H58.2778V49.089H59.5175V43.8833L61.8481 49.089H62.7118L65.0548 43.8833V49.089H66.2945V41.4851H64.9515Z" fill="#D9D9D9"/>
<path d="M26.166 48.138V41.4851H24.9263V49.089H28.7404V48.138H26.166Z" fill="#D9D9D9"/>
<path d="M9.17781 41.4851L7.59102 47.646L6.00422 41.4851H4.6075L2.90086 47.6873L1.32646 41.4851H0L2.15705 49.1014H3.5579L5.25214 43.3458L6.84721 49.1014H8.25631L10.5084 41.4851H9.17781Z" fill="#D9D9D9"/>
<path d="M240.677 42.4485V41.4768H236.479V49.089H240.677V48.1173H237.722V45.7191H240.35V44.7557H237.722V42.4485H240.677Z" fill="#D9D9D9"/>
<path d="M209.953 42.4485V41.4768H205.755V49.089H209.953V48.1173H207.003V45.7191H209.627V44.7557H207.003V42.4485H209.953Z" fill="#D9D9D9"/>
<path d="M186.61 41.4768H185.168L182.445 49.089H183.746L184.292 47.5384H187.474L188.019 49.089H189.333L186.61 41.4768ZM184.631 46.5626L185.87 42.986L187.11 46.5626H184.631Z" fill="#D9D9D9"/>
<path d="M167.535 42.4485V41.4768H163.345V49.089H167.535V48.1173H164.581V45.7191H167.205V44.7557H164.581V42.4485H167.535Z" fill="#D9D9D9"/>
<path d="M139.486 42.4485V41.4768H135.304V49.089H139.502V48.1173H136.543V45.7191H139.167V44.7557H136.543V42.4485H139.486Z" fill="#D9D9D9"/>
<path d="M75.9474 42.4485V41.4768H71.749V49.089H75.9474V48.1173H72.997V45.7191H75.621V44.7557H72.997V42.4485H75.9474Z" fill="#D9D9D9"/>
<path d="M19.5627 42.4485V41.4768H15.3643V49.089H19.5627V48.1173H16.6122V45.7191H19.2362V44.7557H16.6122V42.4485H19.5627Z" fill="#D9D9D9"/>
<path d="M218.862 45.9259C219.393 45.8238 219.866 45.5293 220.193 45.0989C220.478 44.7077 220.63 44.2352 220.627 43.751C220.634 43.3473 220.53 42.9495 220.325 42.6015C220.111 42.2415 219.795 41.9535 219.416 41.7746C218.953 41.5564 218.444 41.4515 217.933 41.4686H215.309V49.0725H216.548V46.0499H217.499L219.251 49.089H220.738L218.862 45.9259ZM216.557 45.0535V42.4485H217.949C218.14 42.4325 218.332 42.4546 218.515 42.5135C218.697 42.5724 218.866 42.667 219.011 42.7917C219.133 42.9187 219.227 43.0695 219.287 43.2346C219.348 43.3997 219.373 43.5755 219.362 43.751C219.37 43.9253 219.343 44.0995 219.282 44.2629C219.221 44.4264 219.127 44.5758 219.007 44.702C218.714 44.9531 218.334 45.0792 217.949 45.0535H216.557Z" fill="#D9D9D9"/>
<path d="M38.2814 47.7414C37.9072 47.9386 37.4893 48.0382 37.0665 48.0308C36.5968 48.038 36.1335 47.921 35.7235 47.6917C35.3292 47.4621 35.0082 47.1251 34.7978 46.7201C34.5771 46.2696 34.4623 45.7746 34.4623 45.2729C34.4623 44.7712 34.5771 44.2762 34.7978 43.8257C35.0047 43.4241 35.3233 43.0909 35.7152 42.8664C36.1237 42.6334 36.5881 42.5162 37.0582 42.5274C37.4815 42.5161 37.9003 42.6159 38.2731 42.8168C38.6308 43.0093 38.9196 43.3084 39.0996 43.6727H40.5996C40.3423 42.9735 39.8596 42.3799 39.2277 41.9857C38.6106 41.6114 37.9064 41.4053 37.1851 41.3879C36.4637 41.3705 35.7504 41.5424 35.116 41.8865C34.5286 42.2121 34.0402 42.6907 33.7028 43.2716C33.3642 43.8842 33.1865 44.5728 33.1865 45.2729C33.1865 45.9729 33.3642 46.6615 33.7028 47.2741C34.0412 47.8529 34.5276 48.331 35.1119 48.6593C35.7498 49.0034 36.4661 49.1756 37.1906 49.1589C37.9151 49.1422 38.6228 48.9373 39.2442 48.5642C39.8752 48.1708 40.3577 47.5789 40.6161 46.8813H39.1161C38.9307 47.2455 38.6398 47.5453 38.2814 47.7414Z" fill="#D9D9D9"/>
<path d="M103.163 43.2717C102.833 42.6878 102.346 42.208 101.758 41.8865C101.158 41.5583 100.485 41.3862 99.8013 41.3862C99.1175 41.3862 98.4447 41.5583 97.8447 41.8865C97.2573 42.2121 96.7689 42.6907 96.4315 43.2717C96.0921 43.8848 95.9141 44.5741 95.9141 45.275C95.9141 45.9758 96.0921 46.6652 96.4315 47.2783C96.7711 47.8596 97.2588 48.3404 97.8447 48.6717C98.4455 48.9974 99.118 49.168 99.8013 49.168C100.485 49.168 101.157 48.9974 101.758 48.6717C102.345 48.3447 102.831 47.8627 103.163 47.2783C103.502 46.6652 103.68 45.9758 103.68 45.275C103.68 44.5741 103.502 43.8848 103.163 43.2717ZM102.064 46.7201C101.855 47.126 101.535 47.4643 101.142 47.6959C100.73 47.921 100.267 48.0389 99.7972 48.0389C99.3272 48.0389 98.8648 47.921 98.4522 47.6959C98.0577 47.4646 97.7368 47.1263 97.5265 46.7201C97.3058 46.2696 97.191 45.7746 97.191 45.2729C97.191 44.7712 97.3058 44.2762 97.5265 43.8257C97.7349 43.4214 98.0566 43.0866 98.4522 42.8623C98.8656 42.6397 99.3277 42.5232 99.7972 42.5232C100.267 42.5232 100.729 42.6397 101.142 42.8623C101.537 43.0867 101.857 43.4216 102.064 43.8257C102.285 44.2762 102.399 44.7712 102.399 45.2729C102.399 45.7746 102.285 46.2696 102.064 46.7201Z" fill="#D9D9D9"/>
<path d="M52.7158 43.2716C52.3858 42.6878 51.8991 42.2079 51.3108 41.8865C50.71 41.5582 50.0365 41.3862 49.3521 41.3862C48.6676 41.3862 47.9941 41.5582 47.3934 41.8865C46.8075 42.2127 46.3206 42.6913 45.9843 43.2716C45.643 43.8841 45.4639 44.5737 45.4639 45.2749C45.4639 45.9762 45.643 46.6658 45.9843 47.2782C46.3225 47.8593 46.8087 48.3401 47.3934 48.6717C47.9954 48.9959 48.6684 49.1657 49.3521 49.1657C50.0358 49.1657 50.7088 48.9959 51.3108 48.6717C51.8978 48.3447 52.3838 47.8627 52.7158 47.2782C53.0518 46.6641 53.2279 45.9751 53.2279 45.2749C53.2279 44.5747 53.0518 43.8858 52.7158 43.2716ZM51.6166 46.7201C51.4063 47.1262 51.0854 47.4645 50.6909 47.6959C50.2783 47.921 49.8158 48.0389 49.3459 48.0389C48.8759 48.0389 48.4134 47.921 48.0008 47.6959C47.6083 47.4621 47.288 47.1244 47.0752 46.7201C46.8559 46.2692 46.742 45.7743 46.742 45.2729C46.742 44.7715 46.8559 44.2766 47.0752 43.8257C47.2859 43.423 47.607 43.0888 48.0008 42.8623C48.4143 42.6397 48.8764 42.5232 49.3459 42.5232C49.8153 42.5232 50.2775 42.6397 50.6909 42.8623C51.0865 43.0866 51.4082 43.4214 51.6166 43.8257C51.8358 44.2766 51.9497 44.7715 51.9497 45.2729C51.9497 45.7743 51.8358 46.2692 51.6166 46.7201Z" fill="#D9D9D9"/>
<path d="M230.843 45.7813C230.628 45.4988 230.343 45.2778 230.016 45.1404C229.614 44.9726 229.199 44.8344 228.777 44.727C228.396 44.6195 228.095 44.5285 227.88 44.4417C227.676 44.3628 227.492 44.2416 227.338 44.0861C227.196 43.9291 227.119 43.7234 227.124 43.5113C227.112 43.357 227.136 43.202 227.194 43.0585C227.252 42.915 227.342 42.7869 227.458 42.6844C227.708 42.4878 228.021 42.388 228.339 42.4032C228.683 42.3847 229.022 42.4919 229.293 42.705C229.407 42.7965 229.5 42.9106 229.567 43.0402C229.634 43.1698 229.673 43.312 229.682 43.4576H231.062C231.049 43.1627 230.972 42.8741 230.837 42.612C230.701 42.3499 230.51 42.1206 230.277 41.9401C229.755 41.5519 229.116 41.3561 228.467 41.386C227.999 41.3777 227.534 41.4679 227.103 41.6507C226.729 41.8057 226.408 42.0674 226.181 42.4032C225.96 42.7448 225.846 43.1454 225.855 43.5527C225.846 43.9598 225.972 44.3585 226.215 44.6856C226.422 44.9584 226.695 45.1745 227.008 45.3141C227.401 45.4797 227.806 45.6178 228.219 45.7276C228.531 45.804 228.839 45.8993 229.14 46.0129C229.353 46.0908 229.544 46.2183 229.698 46.385C229.851 46.5559 229.931 46.78 229.921 47.0094C229.924 47.165 229.894 47.3195 229.832 47.4622C229.77 47.605 229.678 47.7326 229.562 47.8363C229.279 48.0661 228.921 48.1812 228.558 48.1588C228.204 48.1813 227.855 48.064 227.586 47.8322C227.36 47.6132 227.222 47.3191 227.198 47.0052H225.867C225.857 47.4157 225.978 47.8188 226.215 48.1547C226.46 48.4917 226.793 48.7548 227.177 48.9155C227.615 49.0973 228.084 49.1887 228.558 49.1843C229.044 49.196 229.526 49.0895 229.963 48.8741C230.334 48.6861 230.647 48.4002 230.867 48.0472C231.073 47.7186 231.182 47.3389 231.182 46.9515C231.205 46.5342 231.086 46.1213 230.843 45.7813Z" fill="#D9D9D9"/>
<path d="M82.2782 8.746H72.3193V0.761719H101.225V8.746H91.2659V29.7425H82.2782V8.746Z" fill="#D9D9D9"/>
<path d="M111.117 0.766113L99.6211 29.7469H108.609L110.415 25.0332L119.704 0.766113H111.117Z" fill="#D9D9D9"/>
<path d="M123.353 1.84888L118.861 13.5875L125.118 29.7463H134.676L123.353 1.84888Z" fill="#D9D9D9"/>
<path d="M218.086 13.0338V29.7425H209.296V0.761719H218.487L231.888 16.9825V0.761719H240.677V29.7425H231.999L218.086 13.0338Z" fill="#D9D9D9"/>
<path d="M68.3607 0.761719V7.79086H52.5009V11.5122H67.84V18.7191H52.5009V22.6926H68.5756V29.7797H43.5132V0.761719H68.3607Z" fill="#D9D9D9"/>
<path d="M0 0.761719H12.4341L19.149 17.3009L26.0004 0.761719H37.8973V29.7425H29.0748V11.6279L21.6904 29.7425H16.0085L8.69021 11.6279V29.7425H0.0123964L0 0.761719Z" fill="#D9D9D9"/>
<path d="M150.981 30.2136C149.083 30.2435 147.189 30.0139 145.353 29.5314C143.89 29.1448 142.496 28.5339 141.22 27.7204C140.13 27.0221 139.169 26.1392 138.382 25.1113C137.659 24.165 137.057 23.1314 136.592 22.035C136.157 21.0056 135.849 19.9266 135.675 18.8223C135.512 17.8105 135.427 16.7875 135.423 15.7625V14.5924C135.427 13.5689 135.512 12.5472 135.675 11.5368C135.846 10.4392 136.149 9.36614 136.576 8.3406C137.03 7.25586 137.625 6.23548 138.344 5.30567C139.14 4.28788 140.108 3.41744 141.204 2.73383C142.485 1.93994 143.878 1.34207 145.336 0.960007C147.18 0.488881 149.078 0.266388 150.981 0.298438H152.485C154.388 0.276723 156.288 0.463909 158.15 0.856637C159.587 1.15611 160.977 1.64701 162.283 2.31622C163.328 2.8578 164.272 3.5769 165.072 4.4415C165.763 5.19896 166.344 6.05099 166.795 6.97198C167.207 7.82371 167.499 8.72809 167.663 9.6596C167.811 10.509 167.889 11.3692 167.894 12.2314V12.5415H158.568C158.513 12.2074 158.435 11.8772 158.336 11.5533C158.155 10.9968 157.852 10.4882 157.448 10.0648C156.875 9.46809 156.18 9.00139 155.411 8.6962C154.243 8.2528 152.998 8.05027 151.75 8.10079C150.54 8.05458 149.335 8.28213 148.225 8.76649C147.404 9.1458 146.684 9.71224 146.121 10.4204C145.628 11.0632 145.28 11.8051 145.101 12.5953C144.928 13.3272 144.838 14.0761 144.832 14.8281V15.2953C144.839 16.0618 144.935 16.8249 145.117 17.5694C145.308 18.3814 145.661 19.1464 146.154 19.8188C146.706 20.5554 147.428 21.147 148.258 21.543C149.363 22.0429 150.57 22.2779 151.783 22.2294C153.024 22.28 154.263 22.0818 155.427 21.6463C156.187 21.3443 156.875 20.8865 157.448 20.3025C157.85 19.8873 158.153 19.3871 158.336 18.8388C158.431 18.5319 158.508 18.2199 158.568 17.9044H167.89V18.2227C167.883 19.0452 167.806 19.8655 167.659 20.6747C167.49 21.5962 167.203 22.4924 166.808 23.3416C165.861 25.3758 164.277 27.0453 162.295 28.0966C160.992 28.7913 159.603 29.3086 158.163 29.6348C156.3 30.0497 154.394 30.244 152.485 30.2136H150.981Z" fill="#D9D9D9"/>
<path d="M188.78 0.25712C190.728 0.225553 192.672 0.440898 194.565 0.898013C196.061 1.26666 197.496 1.85021 198.826 2.63048C199.947 3.29682 200.943 4.15468 201.768 5.16511C202.512 6.08701 203.124 7.10855 203.586 8.20005C204.026 9.24369 204.341 10.3361 204.524 11.4541C204.695 12.4902 204.784 13.5382 204.788 14.5883V15.7419C204.784 16.792 204.696 17.8401 204.524 18.8761C204.342 19.9943 204.027 21.0867 203.586 22.1302C203.12 23.2324 202.509 24.267 201.768 25.2064C200.953 26.2361 199.962 27.1137 198.842 27.799C197.519 28.599 196.082 29.1956 194.582 29.5686C192.69 30.0388 190.745 30.2626 188.796 30.2343H187.292C185.343 30.2648 183.398 30.0411 181.507 29.5686C180.012 29.1949 178.581 28.5983 177.263 27.799C176.141 27.1106 175.145 26.2336 174.321 25.2064C173.569 24.2706 172.951 23.2354 172.482 22.1302C172.042 21.0866 171.729 19.9941 171.548 18.8761C171.367 17.8409 171.269 16.7928 171.255 15.7419V14.5718C171.26 13.5146 171.349 12.4596 171.523 11.4169C171.709 10.3047 172.028 9.21904 172.474 8.18351C172.948 7.09382 173.566 6.073 174.313 5.14858C175.134 4.14028 176.124 3.28261 177.238 2.61395C178.56 1.83074 179.99 1.24696 181.482 0.881471C183.376 0.424355 185.32 0.209011 187.268 0.240577L188.78 0.25712ZM195.363 14.8612C195.356 14.1025 195.266 13.3468 195.094 12.6077C194.911 11.8022 194.553 11.0469 194.044 10.3956C193.45 9.66389 192.687 9.0866 191.821 8.71276C189.359 7.82533 186.664 7.82533 184.201 8.71276C183.338 9.08234 182.58 9.66059 181.995 10.3956C181.496 11.0508 181.142 11.8049 180.958 12.6077C180.787 13.3469 180.698 14.1026 180.693 14.8612V15.2747C180.699 16.04 180.788 16.8025 180.958 17.5488C181.146 18.3739 181.512 19.1482 182.028 19.8188C182.624 20.5719 183.392 21.1704 184.267 21.5637C186.703 22.4733 189.385 22.4733 191.821 21.5637C192.694 21.1724 193.457 20.5733 194.044 19.8188C194.551 19.1452 194.909 18.3714 195.094 17.5488C195.265 16.8026 195.355 16.0402 195.363 15.2747V14.8612Z" fill="#D9D9D9"/>
</svg>
