<svg width="253" height="22" viewBox="0 0 253 22" fill="none" xmlns="http://www.w3.org/2000/svg">
<path d="M68.2757 4.63426C70.3286 7.0551 72.0955 9.16125 72.2018 9.31488C72.3302 9.50031 72.5213 9.42183 72.7708 9.08098C72.9774 8.79886 74.6436 6.69399 76.4733 4.40344L79.8 0.23884L83.9031 0.235763L88.0062 0.232685L86.1652 2.3691C85.1525 3.544 82.3164 6.83274 79.8629 9.67753L75.4016 14.8501V18.3132V21.7764H72.2599H69.1181L69.1061 18.2499L69.0943 14.7234L62.6969 7.56702C59.1787 3.63094 56.2999 0.370667 56.2999 0.321681C56.2999 0.272695 58.1545 0.232685 60.4213 0.232685H64.5425L68.2757 4.63426Z" fill="white"/>
<path d="M50.0513 0.602519C50.9692 0.801028 52.3016 1.21856 53.0121 1.53044C54.5644 2.21188 56.3308 4.1126 56.755 5.55807C57.1222 6.80889 57.1391 9.01404 56.791 10.2928C56.273 12.1961 54.2829 14.1345 52.3051 14.6623C51.8205 14.7916 51.9213 14.9568 53.3072 16.3035C54.1547 17.1273 55.6391 18.6954 56.606 19.7887L58.3639 21.7764L54.0016 21.7617L49.6394 21.7474L47.3773 18.9552L45.1153 16.1629L40.0257 16.1486L34.9361 16.134V18.9552V21.7764H31.7943H28.6526V16.2622V10.748L38.392 10.7475C47.1609 10.7473 48.2191 10.7027 49.0108 10.2987C50.6912 9.44183 50.8845 7.65063 49.417 6.5319C48.7509 6.02408 48.3274 5.99818 38.6647 5.87507L28.6059 5.74684L30.6734 2.98976L32.7409 0.232685L40.5618 0.237045C46.3122 0.240379 48.8245 0.33707 50.0513 0.602519Z" fill="white"/>
<path d="M6.48378 4.46473C6.44256 6.79247 6.43754 8.69678 6.47247 8.69652C6.50716 8.69652 8.71265 6.79478 11.3736 4.47089L16.2113 0.245509L20.9742 0.239098C23.6578 0.235507 25.6328 0.329119 25.4983 0.453764C25.0972 0.825136 15.0489 8.47801 13.6414 9.48415L12.3219 10.4277L13.372 11.1366C14.2185 11.7083 25.3684 20.7251 26.2523 21.5527C26.3888 21.6807 24.3758 21.7764 21.553 21.7764H16.6152L11.6377 17.3237L6.66047 12.8711L6.59186 17.3237L6.52324 21.7764H3.26162H0V11.0045V0.232685H3.27922H6.55818L6.48378 4.46473Z" fill="white"/>
<path d="M109.77 0.975685C111.608 1.66098 113.631 3.39371 114.409 4.94844C115.049 6.22644 115.282 8.91324 114.883 10.4167C114.311 12.5754 112.268 14.5936 109.709 15.5284C108.652 15.9147 107.297 16.0091 101.164 16.1247L93.875 16.2622L93.8036 19.0193L93.7322 21.7764H90.4734H87.2145V16.2622V10.748H96.7903C107.205 10.748 107.678 10.6891 108.292 9.31308C108.877 8.00251 108.527 6.89583 107.327 6.26235C106.71 5.93688 105.068 5.87507 97.0293 5.87507C91.7693 5.87507 87.4659 5.81506 87.4659 5.74171C87.4659 5.66861 88.3988 4.39318 89.5394 2.90769L91.6129 0.206781L99.9071 0.298855C107.793 0.386569 108.278 0.41991 109.77 0.975685Z" fill="white"/>
<path d="M142.46 3.04285L140.373 5.85276L136.54 5.86405L132.707 5.87507V13.8257V21.7764H129.565H126.423V13.8257V5.87507H121.501C118.642 5.87507 116.614 5.7771 116.663 5.64117C116.709 5.51242 117.625 4.24288 118.699 2.81998L120.651 0.232685H132.599H144.548L142.46 3.04285Z" fill="white"/>
<path fill-rule="evenodd" clip-rule="evenodd" d="M164.94 0.583027C167.219 1.10956 169.741 2.37371 170.926 3.58324C174.486 7.21514 174.552 14.5803 171.058 18.2417C168.414 21.0116 163.672 22.2454 156.765 21.9597C148.873 21.6335 144.764 19.3337 143.378 14.4661C142.787 12.3931 142.966 8.02918 143.712 6.33159C144.364 4.84713 145.969 3.03131 147.369 2.19444C148.61 1.45247 151.339 0.576358 153.442 0.244996C155.629 -0.0994461 162.913 0.114708 164.94 0.583027ZM149.503 12.3433C148.852 8.87426 150.37 6.42187 153.5 5.88482C155.265 5.58193 161.333 5.57808 162.888 5.87918C166.082 6.49702 167.016 7.65756 167.012 11.0045C167.01 13.8711 166.605 14.659 164.672 15.5669C163.38 16.1735 162.885 16.2471 159.452 16.3438C152.311 16.5448 150.126 15.6662 149.503 12.3433Z" fill="white"/>
<path d="M198.341 0.602519C199.259 0.801028 200.591 1.21856 201.302 1.53044C202.854 2.21188 204.621 4.1126 205.045 5.55807C205.412 6.80889 205.429 9.01404 205.081 10.2928C204.563 12.1961 202.573 14.1345 200.595 14.6623C200.11 14.7916 200.211 14.9568 201.597 16.3035C202.445 17.1273 203.929 18.6954 204.896 19.7887L206.654 21.7764L202.291 21.7617L197.929 21.7474L195.667 18.9552L193.405 16.1629L188.315 16.1486L183.226 16.134V18.9552V21.7764H180.084H176.942V16.2622V10.748L186.682 10.7475C195.451 10.7473 196.509 10.7027 197.301 10.2987C198.981 9.44183 199.174 7.65063 197.707 6.5319C197.041 6.02408 196.617 5.99818 186.954 5.87507L176.896 5.74684L178.963 2.98976L181.031 0.232685L188.852 0.237045C194.602 0.240379 197.114 0.33707 198.341 0.602519Z" fill="white"/>
<path d="M215.649 11.0045V21.7764H212.381H209.114V11.0045V0.232685H212.381H215.649V11.0045Z" fill="white"/>
<path d="M237.586 0.329375C238.031 0.523525 238.734 1.05058 239.149 1.50017C239.563 1.95002 242.85 6.66732 246.451 11.9832L253 21.6481L247.034 21.7169C243.753 21.7546 238.282 21.7546 234.877 21.7169L228.686 21.6481L230.645 18.8751L232.604 16.1022L236.948 16.1822C239.773 16.2342 241.257 16.1724 241.193 16.0057C241.061 15.6613 235.748 7.67038 235.651 7.67038C235.608 7.67038 233.382 10.8442 230.701 14.7234L225.829 21.7764H221.981C218.967 21.7764 218.174 21.7068 218.324 21.4558C219.25 19.908 231.515 2.44014 232.211 1.67791C232.709 1.13265 233.456 0.531219 233.871 0.34143C234.855 -0.108936 236.569 -0.114578 237.586 0.329375Z" fill="white"/>
</svg>
