<svg width="156" height="75" viewBox="0 0 156 75" fill="none" xmlns="http://www.w3.org/2000/svg">
<path d="M70.1487 42.8268L59.5331 43.7499V49.0577L64.8409 48.5962L70.1487 48.1346V45.0224V42.8268Z" fill="#D9D9D9"/>
<path fill-rule="evenodd" clip-rule="evenodd" d="M59.5331 70.2889L54.2253 70.7505V49.5193L59.5331 49.0577V51.2641V54.3655L70.1487 53.4424V48.1346L75.4565 47.6731V68.9043L70.1487 69.3645V58.7502L64.8409 59.2118L59.5331 59.6733V70.2889Z" fill="#D9D9D9"/>
<path d="M54.2253 70.7505L54.065 71.0709L54.1555 71.1162L54.2563 71.1074L54.2253 70.7505ZM59.5331 70.2889L59.5641 70.6459L59.8914 70.6174V70.2889H59.5331ZM70.1487 42.8268H70.507V42.6053L70.3089 42.5063L70.1487 42.8268ZM70.1487 53.4424L70.1797 53.7994L70.507 53.7709V53.4424H70.1487ZM70.1487 58.7502H70.507V58.3594L70.1177 58.3932L70.1487 58.7502ZM75.4565 47.6731H75.8148V47.4515L75.6166 47.3525L75.4565 47.6731ZM75.4565 68.9043L75.4875 69.2612L75.8148 69.2329V68.9043H75.4565ZM59.5331 59.6733L59.502 59.3163L59.1748 59.3448V59.6733H59.5331ZM59.5331 54.3655H59.1748V54.7563L59.5641 54.7225L59.5331 54.3655ZM48.9175 68.0966H48.5592V68.318L48.7572 68.417L48.9175 68.0966ZM64.8409 48.5962L64.8099 48.2392L64.8409 48.5962ZM64.8409 40.1736L65.0011 39.8531L64.9106 39.8079L64.8099 39.8166L64.8409 40.1736ZM48.9175 46.8654L48.8858 46.5084L48.5592 46.5374V46.8654H48.9175ZM54.2253 41.0962L54.1943 40.7393L53.867 40.7677V41.0962H54.2253ZM70.1487 69.3645L69.9885 69.685L70.0789 69.7302L70.1796 69.7215L70.1487 69.3645ZM64.8409 66.7111H64.4826V66.9326L64.6807 67.0316L64.8409 66.7111ZM54.2563 71.1074L59.5641 70.6459L59.502 69.9319L54.1942 70.3935L54.2563 71.1074ZM59.5641 44.1069L70.1797 43.1838L70.1177 42.4698L59.502 43.3929L59.5641 44.1069ZM69.7904 48.1346V53.4424H70.507V48.1346H69.7904ZM70.1797 48.4916L75.4875 48.03L75.4255 47.3161L70.1177 47.7776L70.1797 48.4916ZM59.5641 54.7225L70.1797 53.7994L70.1177 53.0854L59.502 54.0085L59.5641 54.7225ZM48.7572 68.417L54.065 71.0709L54.3855 70.43L49.0777 67.7761L48.7572 68.417ZM69.7904 42.8268V45.0224H70.507V42.8268H69.7904ZM69.7904 45.0224V48.1346H70.507V45.0224H69.7904ZM75.6166 47.3525L70.3088 44.7018L69.9886 45.3429L75.2964 47.9936L75.6166 47.3525ZM70.3089 53.1219L65.0011 50.4681L64.6807 51.1091L69.9885 53.7629L70.3089 53.1219ZM59.5641 49.4147L64.8719 48.9531L64.8099 48.2392L59.502 48.7007L59.5641 49.4147ZM64.8719 48.9531L70.1797 48.4916L70.1177 47.7776L64.8099 48.2392L64.8719 48.9531ZM65.1992 50.7886V48.5962H64.4826V50.7886H65.1992ZM59.8914 54.3655V51.2641H59.1748V54.3655H59.8914ZM59.8914 51.2641V49.0577H59.1748V51.2641H59.8914ZM64.8089 50.4317L59.5011 50.9072L59.5651 51.621L64.8729 51.1455L64.8089 50.4317ZM59.5641 60.0303L64.8719 59.5687L64.8099 58.8548L59.502 59.3163L59.5641 60.0303ZM64.8719 59.5687L70.1797 59.1072L70.1177 58.3932L64.8099 58.8548L64.8719 59.5687ZM70.3089 42.5063L65.0011 39.8531L64.6807 40.4941L69.9885 43.1473L70.3089 42.5063ZM59.1748 59.6733V70.2889H59.8914V59.6733H59.1748ZM59.1748 43.7499V49.0577H59.8914V43.7499H59.1748ZM53.867 49.5193V70.7505H54.5836V49.5193H53.867ZM54.2563 49.8762L59.5641 49.4147L59.502 48.7007L54.1942 49.1623L54.2563 49.8762ZM59.6938 48.7374L54.386 46.0743L54.0646 46.7149L59.3724 49.378L59.6938 48.7374ZM48.5592 46.8654V68.0966H49.2758V46.8654H48.5592ZM54.3855 49.1988L49.0777 46.5449L48.7572 47.1858L54.065 49.8397L54.3855 49.1988ZM54.1936 46.0377L48.8858 46.5084L48.9491 47.2223L54.2569 46.7515L54.1936 46.0377ZM64.8099 39.8166L54.1943 40.7393L54.2563 41.4532L64.8719 40.5305L64.8099 39.8166ZM59.6933 43.4294L54.3855 40.7757L54.0651 41.4167L59.3729 44.0704L59.6933 43.4294ZM53.867 41.0962V46.3946H54.5836V41.0962H53.867ZM75.4255 68.5473L70.1177 69.0076L70.1796 69.7215L75.4875 69.2612L75.4255 68.5473ZM70.507 69.3645V58.7502H69.7904V69.3645H70.507ZM70.3089 69.044L65.0011 66.3906L64.6807 67.0316L69.9885 69.685L70.3089 69.044ZM65.1992 66.7111V59.2118H64.4826V66.7111H65.1992ZM75.0982 47.6731V68.9043H75.8148V47.6731H75.0982Z" fill="#D9D9D9"/>
<path d="M46.2634 44.891L35.6478 45.8141V51.1219L40.9556 50.6604L46.2634 50.1988V47.0866V44.891Z" fill="#D9D9D9"/>
<path fill-rule="evenodd" clip-rule="evenodd" d="M30.34 72.8147L35.6478 72.3531V61.7375L40.9556 61.276L46.2634 60.8144V71.4287L51.5712 70.9685V60.3529L46.2634 60.8144V57.6285V55.5066L51.5712 55.0451V49.7373L46.2634 50.1988V55.5066L35.6478 56.4297V53.4758V51.1219L30.34 51.5835V72.8147Z" fill="#D9D9D9"/>
<path d="M30.34 72.8147L30.1798 73.1351L30.2703 73.1804L30.3711 73.1716L30.34 72.8147ZM35.6478 72.3531L35.6789 72.7101L36.0061 72.6816V72.3531H35.6478ZM46.2634 44.891H46.6218V44.6695L46.4236 44.5705L46.2634 44.891ZM51.5712 55.0451L51.6023 55.402L51.9296 55.3736V55.0451H51.5712ZM51.5712 60.3529H51.9296V60.134L51.7349 60.0341L51.5712 60.3529ZM51.5712 49.7373H51.9296V49.5157L51.7313 49.4167L51.5712 49.7373ZM51.5712 70.9685L51.6022 71.3254L51.9296 71.2971V70.9685H51.5712ZM35.6478 61.7375L35.6168 61.3805L35.2895 61.409V61.7375H35.6478ZM35.6478 56.4297H35.2895V56.8205L35.6789 56.7867L35.6478 56.4297ZM25.0322 70.1608H24.6739V70.3822L24.872 70.4813L25.0322 70.1608ZM40.9556 50.6604L40.9246 50.3034L40.9556 50.6604ZM40.9556 42.2378L41.1158 41.9173L41.0254 41.8721L40.9246 41.8808L40.9556 42.2378ZM25.0322 48.9296L25.0006 48.5727L24.6739 48.6016V48.9296H25.0322ZM30.34 43.1604L30.309 42.8035L29.9817 42.8319V43.1604H30.34ZM46.2634 71.4287L46.1032 71.7492L46.1937 71.7945L46.2944 71.7857L46.2634 71.4287ZM40.9556 68.7753H40.5973V68.9968L40.7954 69.0958L40.9556 68.7753ZM30.3711 73.1716L35.6789 72.7101L35.6168 71.9962L30.309 72.4577L30.3711 73.1716ZM35.6789 46.1711L46.2945 45.248L46.2324 44.534L35.6168 45.4571L35.6789 46.1711ZM45.9051 50.1988V55.5066H46.6218V50.1988H45.9051ZM46.2945 55.8636L51.6023 55.402L51.5402 54.6881L46.2324 55.1497L46.2945 55.8636ZM46.2945 61.1714L51.6023 60.7098L51.5402 59.9959L46.2324 60.4575L46.2945 61.1714ZM51.2129 49.7373V55.0451H51.9296V49.7373H51.2129ZM46.2945 50.5558L51.6023 50.0942L51.5402 49.3803L46.2324 49.8418L46.2945 50.5558ZM51.2129 60.3529V70.9685H51.9296V60.3529H51.2129ZM35.6789 56.7867L46.2945 55.8636L46.2324 55.1497L35.6168 56.0727L35.6789 56.7867ZM24.872 70.4813L30.1798 73.1351L30.5003 72.4942L25.1925 69.8403L24.872 70.4813ZM45.9051 55.5066V57.6285H46.6218V55.5066H45.9051ZM45.9051 57.6285V60.8144H46.6218V57.6285H45.9051ZM51.7349 60.0341L46.4271 57.3097L46.0998 57.9472L51.4076 60.6716L51.7349 60.0341ZM45.9051 44.891V47.0866H46.6218V44.891H45.9051ZM45.9051 47.0866V50.1988H46.6218V47.0866H45.9051ZM51.7313 49.4167L46.4235 46.766L46.1034 47.4071L51.4112 50.0578L51.7313 49.4167ZM46.4237 55.1861L41.1159 52.5323L40.7954 53.1733L46.1032 55.8271L46.4237 55.1861ZM35.6789 51.4789L40.9867 51.0173L40.9246 50.3034L35.6168 50.7649L35.6789 51.4789ZM40.9867 51.0173L46.2945 50.5558L46.2324 49.8418L40.9246 50.3034L40.9867 51.0173ZM41.3139 52.8528V50.6604H40.5973V52.8528H41.3139ZM36.0061 56.4297V53.4758H35.2895V56.4297H36.0061ZM36.0061 53.4758V51.1219H35.2895V53.4758H36.0061ZM40.9139 52.497L35.6061 53.1199L35.6896 53.8316L40.9974 53.2087L40.9139 52.497ZM35.6789 62.0945L40.9867 61.6329L40.9246 60.919L35.6168 61.3805L35.6789 62.0945ZM40.9867 61.6329L46.2945 61.1714L46.2324 60.4575L40.9246 60.919L40.9867 61.6329ZM46.4236 44.5705L41.1158 41.9173L40.7954 42.5583L46.1032 45.2115L46.4236 44.5705ZM35.2895 61.7375V72.3531H36.0061V61.7375H35.2895ZM35.2895 45.8141V51.1219H36.0061V45.8141H35.2895ZM29.9817 51.5835V72.8147H30.6983V51.5835H29.9817ZM30.3711 51.9404L35.6789 51.4789L35.6168 50.7649L30.309 51.2265L30.3711 51.9404ZM35.8085 50.8016L30.5007 48.1386L30.1793 48.7791L35.4871 51.4422L35.8085 50.8016ZM24.6739 48.9296V70.1608H25.3905V48.9296H24.6739ZM30.5003 51.263L25.1925 48.6091L24.872 49.25L30.1798 51.9039L30.5003 51.263ZM30.3084 48.1019L25.0006 48.5727L25.0639 49.2865L30.3717 48.8157L30.3084 48.1019ZM40.9246 41.8808L30.309 42.8035L30.3711 43.5174L40.9867 42.5948L40.9246 41.8808ZM35.8081 45.4936L30.5003 42.8399L30.1798 43.4809L35.4876 46.1346L35.8081 45.4936ZM29.9817 43.1604V48.4588H30.6983V43.1604H29.9817ZM51.5403 70.6115L46.2325 71.0718L46.2944 71.7857L51.6022 71.3254L51.5403 70.6115ZM46.6218 71.4287V60.8144H45.9051V71.4287H46.6218ZM46.4237 71.1083L41.1159 68.4548L40.7954 69.0958L46.1032 71.7492L46.4237 71.1083ZM41.3139 68.7753V61.276H40.5973V68.7753H41.3139Z" fill="#D9D9D9"/>
<path fill-rule="evenodd" clip-rule="evenodd" d="M27.539 52.0391V46.7313L6.3078 48.5775V53.8853L8.96171 53.6545L14.2695 53.1929V74.4242L19.5773 73.9626V52.7314L27.539 52.0391Z" fill="#D9D9D9"/>
<path d="M6.3078 53.8853L6.14756 54.2057L6.23805 54.251L6.33884 54.2422L6.3078 53.8853ZM27.539 46.7313H27.8973V46.5097L27.6991 46.4107L27.539 46.7313ZM27.539 52.0391L27.5701 52.396L27.8973 52.3676V52.0391H27.539ZM14.2695 53.1929H14.6278V52.8021L14.2385 52.836L14.2695 53.1929ZM14.2695 74.4242L14.1092 74.7446L14.1997 74.7899L14.3005 74.7811L14.2695 74.4242ZM19.5773 52.7314L19.5463 52.3744L19.219 52.4029V52.7314H19.5773ZM19.5773 73.9626L19.6084 74.3196L19.9356 74.2911V73.9626H19.5773ZM8.96171 71.7696H8.60339V71.991L8.80143 72.0901L8.96171 71.7696ZM1 45.9236L0.969013 45.5666L0.641689 45.595V45.9236H1ZM1 51.2314H0.641689V51.4528L0.839758 51.5518L1 51.2314ZM22.2312 44.0806L22.3913 43.76L22.3009 43.7149L22.2002 43.7236L22.2312 44.0806ZM6.33884 48.9344L27.5701 47.0882L27.508 46.3743L6.27676 48.2205L6.33884 48.9344ZM27.1807 46.7313V52.0391H27.8973V46.7313H27.1807ZM5.94949 48.5775V53.8853H6.66611V48.5775H5.94949ZM13.9112 53.1929V74.4242H14.6278V53.1929H13.9112ZM19.6084 53.0884L27.5701 52.396L27.508 51.6821L19.5463 52.3744L19.6084 53.0884ZM14.3005 74.7811L19.6084 74.3196L19.5463 73.6056L14.2385 74.0672L14.3005 74.7811ZM19.219 52.7314V73.9626H19.9356V52.7314H19.219ZM14.4298 74.1037L9.12198 71.4491L8.80143 72.0901L14.1092 74.7446L14.4298 74.1037ZM6.33884 54.2422L8.99275 54.0115L8.93067 53.2975L6.27676 53.5283L6.33884 54.2422ZM8.99275 54.0115L14.3005 53.5499L14.2385 52.836L8.93067 53.2975L8.99275 54.0115ZM9.32002 71.7696V53.6545H8.60339V71.7696H9.32002ZM6.46805 48.257L1.16024 45.6031L0.839758 46.244L6.14756 48.8979L6.46805 48.257ZM0.641689 45.9236V51.2314H1.35831V45.9236H0.641689ZM6.46805 53.5648L1.16024 50.9109L0.839758 51.5518L6.14756 54.2057L6.46805 53.5648ZM27.6991 46.4107L22.3913 43.76L22.0711 44.4011L27.3789 47.0518L27.6991 46.4107ZM22.2002 43.7236L0.969013 45.5666L1.03099 46.2805L22.2622 44.4375L22.2002 43.7236Z" fill="#D9D9D9"/>
<path fill-rule="evenodd" clip-rule="evenodd" d="M83.4183 68.2247L78.1105 68.6862V42.1472L83.4183 41.6857L94.0339 40.7626V42.9582V46.0704L88.7261 46.5319L83.4183 46.9935V59.7992V62.9169L94.0339 61.9938V67.3016L83.4183 68.2247ZM99.3418 45.6088V61.5323L94.0339 61.9938V46.0704L99.3418 45.6088Z" fill="#D9D9D9"/>
<path d="M78.1105 68.6862L77.9503 69.0067L78.0408 69.052L78.1416 69.0432L78.1105 68.6862ZM83.4183 41.6857L83.4494 42.0427L83.4183 41.6857ZM94.0339 40.7626H94.3923V40.5411L94.1942 40.4421L94.0339 40.7626ZM94.0339 67.3016L94.065 67.6586L94.3923 67.6301V67.3016H94.0339ZM99.3418 45.6088H99.7001V45.3873L99.5018 45.2883L99.3418 45.6088ZM99.3418 61.5323L99.3728 61.8892L99.7001 61.8608V61.5323H99.3418ZM83.4183 62.9169H83.06V63.3077L83.4494 63.2739L83.4183 62.9169ZM83.4183 46.9935L83.3873 46.6365L83.06 46.665V46.9935H83.4183ZM72.8027 39.4933L72.7717 39.1364L72.4444 39.1648V39.4933H72.8027ZM72.8027 66.0324H72.4444V66.2538L72.6425 66.3528L72.8027 66.0324ZM88.7261 46.5319L88.6951 46.175L88.7261 46.5319ZM88.7261 38.1094L88.8864 37.7889L88.7959 37.7437L88.6951 37.7524L88.7261 38.1094ZM78.1416 69.0432L83.4494 68.5817L83.3873 67.8677L78.0795 68.3293L78.1416 69.0432ZM78.1416 42.5042L83.4494 42.0427L83.3873 41.3287L78.0795 41.7903L78.1416 42.5042ZM83.4494 42.0427L94.065 41.1196L94.0029 40.4056L83.3873 41.3287L83.4494 42.0427ZM83.4494 68.5817L94.065 67.6586L94.0029 66.9446L83.3873 67.8677L83.4494 68.5817ZM93.6756 61.9938V67.3016H94.3923V61.9938H93.6756ZM94.065 46.4274L99.3728 45.9658L99.3107 45.2519L94.0029 45.7134L94.065 46.4274ZM94.065 62.3508L99.3728 61.8892L99.3107 61.1753L94.0029 61.6368L94.065 62.3508ZM83.4494 63.2739L94.065 62.3508L94.0029 61.6368L83.3873 62.5599L83.4494 63.2739ZM78.2708 41.8268L72.963 39.1729L72.6425 39.8138L77.9503 42.4677L78.2708 41.8268ZM72.4444 39.4933V66.0324H73.161V39.4933H72.4444ZM72.6425 66.3528L77.9503 69.0067L78.2708 68.3658L72.963 65.7119L72.6425 66.3528ZM93.6756 40.7626V42.9582H94.3923V40.7626H93.6756ZM93.6756 42.9582V46.0704H94.3923V42.9582H93.6756ZM99.5018 45.2883L94.194 42.6376L93.8739 43.2787L99.1817 45.9294L99.5018 45.2883ZM83.4494 47.3505L88.7572 46.8889L88.6951 46.175L83.3873 46.6365L83.4494 47.3505ZM88.7572 46.8889L94.065 46.4274L94.0029 45.7134L88.6951 46.175L88.7572 46.8889ZM94.1943 61.6734L88.8865 59.0173L88.5658 59.6581L93.8736 62.3142L94.1943 61.6734ZM94.1942 40.4421L88.8864 37.7889L88.5659 38.4299L93.8737 41.0831L94.1942 40.4421ZM88.6951 37.7524L72.7717 39.1364L72.8338 39.8503L88.7572 38.4663L88.6951 37.7524ZM93.6756 46.0704V61.9938H94.3923V46.0704H93.6756ZM98.9834 45.6088V61.5323H99.7001V45.6088H98.9834ZM88.3678 46.5319V59.3377H89.0845V46.5319H88.3678ZM83.7767 62.9169V46.9935H83.06V62.9169H83.7767ZM88.6951 58.9807L83.3873 59.4422L83.4494 60.1561L88.7572 59.6947L88.6951 58.9807ZM78.4688 68.6862V42.1472H77.7522V68.6862H78.4688ZM83.7767 59.7992V46.9935H83.06V59.7992H83.7767ZM83.7767 62.9169V59.7992H83.06V62.9169H83.7767Z" fill="#D9D9D9"/>
<path fill-rule="evenodd" clip-rule="evenodd" d="M107.304 66.1229L101.996 66.5844V40.0454L107.304 39.5838V66.1229Z" fill="#D9D9D9"/>
<path d="M101.996 40.0454L107.304 39.5838M101.996 40.0454L96.688 37.3915M101.996 40.0454V66.5844M101.996 66.5844L107.304 66.1229V39.5838M101.996 66.5844L96.688 63.9305V37.3915M107.304 39.5838L101.996 36.93L96.688 37.3915" stroke="#D9D9D9" stroke-width="0.716622"/>
<path fill-rule="evenodd" clip-rule="evenodd" d="M149.766 62.731V57.4232L155.074 56.9617V46.3493L149.766 46.7916V57.4232L139.15 58.3463V55.2286V42.4229L149.766 41.4998V36.192L133.842 37.5767V64.1157L149.766 62.731Z" fill="#D9D9D9"/>
<path d="M133.842 37.5767L128.535 34.9228M133.842 37.5767V64.1157M133.842 37.5767L149.766 36.192M133.842 64.1157L128.535 61.4618V34.9228M133.842 64.1157L149.766 62.731V57.4232M149.766 36.192L144.458 33.5388L128.535 34.9228M149.766 36.192V41.4998L139.15 42.4229M149.766 57.4232L155.074 56.9617V46.3493M149.766 57.4232L139.15 58.3463M149.766 57.4232L144.458 54.7671M149.766 57.4232V46.7916M139.15 58.3463V42.4229M139.15 58.3463V55.2286M139.15 42.4229V55.2286M144.458 54.7671L139.15 55.2286M144.458 54.7671V44.1576M155.074 46.3493L149.766 43.6954L144.458 44.1576M155.074 46.3493L149.766 46.7916M149.766 46.7916L144.458 44.1576" stroke="#D9D9D9" stroke-width="0.716622"/>
<path fill-rule="evenodd" clip-rule="evenodd" d="M115.265 65.4234L109.957 65.885V44.6538L115.265 44.1922V65.4234ZM125.881 40.1569V37.9613L115.265 38.8844V44.1922L120.573 43.7307L125.881 43.2691V64.4991L131.188 64.0388V42.8076L125.881 43.2691V40.1569Z" fill="#D9D9D9"/>
<path d="M109.957 65.885L109.797 66.2055L109.887 66.2507L109.988 66.2419L109.957 65.885ZM115.265 65.4234L115.296 65.7804L115.623 65.7519V65.4234H115.265ZM125.881 37.9613H126.239V37.7398L126.041 37.6408L125.881 37.9613ZM131.188 42.8076H131.547V42.586L131.349 42.487L131.188 42.8076ZM131.188 64.0388L131.219 64.3958L131.547 64.3674V64.0388H131.188ZM104.649 63.2311H104.291V63.4525L104.489 63.5516L104.649 63.2311ZM120.573 43.7307L120.542 43.3737L120.573 43.7307ZM120.573 35.3081L120.733 34.9876L120.643 34.9424L120.542 34.9511L120.573 35.3081ZM104.649 41.9999L104.618 41.643L104.291 41.6719V41.9999H104.649ZM109.957 36.2308L109.926 35.8738L109.599 35.9022V36.2308H109.957ZM125.881 64.4991L125.72 64.8196L125.811 64.8648L125.912 64.856L125.881 64.4991ZM120.573 61.8456H120.215V62.0671L120.413 62.1661L120.573 61.8456ZM109.988 66.2419L115.296 65.7804L115.234 65.0665L109.926 65.528L109.988 66.2419ZM115.296 39.2414L125.912 38.3183L125.85 37.6044L115.234 38.5275L115.296 39.2414ZM125.912 43.6261L131.219 43.1645L131.157 42.4506L125.85 42.9122L125.912 43.6261ZM104.489 63.5516L109.797 66.2055L110.117 65.5645L104.81 62.9106L104.489 63.5516ZM125.522 37.9613V40.1569H126.239V37.9613H125.522ZM125.522 40.1569V43.2691H126.239V40.1569H125.522ZM131.349 42.487L126.041 39.8363L125.721 40.4774L131.028 43.1281L131.349 42.487ZM115.296 44.5492L120.604 44.0876L120.542 43.3737L115.234 43.8353L115.296 44.5492ZM120.604 44.0876L125.912 43.6261L125.85 42.9122L120.542 43.3737L120.604 44.0876ZM126.041 37.6408L120.733 34.9876L120.413 35.6286L125.72 38.2818L126.041 37.6408ZM114.907 44.1922V65.4234H115.623V44.1922H114.907ZM114.907 38.8844V44.1922H115.623V38.8844H114.907ZM109.599 44.6538V65.885H110.316V44.6538H109.599ZM109.988 45.0107L115.296 44.5492L115.234 43.8353L109.926 44.2968L109.988 45.0107ZM115.426 43.872L110.118 41.2089L109.797 41.8494L115.104 44.5125L115.426 43.872ZM104.291 41.9999V63.2311H105.008V41.9999H104.291ZM110.117 44.3333L104.81 41.6794L104.489 42.3204L109.797 44.9743L110.117 44.3333ZM109.926 41.1722L104.618 41.643L104.681 42.3568L109.989 41.886L109.926 41.1722ZM120.542 34.9511L109.926 35.8738L109.988 36.5877L120.604 35.6651L120.542 34.9511ZM115.425 38.5639L110.117 35.9103L109.797 36.5512L115.105 39.2049L115.425 38.5639ZM109.599 36.2308V41.5291H110.316V36.2308H109.599ZM131.157 63.6818L125.85 64.1421L125.912 64.856L131.219 64.3958L131.157 63.6818ZM126.041 64.1786L120.733 61.5251L120.413 62.1661L125.72 64.8196L126.041 64.1786ZM130.83 42.8076V64.0388H131.547V42.8076H130.83ZM126.239 64.4991V43.2691H125.522V64.4991H126.239ZM120.931 61.8456V43.7307H120.215V61.8456H120.931Z" fill="#D9D9D9"/>
<path fill-rule="evenodd" clip-rule="evenodd" d="M83.2714 31.0133L77.9636 31.4749V4.93584L99.1948 3.09287V8.39745L83.2714 9.7821V11.9885V15.0899L93.887 14.1668V19.4746L83.2714 20.3977V22.604V25.7055L99.1948 24.3209V29.6319L93.887 30.0902L83.2714 31.0133Z" fill="#D9D9D9"/>
<path d="M77.9636 4.93584L72.6558 2.28195M77.9636 4.93584L99.1948 3.09287M77.9636 4.93584V31.4749M77.9636 31.4749L83.2714 31.0133L93.887 30.0902L99.1948 29.6319V24.3209M77.9636 31.4749L72.6558 28.821V2.28195M93.887 14.1668L83.2714 15.0899V11.9885M93.887 14.1668L88.5792 11.5264L83.2714 11.9885M93.887 14.1668V19.4746L83.2714 20.3977V22.604M99.1948 24.3209L83.2714 25.7055V22.604M99.1948 24.3209L93.887 21.6702L83.2714 22.604M72.6558 2.28195L93.887 0.438965L99.1948 3.09287M83.2714 11.9885V9.7821L99.1948 8.39745V3.09287" stroke="#D9D9D9" stroke-width="0.716622"/>
<path fill-rule="evenodd" clip-rule="evenodd" d="M75.3095 10.6826V5.37482L54.0783 7.22101V12.5288L56.7322 12.298L62.04 11.8365V33.0677L67.3478 32.6062V11.3749L75.3095 10.6826Z" fill="#D9D9D9"/>
<path d="M54.0783 12.5288L53.9181 12.8493L54.0086 12.8945L54.1094 12.8858L54.0783 12.5288ZM75.3095 5.37482H75.6678V5.15325L75.4696 5.05426L75.3095 5.37482ZM75.3095 10.6826L75.3406 11.0396L75.6678 11.0111V10.6826H75.3095ZM62.04 11.8365H62.3983V11.4457L62.009 11.4795L62.04 11.8365ZM62.04 33.0677L61.8797 33.3882L61.9702 33.4334L62.0711 33.4247L62.04 33.0677ZM67.3478 11.3749L67.3168 11.018L66.9895 11.0464V11.3749H67.3478ZM67.3478 32.6062L67.3789 32.9631L67.7061 32.9347V32.6062H67.3478ZM56.7322 30.4132H56.3739V30.6346L56.5719 30.7336L56.7322 30.4132ZM48.7705 4.56711L48.7395 4.21014L48.4122 4.23855V4.56711H48.7705ZM48.7705 9.87491H48.4122V10.0964L48.6103 10.1954L48.7705 9.87491ZM70.0017 2.72412L70.1618 2.40356L70.0714 2.35841L69.9707 2.36715L70.0017 2.72412ZM54.1094 7.57798L75.3406 5.73178L75.2785 5.01786L54.0473 6.86405L54.1094 7.57798ZM74.9512 5.37482V10.6826H75.6678V5.37482H74.9512ZM53.72 7.22101V12.5288H54.4366V7.22101H53.72ZM61.6817 11.8365V33.0677H62.3983V11.8365H61.6817ZM67.3789 11.7319L75.3406 11.0396L75.2785 10.3257L67.3168 11.018L67.3789 11.7319ZM62.0711 33.4247L67.3789 32.9631L67.3168 32.2492L62.009 32.7107L62.0711 33.4247ZM66.9895 11.3749V32.6062H67.7061V11.3749H66.9895ZM62.2003 32.7472L56.8925 30.0927L56.5719 30.7336L61.8797 33.3882L62.2003 32.7472ZM54.1094 12.8858L56.7633 12.655L56.7012 11.9411L54.0473 12.1719L54.1094 12.8858ZM56.7633 12.655L62.0711 12.1935L62.009 11.4795L56.7012 11.9411L56.7633 12.655ZM57.0905 30.4132V12.298H56.3739V30.4132H57.0905ZM54.2386 6.90053L48.9307 4.24663L48.6103 4.88759L53.9181 7.54149L54.2386 6.90053ZM48.4122 4.56711V9.87491H49.1288V4.56711H48.4122ZM54.2386 12.2083L48.9307 9.55443L48.6103 10.1954L53.9181 12.8493L54.2386 12.2083ZM75.4696 5.05426L70.1618 2.40356L69.8416 3.04468L75.1494 5.69538L75.4696 5.05426ZM69.9707 2.36715L48.7395 4.21014L48.8015 4.92408L70.0327 3.08109L69.9707 2.36715Z" fill="#D9D9D9"/>
<path fill-rule="evenodd" clip-rule="evenodd" d="M35.5004 8.8974V16.3952V19.513L46.116 18.5899V7.97431L51.4238 7.51276V23.4362L43.4621 24.1285V34.7441L38.1543 35.2056V24.59L32.8465 25.0516L30.1926 25.2824V16.8631V9.35895L35.5004 8.8974Z" fill="#D9D9D9"/>
<path d="M30.1926 25.2824L30.0323 25.6028L30.1228 25.6481L30.2236 25.6393L30.1926 25.2824ZM24.8848 6.70505L24.854 6.34806L24.5265 6.37628V6.70505H24.8848ZM35.5004 8.8974H35.8587V8.67579L35.6604 8.57682L35.5004 8.8974ZM35.5004 19.513H35.1421V19.9038L35.5314 19.87L35.5004 19.513ZM46.116 18.5899L46.147 18.9469L46.4743 18.9184V18.5899H46.116ZM51.4238 7.51276H51.7821V7.29119L51.5839 7.1922L51.4238 7.51276ZM51.4238 23.4362L51.4548 23.7931L51.7821 23.7647V23.4362H51.4238ZM38.1543 24.59L38.1232 24.2331H38.1232L38.1543 24.59ZM38.1543 35.2056L37.9941 35.5262L38.0846 35.5714L38.1853 35.5626L38.1543 35.2056ZM43.4621 34.7441L43.4931 35.1011L43.8204 35.0726V34.7441H43.4621ZM24.8848 22.6285H24.5265V22.8499L24.7245 22.9489L24.8848 22.6285ZM32.8465 32.554H32.4882V32.7756L32.6863 32.8746L32.8465 32.554ZM40.8082 5.31914L40.7774 4.96215L40.4499 4.99035V5.31914H40.8082ZM30.1926 6.24776L30.3526 5.92717L30.2623 5.88211L30.1618 5.89077L30.1926 6.24776ZM46.116 4.86206L46.2761 4.5415L46.1858 4.49641L46.0852 4.50507L46.116 4.86206ZM24.7245 7.02553L30.0323 9.67943L30.3528 9.03847L25.045 6.38456L24.7245 7.02553ZM30.2236 9.71591L35.5314 9.25437L35.4693 8.54044L30.1615 9.00199L30.2236 9.71591ZM35.1421 8.8974V19.513H35.8587V8.8974H35.1421ZM35.5314 19.87L46.147 18.9469L46.0849 18.2329L35.4693 19.156L35.5314 19.87ZM45.7577 7.97431V18.5899H46.4743V7.97431H45.7577ZM46.147 8.33127L51.4548 7.86972L51.3927 7.15579L46.0849 7.61734L46.147 8.33127ZM51.0655 7.51276V23.4362H51.7821V7.51276H51.0655ZM37.796 24.59V35.2056H38.5126V24.59H37.796ZM38.1853 24.947L43.4931 24.4855L43.431 23.7715L38.1232 24.2331L38.1853 24.947ZM43.4931 24.4855L51.4548 23.7931L51.3927 23.0792L43.431 23.7715L43.4931 24.4855ZM38.1853 35.5626L43.4931 35.1011L43.431 34.3871L38.1232 34.8487L38.1853 35.5626ZM43.1038 24.1285V34.7441H43.8204V24.1285H43.1038ZM30.3528 24.9619L25.045 22.308L24.7245 22.9489L30.0323 25.6028L30.3528 24.9619ZM25.2431 22.6285V6.70505H24.5265V22.6285H25.2431ZM38.3144 34.8851L33.0066 32.2335L32.6863 32.8746L37.9941 35.5262L38.3144 34.8851ZM30.2236 25.6393L32.8775 25.4085L32.8154 24.6946L30.1615 24.9254L30.2236 25.6393ZM32.8775 25.4085L38.1853 24.947L38.1232 24.2331L32.8154 24.6946L32.8775 25.4085ZM33.2048 32.554V25.0516H32.4882V32.554H33.2048ZM46.2766 18.2696L40.9688 15.6071L40.6475 16.2476L45.9553 18.9102L46.2766 18.2696ZM46.2763 7.65385L40.9685 4.99868L40.6479 5.63959L45.9557 8.29476L46.2763 7.65385ZM40.4499 5.31914V15.9274H41.1665V5.31914H40.4499ZM35.6604 8.57682L30.3526 5.92717L30.0325 6.56834L35.3403 9.21799L35.6604 8.57682ZM51.5839 7.1922L46.2761 4.5415L45.9559 5.18262L51.2637 7.83332L51.5839 7.1922ZM46.0852 4.50507L40.7774 4.96215L40.8389 5.67613L46.1467 5.21905L46.0852 4.50507ZM30.1618 5.89077L24.854 6.34806L24.9155 7.06204L30.2233 6.60474L30.1618 5.89077ZM29.8343 9.35895V16.8631H30.5509V9.35895H29.8343ZM29.8343 16.8631V25.2824H30.5509V16.8631H29.8343ZM40.7767 15.5704L35.4689 16.0383L35.5318 16.7522L40.8396 16.2843L40.7767 15.5704ZM35.1421 8.8974V16.3952H35.8587V8.8974H35.1421ZM35.1421 16.3952V19.513H35.8587V16.3952H35.1421Z" fill="#D9D9D9"/>
<path d="M6.3078 11.48V38.019L11.6156 37.5575L22.2312 36.6344V31.3266L11.6156 32.2497V29.3201V26.9419L16.9234 26.4803L22.2312 26.0188V22.8328V20.711L11.6156 21.6341V18.6801V16.3263L16.9234 15.8647L22.2312 15.4032V12.2909V10.0954L11.6156 11.0185L6.3078 11.48Z" fill="#D9D9D9"/>
<path d="M22.2312 15.4032V20.711L27.539 20.2494V14.9416L22.2312 15.4032Z" fill="#D9D9D9"/>
<path d="M22.2312 26.0188V31.3266L27.539 30.865V25.5572L22.2312 26.0188Z" fill="#D9D9D9"/>
<path d="M6.3078 38.019L6.14756 38.3395L6.23805 38.3847L6.33884 38.376L6.3078 38.019ZM11.6156 11.0185L11.6466 11.3754L11.6156 11.0185ZM22.2312 10.0954H22.5895V9.87388L22.3914 9.77486L22.2312 10.0954ZM22.2312 36.6344L22.2623 36.9913L22.5895 36.9629V36.6344H22.2312ZM27.539 20.2494L27.5701 20.6064L27.8973 20.5779V20.2494H27.539ZM27.539 25.5572H27.8973V25.3384L27.7026 25.2384L27.539 25.5572ZM27.539 14.9416H27.8973V14.72L27.6991 14.621L27.539 14.9416ZM27.539 30.865L27.5701 31.222L27.8973 31.1935V30.865H27.539ZM11.6156 26.9419L11.5846 26.5849L11.2573 26.6134V26.9419H11.6156ZM11.6156 32.2497H11.2573V32.6405L11.6466 32.6066L11.6156 32.2497ZM11.6156 21.6341H11.2573V22.0249L11.6466 21.991L11.6156 21.6341ZM11.6156 16.3263L11.5846 15.9693L11.2573 15.9977V16.3263H11.6156ZM1 8.82611L0.968975 8.46914L0.641689 8.49759V8.82611H1ZM1 35.3651H0.641689V35.5866L0.839759 35.6856L1 35.3651ZM16.9234 15.8647L16.8924 15.5077L16.9234 15.8647ZM16.9234 7.44214L17.0836 7.12164L16.9931 7.07642L16.8924 7.08517L16.9234 7.44214ZM5.94949 11.48V38.019H6.66611V11.48H5.94949ZM6.33884 38.376L11.6466 37.9144L11.5846 37.2005L6.27676 37.662L6.33884 38.376ZM6.33884 11.837L11.6466 11.3754L11.5846 10.6615L6.27676 11.123L6.33884 11.837ZM11.6466 11.3754L22.2623 10.4523L22.2002 9.73839L11.5846 10.6615L11.6466 11.3754ZM11.6466 37.9144L22.2623 36.9913L22.2002 36.2774L11.5846 37.2005L11.6466 37.9144ZM21.8729 31.3266V36.6344H22.5895V31.3266H21.8729ZM21.8729 15.4032V20.711H22.5895V15.4032H21.8729ZM22.2623 21.0679L27.5701 20.6064L27.508 19.8924L22.2002 20.354L22.2623 21.0679ZM21.8729 26.0188V31.3266H22.5895V26.0188H21.8729ZM22.2623 26.3757L27.5701 25.9142L27.508 25.2003L22.2002 25.6618L22.2623 26.3757ZM27.1807 14.9416V20.2494H27.8973V14.9416H27.1807ZM22.2623 15.7601L27.5701 15.2986L27.508 14.5846L22.2002 15.0462L22.2623 15.7601ZM27.1807 25.5572V30.865H27.8973V25.5572H27.1807ZM22.2623 31.6835L27.5701 31.222L27.508 30.5081L22.2002 30.9696L22.2623 31.6835ZM11.6466 21.991L22.2623 21.0679L22.2002 20.354L11.5846 21.2771L11.6466 21.991ZM11.6466 32.6066L22.2623 31.6835L22.2002 30.9696L11.5846 31.8927L11.6466 32.6066ZM6.46804 11.1595L1.16024 8.50562L0.839759 9.14659L6.14756 11.8005L6.46804 11.1595ZM0.641689 8.82611V35.3651H1.35831V8.82611H0.641689ZM0.839759 35.6856L6.14756 38.3395L6.46804 37.6985L1.16024 35.0446L0.839759 35.6856ZM21.8729 20.711V22.8328H22.5895V20.711H21.8729ZM21.8729 22.8328V26.0188H22.5895V22.8328H21.8729ZM27.7026 25.2384L22.3948 22.514L22.0676 23.1516L27.3754 25.876L27.7026 25.2384ZM21.8729 10.0954V12.2909H22.5895V10.0954H21.8729ZM21.8729 12.2909V15.4032H22.5895V12.2909H21.8729ZM27.6991 14.621L22.3913 11.9704L22.0711 12.6115L27.3789 15.2622L27.6991 14.621ZM22.3915 20.3905L17.0836 17.7367L16.7632 18.3777L22.071 21.0314L22.3915 20.3905ZM11.6466 16.6832L16.9545 16.2217L16.8924 15.5077L11.5846 15.9693L11.6466 16.6832ZM16.9545 16.2217L22.2623 15.7601L22.2002 15.0462L16.8924 15.5077L16.9545 16.2217ZM17.2817 18.0572V15.8647H16.5651V18.0572H17.2817ZM11.9739 21.6341V18.6801H11.2573V21.6341H11.9739ZM11.9739 18.6801V16.3263H11.2573V18.6801H11.9739ZM16.8816 17.7013L11.5738 18.3242L11.6574 19.036L16.9652 18.413L16.8816 17.7013ZM22.3916 31.0061L17.0838 28.35L16.7631 28.9909L22.0709 31.647L22.3916 31.0061ZM11.6466 27.2988L16.9545 26.8373L16.8924 26.1233L11.5846 26.5849L11.6466 27.2988ZM16.9545 26.8373L22.2623 26.3757L22.2002 25.6618L16.8924 26.1233L16.9545 26.8373ZM17.2817 28.6705V26.4803H16.5651V28.6705H17.2817ZM11.9739 32.2497V29.3201H11.2573V32.2497H11.9739ZM11.9739 29.3201V26.9419H11.2573V29.3201H11.9739ZM16.8799 28.3148L11.5721 28.9645L11.6591 29.6758L16.9669 29.0261L16.8799 28.3148ZM22.3914 9.77486L17.0836 7.12164L16.7632 7.76264L22.071 10.4159L22.3914 9.77486ZM16.8924 7.08517L0.968975 8.46914L1.03103 9.18307L16.9544 7.7991L16.8924 7.08517Z" fill="#D9D9D9"/>
</svg>
