<svg width="252" height="45" viewBox="0 0 252 45" fill="none" xmlns="http://www.w3.org/2000/svg">
<path d="M27.8945 13.3348L21.2166 28.9908C21.053 29.3849 20.6274 29.7073 20.2673 29.7073H9.28494C9.23583 29.7073 9.18673 29.7252 9.12127 29.7431L0.741251 33.469C0.201132 33.7019 -0.158947 33.3615 0.0701948 32.8241L12.1328 4.52158C12.2474 4.25289 12.4929 4.0021 12.7712 3.87672L20.7911 0.312019C21.3312 0.07915 21.6913 0.419497 21.4621 0.956887L16.6502 12.26C16.5683 12.457 16.6502 12.6183 16.8302 12.6183H27.5671C27.9108 12.6362 28.0581 12.9586 27.8945 13.3348ZM18.6962 15.8426H15.439C15.2589 15.8426 15.0463 16.0038 14.9644 16.2009L10.7253 26.1604C10.6434 26.3576 10.7253 26.5188 10.9053 26.5188H14.1623C14.3424 26.5188 14.5552 26.3576 14.637 26.1604L18.8761 16.2009C18.958 15.9859 18.8761 15.8426 18.6962 15.8426Z" fill="#D9D9D9"/>
<path d="M49.0901 13.3348L42.4123 28.9908C42.2486 29.3849 41.8231 29.7073 41.463 29.7073H23.2627C22.9026 29.7073 22.7552 29.3849 22.919 28.9908L26.4051 20.8045C26.5689 20.4104 26.9943 20.088 27.3544 20.088H38.0913C38.2714 20.088 38.4841 19.9268 38.566 19.7297L40.0881 16.1651C40.17 15.968 40.0881 15.8068 39.9081 15.8068H36.651C36.471 15.8068 36.2582 15.968 36.1763 16.1651L35.5707 17.5802C35.489 17.7773 35.2762 17.9385 35.0962 17.9385H28.2711C27.911 17.9385 27.7636 17.6159 27.9273 17.222L29.5803 13.3348C29.7441 12.9407 30.1696 12.6183 30.5297 12.6183H48.7463C49.1064 12.6362 49.2702 12.9586 49.0901 13.3348ZM36.7165 23.3123H33.4594C33.2794 23.3123 33.0666 23.4735 32.9847 23.6706L31.921 26.1606C31.8391 26.3576 31.921 26.5188 32.1009 26.5188H35.358C35.538 26.5188 35.7508 26.3576 35.8327 26.1606L36.8965 23.6706C36.9784 23.4735 36.8965 23.3123 36.7165 23.3123Z" fill="#D9D9D9"/>
<path d="M70.2855 13.3348L63.6077 28.9908C63.444 29.3849 63.0186 29.7073 62.6585 29.7073H55.9314C55.6696 29.7073 55.5059 29.5461 55.5223 29.2774L55.6696 21.6286C55.6696 21.2703 55.1459 21.3957 54.9822 21.7719L51.9051 28.9908C51.7415 29.3849 51.316 29.7073 50.9559 29.7073H44.458C44.0979 29.7073 43.9506 29.3849 44.1144 28.9908L50.7758 13.3348C50.9395 12.9407 51.365 12.6183 51.7251 12.6183H58.452C58.7139 12.6183 58.8776 12.7795 58.8612 13.0482L58.7139 20.6971C58.7139 21.0553 59.2377 20.9299 59.4013 20.5538L62.4784 13.3348C62.642 12.9407 63.0676 12.6183 63.4277 12.6183H69.9254C70.3019 12.6362 70.4656 12.9586 70.2855 13.3348Z" fill="#D9D9D9"/>
<path d="M91.4811 13.3348L89.8117 17.2578C89.648 17.6519 89.2225 17.9742 88.8624 17.9742H82.3647C82.0046 17.9742 81.8572 17.6519 82.0209 17.2578L82.4792 16.183C82.561 15.9859 82.4792 15.8247 82.2991 15.8247H79.042C78.862 15.8247 78.6492 15.9859 78.5673 16.183L74.312 26.1606C74.2301 26.3576 74.312 26.5187 74.492 26.5187H77.7491C77.9291 26.5187 78.1419 26.3576 78.2238 26.1606L80.4987 20.8225C80.6625 20.4284 81.088 20.1059 81.448 20.1059H87.9458C88.3059 20.1059 88.4533 20.4284 88.2895 20.8225L80.1386 39.9536C80.024 40.2223 79.7785 40.4731 79.5003 40.5985L71.4804 44.163C70.9403 44.396 70.5802 44.0557 70.8094 43.5183L76.5379 30.0835C76.6198 29.8864 76.5379 29.7252 76.3578 29.7252H65.6209C65.2608 29.7252 65.1135 29.4028 65.2772 29.0087L71.9714 13.3348C72.1351 12.9407 72.5606 12.6183 72.9207 12.6183H91.1375C91.4975 12.6362 91.6612 12.9586 91.4811 13.3348Z" fill="#D9D9D9"/>
<path d="M112.677 13.3348L109.191 21.5211C109.027 21.9152 108.601 22.2376 108.241 22.2376H97.5043C97.3242 22.2376 97.1115 22.3987 97.0297 22.5959L95.5074 26.1606C95.4257 26.3576 95.5074 26.5188 95.6876 26.5188H98.9447C99.1246 26.5188 99.3375 26.3576 99.4193 26.1606L100.025 24.7454C100.107 24.5483 100.319 24.3871 100.499 24.3871H107.325C107.685 24.3871 107.832 24.7096 107.668 25.1037L105.999 29.0266C105.835 29.4207 105.41 29.7431 105.05 29.7431H86.8492C86.4892 29.7431 86.3418 29.4207 86.5056 29.0266L93.167 13.3348C93.3307 12.9407 93.7562 12.6183 94.1163 12.6183H112.333C112.693 12.6362 112.857 12.9586 112.677 13.3348ZM103.495 15.8426H100.238C100.058 15.8426 99.8448 16.0038 99.7629 16.2009L98.6992 18.6909C98.6173 18.8878 98.6992 19.049 98.8791 19.049H102.136C102.316 19.049 102.529 18.8878 102.611 18.6909L103.675 16.2009C103.74 15.9859 103.675 15.8426 103.495 15.8426Z" fill="#D9D9D9"/>
<path d="M133.872 13.3348L132.203 17.2578C132.039 17.6519 131.614 17.9742 131.254 17.9742H124.756C124.396 17.9742 124.248 17.6519 124.412 17.2578L124.87 16.183C124.952 15.9859 124.87 15.8247 124.69 15.8247H121.433C121.253 15.8247 121.04 15.9859 120.959 16.183L115.492 28.9908C115.328 29.3849 114.903 29.7073 114.543 29.7073H108.045C107.685 29.7073 107.537 29.3849 107.701 28.9908L114.363 13.3348C114.526 12.9407 114.952 12.6183 115.312 12.6183H133.529C133.889 12.6362 134.052 12.9586 133.872 13.3348Z" fill="#D9D9D9"/>
<path d="M155.402 13.3348L153.734 17.2578C153.57 17.6519 153.144 17.9742 152.784 17.9742H146.287C145.926 17.9742 145.779 17.6519 145.942 17.2578L146.401 16.183C146.482 15.9859 146.401 15.8247 146.221 15.8247H142.963C142.784 15.8247 142.571 15.9859 142.489 16.183L138.25 26.1426C138.169 26.3397 138.25 26.5009 138.43 26.5009H141.688C141.867 26.5009 142.08 26.3397 142.162 26.1426L144.436 20.8045C144.601 20.4104 145.026 20.088 145.386 20.088H151.884C152.244 20.088 152.391 20.4104 152.228 20.8045L144.077 39.9357C143.962 40.2044 143.717 40.4552 143.438 40.5806L135.419 44.1452C134.879 44.3781 134.518 44.0377 134.747 43.5003L140.476 30.0656C140.558 29.8685 140.476 29.7073 140.295 29.7073H129.559C129.199 29.7073 129.052 29.3849 129.215 28.9908L135.893 13.3348C136.057 12.9407 136.483 12.6183 136.842 12.6183H155.059C155.42 12.6362 155.583 12.9586 155.402 13.3348Z" fill="#D9D9D9"/>
<path d="M176.599 13.3348L169.921 28.9908C169.757 29.3849 169.331 29.7073 168.971 29.7073H150.771C150.41 29.7073 150.263 29.3849 150.428 28.9908L153.913 20.8045C154.077 20.4104 154.503 20.088 154.862 20.088H165.599C165.78 20.088 165.993 19.9268 166.075 19.7297L167.596 16.1651C167.679 15.968 167.596 15.8068 167.416 15.8068H164.16C163.979 15.8068 163.767 15.968 163.684 16.1651L163.08 17.5801C162.997 17.7773 162.785 17.9385 162.604 17.9385H155.779C155.42 17.9385 155.272 17.6159 155.436 17.222L157.088 13.3348C157.253 12.9407 157.678 12.6183 158.038 12.6183H176.254C176.615 12.6362 176.778 12.9586 176.599 13.3348ZM164.224 23.3123H160.968C160.788 23.3123 160.575 23.4735 160.493 23.6706L159.429 26.1606C159.347 26.3576 159.429 26.5188 159.609 26.5188H162.867C163.046 26.5188 163.259 26.3576 163.341 26.1606L164.405 23.6706C164.487 23.4735 164.405 23.3123 164.224 23.3123Z" fill="#D9D9D9"/>
<path d="M209.513 13.3348L202.835 28.9908C202.672 29.3849 202.245 29.7073 201.886 29.7073H195.388C195.028 29.7073 194.88 29.3849 195.044 28.9908L198.121 21.7719C198.285 21.3957 197.859 21.2703 197.564 21.6286L191.198 29.2774C190.985 29.5282 190.674 29.7073 190.428 29.7073H183.701C183.342 29.7073 183.195 29.3849 183.358 28.9908L186.435 21.7719C186.598 21.3957 186.174 21.2703 185.879 21.6286L179.512 29.2774C179.299 29.5282 178.988 29.7073 178.743 29.7073H172.015C171.655 29.7073 171.508 29.3849 171.672 28.9908L178.35 13.3348C178.514 12.9407 178.938 12.6183 179.299 12.6183H185.797C186.156 12.6183 186.304 12.9407 186.14 13.3348L183.063 20.5538C182.9 20.9299 183.326 21.0553 183.619 20.6971L189.986 13.0482C190.199 12.7974 190.51 12.6183 190.755 12.6183H197.483C197.843 12.6183 197.991 12.9407 197.827 13.3348L194.75 20.5538C194.585 20.9299 195.012 21.0553 195.306 20.6971L201.673 13.0482C201.886 12.7974 202.197 12.6183 202.442 12.6183H209.17C209.513 12.6362 209.676 12.9586 209.513 13.3348Z" fill="#D9D9D9"/>
<path d="M230.741 13.3348L227.254 21.5211C227.091 21.9152 226.666 22.2376 226.306 22.2376H215.569C215.389 22.2376 215.176 22.3987 215.094 22.5959L213.572 26.1604C213.49 26.3576 213.572 26.5188 213.752 26.5188H217.009C217.189 26.5188 217.402 26.3576 217.484 26.1604L218.089 24.7454C218.171 24.5483 218.384 24.3871 218.564 24.3871H225.389C225.75 24.3871 225.897 24.7095 225.733 25.1036L224.064 29.0266C223.9 29.4207 223.474 29.7431 223.114 29.7431H204.898C204.537 29.7431 204.39 29.4207 204.553 29.0266L211.231 13.3706C211.396 12.9765 211.821 12.6541 212.181 12.6541H230.397C230.741 12.6362 230.905 12.9586 230.741 13.3348ZM221.543 15.8426H218.285C218.106 15.8426 217.893 16.0038 217.811 16.2009L216.747 18.6907C216.665 18.8878 216.747 19.049 216.928 19.049H220.184C220.364 19.049 220.577 18.8878 220.658 18.6907L221.723 16.2009C221.804 15.9859 221.723 15.8426 221.543 15.8426Z" fill="#D9D9D9"/>
<path d="M251.936 13.3348L250.267 17.2578C250.103 17.6519 249.678 17.9742 249.318 17.9742H242.82C242.461 17.9742 242.313 17.6519 242.477 17.2578L242.935 16.183C243.017 15.9859 242.935 15.8247 242.754 15.8247H239.498C239.318 15.8247 239.105 15.9859 239.023 16.183L237.73 19.2102C237.648 19.4073 237.73 19.5685 237.91 19.5685H248.647C249.007 19.5685 249.154 19.891 248.991 20.285L245.275 29.0087C245.111 29.4028 244.687 29.7252 244.326 29.7252H226.109C225.75 29.7252 225.602 29.4028 225.766 29.0087L227.435 25.0857C227.599 24.6917 228.024 24.3692 228.384 24.3692H234.882C235.243 24.3692 235.389 24.6917 235.225 25.0857L234.767 26.1606C234.685 26.3576 234.767 26.5188 234.948 26.5188H238.204C238.384 26.5188 238.597 26.3576 238.679 26.1606L239.972 23.1332C240.054 22.9361 239.972 22.7749 239.792 22.7749H229.056C228.695 22.7749 228.548 22.4526 228.711 22.0585L232.427 13.3348C232.591 12.9407 233.016 12.6183 233.376 12.6183H251.577C251.936 12.6362 252.1 12.9586 251.936 13.3348Z" fill="#D9D9D9"/>
</svg>
