<svg width="150" height="90" viewBox="0 0 150 90" fill="none" xmlns="http://www.w3.org/2000/svg">
<path d="M75.89 24.2996H68.8938L63.7356 43.391L62.3916 48.3521L67.6188 48.3256H67.9402L71.9802 48.3044C75.1965 48.292 78.3196 47.2245 80.8685 45.2663C83.4175 43.3082 85.2511 40.5679 86.0869 37.4673C86.5044 35.9125 86.5567 34.2824 86.2397 32.704C85.9226 31.1257 85.2447 29.6418 84.2589 28.3679C83.2731 27.094 82.0059 26.0646 80.5561 25.3598C79.1063 24.6551 77.5131 24.294 75.9006 24.3049L75.89 24.2996ZM81.3669 36.1415C80.8005 38.2522 79.5483 40.1155 77.8067 41.439C76.065 42.7625 73.9326 43.4715 71.7438 43.4546L69.2763 43.436L73.1037 29.1652L76.0547 29.1811C76.9017 29.1852 77.7364 29.3834 78.4945 29.7604C79.2526 30.1375 79.9138 30.6834 80.4271 31.3559C80.9404 32.0285 81.2921 32.8098 81.455 33.6395C81.618 34.4693 81.5878 35.3253 81.3669 36.1415Z" fill="white"/>
<path d="M136.652 28.6944L135.291 33.762L143.329 33.7883L147.46 33.8042L146.879 35.9636L146.445 37.5825L144.994 42.9797L143.435 48.158L125.789 48.1923L127.375 42.9401H140.855L142.301 37.5587L128.794 37.6431L132.426 24.2991H150L148.8 28.7629L136.652 28.6944Z" fill="white"/>
<path d="M128.815 24.2991L123.734 43.1204L123.238 44.9403C122.999 45.8311 122.468 46.6164 121.731 47.1716C120.994 47.7281 120.263 48.1923 119.168 48.1923H110.217C109.188 48.1923 108.95 47.9839 108.37 47.707C107.506 47.2851 106.815 46.5774 106.415 45.7042C106.015 44.831 105.929 43.8462 106.173 42.9173L111.189 24.2991H116.605L115.393 28.8224L112.041 41.3453C111.959 41.6436 111.984 41.9613 112.112 42.2429C112.241 42.5245 112.464 42.752 112.743 42.8856C112.929 42.9739 113.132 43.019 113.337 43.0175L117.476 42.9832C117.767 42.9821 118.05 42.8848 118.28 42.7064C118.51 42.5279 118.675 42.2784 118.748 41.9968L123.555 24.2991H128.815Z" fill="white"/>
<path d="M95.7874 28.9305L94.4209 33.9972L106.579 34.042L105.998 36.2022L105.564 37.8216L93.4059 37.7794L91.9707 43.123L104.129 43.2206L102.794 48.1923H85.1699L91.5716 24.3624L109.222 24.2991L107.962 29.0044L95.8033 28.9305H95.7874Z" fill="white"/>
<path fill-rule="evenodd" clip-rule="evenodd" d="M137.176 51.5839L127.636 51.5647C126.7 51.5647 125.792 51.6716 125.05 52.2442C124.308 52.8186 123.775 53.6202 123.531 54.5266L119.202 70.7198C119.033 71.4572 119.013 72.2213 119.145 72.9665C119.275 73.6144 119.553 74.2234 119.957 74.7462C120.361 75.2689 120.88 75.6913 121.473 75.9805C122.069 76.2724 122.725 76.4206 123.389 76.4134H132.644C133.612 76.386 134.544 76.0403 135.296 75.4298C136.056 74.8544 136.606 73.7474 136.853 72.8241L137.359 70.928L141.217 56.5103C141.382 55.8872 141.403 55.2347 141.279 54.6022C141.154 53.9698 140.887 53.3742 140.498 52.8607C140.17 52.4064 139.728 52.0472 139.217 51.8195C138.642 51.5126 137.821 51.5921 137.176 51.5839ZM132.201 69.7526C132.124 70.0438 131.954 70.3017 131.717 70.4864C131.479 70.6711 131.188 70.7724 130.887 70.7746L126.604 70.8102C126.392 70.8109 126.182 70.7631 125.991 70.6705C125.8 70.5783 125.633 70.4422 125.504 70.2732C125.375 70.1058 125.286 69.9108 125.244 69.7032C125.201 69.4955 125.208 69.2805 125.263 69.0758L128.733 56.1076L135.881 56.0171L132.201 69.7526Z" fill="white"/>
<path fill-rule="evenodd" clip-rule="evenodd" d="M117.478 51.6003L113.633 56.2461L109.421 61.4785L106.271 65.3898L105.983 65.7434L97.396 76.4137H115.751L122.404 51.5647L117.478 51.6003ZM113.779 65.4254L112.282 71.0031L107.683 70.9648L111.876 65.4117L114.831 61.495L113.779 65.4254Z" fill="white"/>
<path d="M90.9527 51.5647H83.7248L78.3958 71.2883L77.0073 76.4137L82.4077 76.3863H82.7397L86.9134 76.3644C90.2362 76.3516 93.4627 75.2488 96.0961 73.2257C98.7295 71.2027 100.624 68.3717 101.487 65.1685C101.919 63.5622 101.973 61.8781 101.645 60.2475C101.317 58.6169 100.617 57.0838 99.5987 55.7677C98.5802 54.4517 97.2711 53.3881 95.7733 52.6601C94.2755 51.932 92.6295 51.559 90.9637 51.5702L90.9527 51.5647ZM96.611 63.7988C96.0258 65.9794 94.7321 67.9043 92.9328 69.2717C91.1335 70.639 88.9304 71.3715 86.6692 71.354L84.12 71.3348L88.0742 56.5915L91.1228 56.6079C91.9978 56.6121 92.8602 56.8168 93.6434 57.2064C94.4266 57.596 95.1097 58.1599 95.64 58.8547C96.1703 59.5496 96.5336 60.3567 96.702 61.2139C96.8703 62.0711 96.8392 62.9555 96.611 63.7988Z" fill="white"/>
<path d="M26.1205 72.172C25.2093 72.3824 24.3787 72.2559 23.7576 71.8757C24.5899 71.3772 25.2771 70.9073 25.8779 70.3663C26.4721 69.8311 26.9653 69.2419 27.438 68.5153C27.7248 68.7581 28.036 68.9929 28.3335 69.2005C28.6494 69.4209 28.9726 69.6263 29.2709 69.7947C28.414 71.1543 27.2309 71.9155 26.1205 72.172Z" stroke="white" stroke-width="1.67212"/>
<path d="M22.2494 76.444C21.9941 77.0592 21.5162 77.6261 20.7833 78.0754C20.7869 78.0276 20.7897 77.98 20.7916 77.9329C20.8097 77.4992 20.7615 77.0615 20.7029 76.6604C20.6757 76.4739 20.6446 76.2858 20.6149 76.1057C20.6124 76.0906 20.6099 76.0755 20.6075 76.0605C20.575 75.8636 20.5443 75.6754 20.5183 75.4898C20.4103 74.7185 20.4144 74.1622 20.6212 73.7314C20.7699 73.4215 21.0849 73.0588 21.8397 72.751C22.5921 74.2362 22.6423 75.4975 22.2494 76.444Z" stroke="white" stroke-width="1.67212"/>
<path d="M16.6787 63.0867C17.1408 62.858 17.8579 62.6924 19.024 62.7307C18.4757 64.4029 17.6535 65.5314 16.6576 66.1654C15.9786 66.5976 15.1632 66.8351 14.1999 66.8228C14.3215 66.6929 14.4326 66.556 14.5345 66.4131C14.7944 66.0489 14.982 65.665 15.1368 65.3158C15.205 65.162 15.2625 65.0261 15.3167 64.8978C15.3976 64.7066 15.4713 64.5323 15.5627 64.3409C15.8361 63.7685 16.1319 63.3575 16.6787 63.0867Z" stroke="white" stroke-width="1.67212"/>
<path d="M23.9526 63.3284C24.3953 64.469 24.9752 65.4501 25.6242 66.3476C25.1252 66.4302 24.681 66.4658 24.1918 66.3818C23.387 66.2435 22.3757 65.7376 20.9892 64.0969L20.9892 64.0969C20.8993 63.9905 20.795 63.6941 20.8113 63.2479C20.8203 63.0041 20.8616 62.8054 20.9059 62.6645C21.9827 62.5248 22.9033 62.7179 23.9526 63.3284Z" stroke="white" stroke-width="1.67212"/>
<path d="M39.0546 48.694C39.5545 47.18 39.6516 45.8482 39.492 44.6832C39.6327 44.8908 39.7717 45.1146 39.9052 45.3521C40.6288 46.6394 41.0808 48.1204 40.9474 49.3855C40.398 49.1285 39.8122 48.9042 39.0546 48.694Z" stroke="white" stroke-width="1.67212"/>
<path d="M35.2567 47.849C34.6186 47.78 33.9658 47.7705 33.1701 47.8094C33.2581 45.9558 32.991 44.4907 32.4088 43.321C32.8831 43.5549 33.3652 43.9267 33.8113 44.4378C34.5923 45.3325 35.1542 46.5463 35.2567 47.849Z" stroke="white" stroke-width="1.67212"/>
<path d="M40.6868 42.7852C40.5137 42.5695 40.3152 42.3447 40.0991 42.1315C40.6007 42.0565 41.1508 42.1208 41.7922 42.2405C41.9311 42.2664 42.0785 42.2959 42.2315 42.3265C42.6756 42.4152 43.1672 42.5135 43.6376 42.5623C43.7702 42.576 43.9054 42.5865 44.0426 42.5923C43.392 43.5783 42.5008 44.1096 41.5337 44.1202C41.4817 44.004 41.4244 43.892 41.3666 43.7873C41.1861 43.4599 40.9499 43.1132 40.6868 42.7852Z" stroke="white" stroke-width="1.67212"/>
<path d="M33.8498 41.8301C33.6401 41.7148 33.4008 41.6091 33.1579 41.5168C33.3051 41.4693 33.4666 41.4228 33.6433 41.3761C33.7617 41.3449 33.89 41.3127 34.0234 41.2793C34.287 41.2132 34.5705 41.1421 34.8367 41.0634C34.6593 41.4736 34.3758 41.7836 34.0565 41.9531C33.9818 41.9045 33.9108 41.8636 33.8498 41.8301Z" stroke="white" stroke-width="1.67212"/>
<path d="M47.9222 44.9087C47.6379 44.6437 47.3102 44.3812 46.9585 44.1488C47.6314 44.0258 48.4541 43.9993 49.3812 44.0132C49.8468 44.0203 50.3263 44.0371 50.8167 44.0547L50.8578 44.0561C51.3321 44.0731 51.8164 44.0904 52.2926 44.0987C52.6553 44.1049 53.0201 44.1062 53.3803 44.0975C53.0853 44.4564 52.7791 44.7143 52.3997 44.9463C51.6902 45.3803 50.7139 45.7344 49.0329 46.3072C48.992 46.2274 48.9492 46.152 48.9066 46.0819C48.6588 45.6744 48.3094 45.2698 47.9222 44.9087Z" stroke="white" stroke-width="1.67212"/>
<path d="M46.6534 52.5159C46.2499 52.1963 45.8013 51.8099 45.4195 51.4687C45.8801 50.3303 46.1548 49.3221 46.2262 48.2573C46.2787 47.473 46.2192 46.6835 46.0649 45.8164C46.6864 46.1806 47.1399 46.6625 47.521 47.2841C48.1237 48.2673 48.5525 49.6072 49.0681 51.482C48.723 51.7365 48.3244 52.0328 47.9585 52.3094C47.685 52.5162 47.4263 52.7144 47.2209 52.8769C47.2074 52.8876 47.1937 52.8985 47.1799 52.9094C47.0334 52.8089 46.8549 52.6754 46.6534 52.5159Z" stroke="white" stroke-width="1.67212"/>
<path d="M27.3132 78.6046C26.8973 78.5944 26.4491 78.5495 26.0076 78.4628C26.3975 79.0118 26.9652 79.5976 27.6393 80.2287C27.9784 80.5463 28.3348 80.8665 28.6998 81.1941L28.7304 81.2215C29.0833 81.5382 29.4438 81.8618 29.7917 82.1861C30.0754 82.4505 30.3568 82.7208 30.6255 82.9958C30.6898 82.5115 30.6627 82.1046 30.5585 81.6631C30.3713 80.871 29.9352 79.9498 29.1519 78.3799C29.0551 78.4117 28.9599 78.438 28.8695 78.4599C28.3979 78.5743 27.8543 78.6178 27.3132 78.6046Z" stroke="white" stroke-width="1.67212"/>
<path d="M32.4221 71.9247C32.4278 71.9024 32.4339 71.8798 32.4401 71.8569C32.1723 71.6889 31.8487 71.4907 31.4781 71.2638C31.3543 71.188 31.2254 71.109 31.0915 71.0268C30.0977 73.1004 28.539 75.0715 26.6038 76.5291C26.7124 76.5555 26.8173 76.5751 26.9191 76.5888C27.3734 76.6496 27.8196 76.5983 28.3294 76.4341C28.8526 76.2656 29.4295 75.9828 30.1427 75.5847C30.5367 75.3648 30.9398 75.1288 31.3841 74.8686C31.6326 74.7231 31.8941 74.57 32.174 74.408C32.1547 73.9311 32.1825 73.4044 32.2401 72.9259C32.2823 72.5765 32.3429 72.23 32.4221 71.9247Z" stroke="white" stroke-width="1.67212"/>
<path d="M47.7344 86.327C48.363 84.8163 48.9071 83.8835 49.9848 82.6793C50.1487 82.7172 50.3165 82.7439 50.4824 82.7628C50.8863 82.8091 51.3401 82.816 51.8166 82.7947C52.7702 82.752 53.8769 82.5932 54.976 82.3607C56.0768 82.1279 57.192 81.8166 58.1636 81.4602C58.6713 81.274 59.1599 81.0682 59.5944 80.8453C60.0308 82.9796 58.8689 85.0481 56.7085 86.3238C54.3897 87.693 51.0209 88.0435 47.7344 86.327Z" stroke="white" stroke-width="1.67212"/>
<path d="M35.1052 77.2142C34.6305 76.5059 34.4255 75.7374 34.4317 74.9015C34.4412 73.5983 34.9661 72.0603 35.9793 70.2833C36.1738 69.9422 36.3906 69.5144 36.6159 69.0699C36.6879 68.9278 36.7608 68.7839 36.8342 68.6407C37.1455 68.0322 37.4797 67.4026 37.8409 66.8298C38.2053 66.2519 38.5746 65.769 38.9439 65.434C39.0623 65.3266 39.1738 65.2406 39.2787 65.1729C39.5158 65.8411 39.8413 66.5505 40.217 67.201C40.6943 68.0276 41.313 68.8652 42.0192 69.3715C42.342 70.0503 42.3939 70.5396 42.3235 70.9243C42.2612 71.2642 42.088 71.6091 41.7638 71.9938C41.0303 71.9448 40.2927 72.1726 39.6365 72.5015C38.8078 72.9169 37.9981 73.5476 37.2912 74.2462C36.5819 74.9473 35.948 75.7444 35.4809 76.5198C35.3447 76.7459 35.2173 76.9789 35.1052 77.2142Z" stroke="white" stroke-width="1.67212"/>
<path d="M50.9437 76.1023L50.5673 75.6671C46.7562 71.2612 39.3717 72.6036 37.1428 78.2542L50.9437 76.1023ZM50.9437 76.1023L51.4846 75.9062M50.9437 76.1023L51.4846 75.9062M51.4846 75.9062C53.7141 75.0979 55.2251 75.0269 56.3241 75.3133C56.7749 75.4307 57.1783 75.614 57.5511 75.8556M51.4846 75.9062L57.5511 75.8556M57.5511 75.8556C56.9584 75.9686 56.349 76.153 55.7467 76.3827C54.2773 76.9432 52.7092 77.8286 51.261 78.8795C49.8125 79.9307 48.4558 81.1679 47.4224 82.4497C46.5512 83.5304 45.8608 84.7033 45.5905 85.8655C43.7942 86.2749 41.7821 86.2863 40.4391 85.4851C39.1141 84.6947 38.0706 83.388 37.4724 81.989C36.8667 80.5723 36.7715 79.1959 37.1427 78.2543L57.5511 75.8556Z" stroke="white" stroke-width="1.67212"/>
<path d="M66.2301 55.6403C65.8473 56.899 65.7032 57.7835 65.7441 59.0859C65.8567 59.1457 65.9656 59.2115 66.0694 59.2795C66.3688 59.4758 66.6779 59.7255 66.9845 60.0048C67.598 60.5638 68.2473 61.2836 68.8494 62.0465C69.4526 62.8107 70.0224 63.6357 70.4723 64.4124C70.6784 64.7682 70.8678 65.1281 71.0244 65.4774C72.345 64.3299 72.6738 62.4334 71.979 60.489C71.2207 58.3671 69.2526 56.3298 66.2301 55.6403Z" stroke="white" stroke-width="1.67212"/>
<path d="M55.9369 51.2388C55.4658 51.07 54.9852 51.0121 54.4937 51.0516C53.4932 51.1321 52.3539 51.6247 51.0912 52.6124C50.7869 52.8504 50.3937 53.1095 50.0076 53.3639C49.9537 53.3995 49.8999 53.4349 49.8465 53.4702C49.3929 53.77 48.9393 54.0762 48.5414 54.3961C48.1465 54.7137 47.8519 55.0095 47.6749 55.2794C48.2497 55.3722 48.8306 55.556 49.3509 55.7782C50.0922 56.0949 50.8333 56.5422 51.3285 57.0545C51.9126 57.2408 52.1948 57.2399 52.361 57.1951C52.48 57.1631 52.6223 57.0863 52.8322 56.858C52.7214 56.2813 52.7997 55.6803 52.9632 55.1328C53.1799 54.4077 53.5725 53.6823 54.0485 53.0413C54.5254 52.3993 55.1094 51.8103 55.7367 51.3724C55.8022 51.3267 55.869 51.282 55.9369 51.2388Z" stroke="white" stroke-width="1.67212"/>
<path d="M62.3821 63.8948L61.8144 63.9884C56.9564 64.7898 52.8714 59.9216 54.4838 55.0311L62.3821 63.8948ZM62.3821 63.8948L62.6723 64.3916M62.3821 63.8948L62.6723 64.3916M62.6723 64.3916C63.6959 66.1434 64.6417 67.0015 65.4978 67.4038C65.7559 67.525 66.0169 67.6101 66.284 67.6642M62.6723 64.3916L66.284 67.6642M66.284 67.6642C66.0201 67.316 65.7767 66.9354 65.5543 66.5397C64.8847 65.3487 64.3312 63.8888 63.9497 62.3876C63.5681 60.8861 63.3501 59.3094 63.3725 57.8795C63.391 56.7046 63.5728 55.5544 64.0219 54.6248C63.0708 53.3985 61.7885 52.3394 60.5208 52.1397C59.2363 51.9372 57.8504 52.2208 56.7022 52.8078C55.5368 53.4036 54.744 54.2423 54.4838 55.031L66.284 67.6642Z" stroke="white" stroke-width="1.67212"/>
<path d="M48.878 67.0543L49.429 68.036C49.6066 68.3526 49.59 68.6858 49.5502 68.9013C49.5065 69.1375 49.4115 69.3666 49.2899 69.5696C49.2341 69.6627 49.1689 69.7566 49.0944 69.8481C49.5639 70.1293 50.1553 70.2449 50.789 70.1972C51.0235 70.1796 51.2498 70.1405 51.4633 70.0843C50.9378 69.8142 50.4963 69.4331 50.1759 68.9901C49.8151 68.4913 49.5885 67.8853 49.6056 67.2493C49.6232 66.5972 49.897 65.9717 50.434 65.4774C51.1566 64.8123 52.1094 64.4668 53.145 64.878C53.7011 65.0989 54.2156 65.5158 54.696 66.101C54.734 65.3753 54.5042 64.5385 53.9089 63.7926C53.8389 63.9015 53.7669 64.0044 53.6975 64.1033C53.6452 64.178 53.5944 64.2505 53.5473 64.3216L52.0269 63.7148C52.3128 62.0926 51.9125 60.3555 50.8014 59.1122C49.7111 57.8922 47.8383 57.0406 44.9528 57.3637L48.878 67.0543ZM48.878 67.0543L48.0974 67.8655M48.878 67.0543L48.0974 67.8655M48.0974 67.8655C47.1043 68.8976 45.4913 68.9022 43.8432 67.819C42.219 66.7515 40.8305 64.75 40.6031 62.3618L40.6031 62.3618M48.0974 67.8655L40.6031 62.3618M40.6031 62.3618C40.4777 61.0456 41.0979 59.8577 42.0502 58.9325M40.6031 62.3618L42.0502 58.9325M42.0502 58.9325C43.0174 57.9928 44.2038 57.4477 44.9527 57.3637L42.0502 58.9325Z" stroke="white" stroke-width="1.67212"/>
<path d="M33.0336 49.8057C36.4995 49.4168 40.931 50.6116 45.8912 54.3553C45.5413 54.928 45.4015 55.521 45.3762 56.007C43.7152 56.9168 42.403 57.7025 41.4249 58.7461C40.4127 59.826 39.8013 61.1281 39.3982 62.98C37.4088 63.5925 36.3079 64.8277 35.4919 66.2319C35.1513 66.8179 34.85 67.4521 34.5589 68.0646C34.4867 68.2166 34.4151 68.3673 34.3437 68.5155C34.0846 69.0536 33.8199 69.5785 33.5166 70.0847C30.2493 68.2359 27.6985 65.9565 26.2155 63.499C24.6475 60.9006 24.2718 58.1137 25.4741 55.326C26.7667 52.3294 29.433 50.2098 33.0336 49.8057Z" stroke="white" stroke-width="1.67212"/>
<path d="M9.63234 38.8896C9.66682 38.9081 9.68949 38.9224 9.70315 38.9317C10.2863 39.8706 10.7389 41.3814 10.9332 42.7591C11.0265 43.4209 11.0534 44.0064 11.0198 44.441C10.8861 44.4197 10.7515 44.4078 10.6217 44.4015C10.0279 44.3729 9.2781 44.454 8.5 44.6054C7.03308 44.8909 5.27166 45.4653 3.98334 46.2489C3.96337 46.2379 3.93883 46.2209 3.90845 46.1948C3.78383 46.0878 3.62262 45.871 3.45979 45.5049C3.13695 44.7791 2.91199 43.7049 2.84149 42.5525C2.77117 41.4031 2.85989 40.264 3.10209 39.4176C3.22344 38.9935 3.3709 38.6871 3.51993 38.492C3.66292 38.3048 3.77429 38.2591 3.84596 38.2473C4.69764 38.1076 6.14281 38.1517 7.46654 38.341C8.1205 38.4345 8.70756 38.5584 9.14594 38.6969C9.36621 38.7666 9.5269 38.8331 9.63234 38.8896ZM10.9116 44.9842C10.9116 44.984 10.9128 44.9816 10.9155 44.9774C10.9131 44.9823 10.9117 44.9844 10.9116 44.9842Z" stroke="white" stroke-width="1.67212"/>
<path d="M5.60821 48.2857L5.62289 48.2753L5.63711 48.2643C6.44987 47.6372 7.78114 47.0568 9.05379 46.6708C9.68071 46.4806 10.2637 46.3468 10.7252 46.2788C10.9566 46.2446 11.1432 46.2293 11.2815 46.2283C11.3866 46.2276 11.4339 46.2358 11.4411 46.2364C12.0265 46.4643 12.9168 47.1667 13.7016 47.9975C14.0842 48.4026 14.4081 48.8029 14.6283 49.1363C14.6655 49.1926 14.6985 49.2452 14.7277 49.294C13.5429 50.1973 12.8215 51.0622 12.3496 52.035C11.8949 52.9723 11.694 53.9798 11.4794 55.0562C11.4747 55.0799 11.4699 55.1037 11.4652 55.1275C11.4648 55.1275 11.4645 55.1275 11.4641 55.1274C11.2356 55.113 10.8785 55.0178 10.4101 54.8081C9.48726 54.3948 8.35196 53.6369 7.35211 52.7285C6.341 51.8099 5.55646 50.8172 5.23197 49.967C5.07301 49.5506 5.04585 49.2246 5.09917 48.9787C5.14807 48.7533 5.28053 48.5167 5.60821 48.2857ZM11.4242 46.23L11.4242 46.23L11.4242 46.23ZM11.5987 55.1248C11.6053 55.1222 11.6093 55.1215 11.6096 55.1217C11.61 55.122 11.6067 55.1234 11.5987 55.1248Z" stroke="white" stroke-width="1.67212"/>
<path d="M27.2089 50.8251C26.1037 51.686 25.0233 52.9169 24.204 54.2623C23.2464 55.8347 22.5495 57.7235 22.7093 59.5053C20.063 59.8247 17.3261 59.1988 15.587 57.9117C14.6423 57.2126 14.0278 56.3483 13.8227 55.3645C13.6201 54.3923 13.7927 53.1858 14.6408 51.7433C16.0048 49.8553 17.9176 48.9475 20.2329 48.9078C22.2768 48.8727 24.6522 49.5177 27.2089 50.8251Z" stroke="white" stroke-width="1.67212"/>
<path d="M6.38664 31.1593L6.38673 31.1592C7.25469 30.0089 8.00219 29.1796 8.67576 28.6432C9.34532 28.11 9.87804 27.9166 10.3353 27.9183C10.7891 27.92 11.3229 28.1145 11.9946 28.6799C12.6361 29.2198 13.3499 30.0539 14.1716 31.2369C14.1536 31.5634 14.0352 32.0366 13.7868 32.631C13.4959 33.3272 13.0673 34.0948 12.5756 34.8209C12.0837 35.5473 11.5447 36.2085 11.0445 36.6993C10.7944 36.9447 10.5654 37.1363 10.3673 37.2709C10.3196 37.3033 10.2759 37.3309 10.2362 37.3542C9.11189 36.6512 8.09483 36.2564 6.99072 36.0823C5.92588 35.9144 4.8175 35.9591 3.5283 36.0771C3.49693 35.9684 3.4907 35.8378 3.51312 35.6727C3.56356 35.3015 3.75659 34.8293 4.08124 34.2762C4.55157 33.4748 5.17761 32.6896 5.74489 31.978C5.97294 31.6919 6.19151 31.4178 6.38664 31.1593Z" stroke="white" stroke-width="1.67212"/>
<path d="M28.4938 22.2264C28.4982 22.2286 28.6158 22.2914 28.6738 22.6779C28.7288 23.045 28.6991 23.5441 28.5846 24.0951C28.4717 24.6385 28.2873 25.1803 28.075 25.6182C27.864 26.0535 27.6737 26.2861 27.5732 26.3682C27.3456 26.4875 26.9851 26.6093 26.5013 26.718C26.0019 26.8303 25.4215 26.9176 24.818 26.9813C24.0043 27.0671 23.175 27.1073 22.484 27.1122C22.5652 26.2833 22.5848 25.5512 22.5213 24.8229C22.4489 23.9913 22.2707 23.1927 21.9806 22.2834C22.862 21.6135 23.9217 21.3513 25.0163 21.3605C26.2876 21.3712 27.5542 21.7507 28.4938 22.2264Z" stroke="white" stroke-width="1.67212"/>
<path d="M20.7353 27.4039C18.8515 28.7694 17.5602 29.3383 15.357 29.935C14.775 28.9551 14.2586 28.1399 13.6368 27.4621C13.0261 26.7964 12.3313 26.2791 11.4085 25.823C11.5479 25.6808 11.7371 25.5141 11.9793 25.3283C12.7538 24.7345 13.902 24.0737 15.132 23.5366C16.3682 22.9967 17.6169 22.6126 18.594 22.5223C19.0842 22.4771 19.4466 22.5118 19.688 22.5927C19.9069 22.6661 19.993 22.7625 20.0394 22.867C20.6485 24.2398 20.8116 25.4705 20.7353 27.4039ZM11.1443 26.1543C11.1404 26.1675 11.1367 26.1747 11.1358 26.175C11.1349 26.1753 11.1369 26.1687 11.1443 26.1543Z" stroke="white" stroke-width="1.67212"/>
<path d="M29.2734 26.8489C30.3788 25.5095 31.327 23.6697 30.6507 21.6241C36.6312 12.0928 46.8697 8.79649 55.8768 10.7339C64.1035 12.5034 71.2954 18.6361 73.2564 28.4387C71.7875 26.7303 70.2361 25.6026 68.5901 24.9599C66.1792 24.0186 63.6889 24.1662 61.1784 24.8569C58.6819 25.5439 56.0942 26.7888 53.4609 28.1159C53.08 28.3079 52.6978 28.5017 52.3143 28.6963C50.0223 29.8588 47.6812 31.0462 45.248 32.0157C44.3011 32.393 43.0562 32.4333 41.5807 32.1793C40.1164 31.9272 38.5046 31.3993 36.8775 30.7284C34.0641 29.5686 31.2901 28.0179 29.2734 26.8489Z" stroke="white" stroke-width="1.67212"/>
<path d="M58.8949 53.057C58.3864 53.0805 57.2292 53.4631 56.5802 54.0667C55.1341 55.3729 55.1929 57.5293 55.1929 57.5293C55.1929 57.5293 56.0427 54.5212 57.6741 53.7172C58.9492 53.0879 59.4205 53.1097 59.4205 53.1097C59.4205 53.1097 59.4034 53.0336 58.8949 53.057Z" fill="white"/>
<path d="M57.8237 61.9883C57.8237 61.9883 57.9771 62.1135 58.1924 62.281C60.0151 63.5899 62.3202 63.3356 63.0049 62.6581C62.9978 63.5991 63.4697 64.5388 64.1203 65.228C63.5682 64.6868 62.9156 63.903 62.7512 63.1476C62.7512 63.1476 60.753 63.8783 59.2582 63.0352C58.9655 62.8701 58.5111 62.5291 58.1924 62.281C58.067 62.191 57.9439 62.0935 57.8237 61.9883Z" fill="white"/>
<path d="M63.1871 55.1485C62.4667 56.8396 62.5724 61.3199 64.0259 63.5466C63.1973 61.2179 62.667 57.7747 63.1871 55.1485Z" fill="white"/>
<path d="M51.4655 61.9169C51.2527 60.5711 49.2229 58.6695 47.2095 58.6695C47.2258 58.3828 47.2729 58.2943 47.0651 58.0018C48.1913 58.2839 51.0117 59.0463 51.4655 61.9169Z" fill="white"/>
<path d="M42.1976 60.6567C41.9868 60.8033 41.6362 60.6104 41.6555 62.7128C41.6748 64.8152 43.0082 66.7911 44.4403 67.5128C45.8724 68.2346 46.2068 68.2244 46.2068 68.2244C46.2068 68.2244 44.12 67.7381 43.4394 64.9366C42.7589 62.135 43.504 60.1994 43.504 60.1994C43.504 60.1994 42.4779 60.4601 42.1976 60.6567Z" fill="white"/>
<path d="M55.3956 75.7763C55.3956 75.7763 54.4461 75.6582 53.671 75.7453C52.0753 75.9247 50.6931 76.8111 50.6931 76.8111C50.6931 76.8111 49.938 75.7318 49.3387 75.1371C48.7792 74.582 47.5117 73.9619 47.5117 73.9619C47.5117 73.9619 48.6286 74.7162 49.4157 75.5886C50.0103 76.2477 50.3723 76.9433 50.6076 77.399C50.6076 77.399 52.9819 75.5192 55.3956 75.7763Z" fill="white"/>
<path d="M38.5654 82.0044C38.5654 82.0044 39.1841 84.0755 41.1949 85.0959C42.3658 85.7032 43.7201 85.8556 44.9967 85.5237L45.1881 84.9199C45.1881 84.9199 43.0306 85.3646 41.6072 84.7031C40.3678 84.0952 39.3166 83.1625 38.5654 82.0044Z" fill="white"/>
<path d="M57.8372 82.1142C54.7909 83.6047 51.3802 83.5842 50.2429 83.4119C50.0683 83.5129 49.8627 83.6343 49.6906 83.8978C52.1398 84.1415 55.9517 83.7282 57.8372 82.1142Z" fill="white"/>
<path d="M35.6952 75.4541C35.6952 75.4541 34.7541 74.664 35.1758 72.882C35.5974 71.1 38.2407 67.9318 38.2407 67.9318C38.2407 67.9318 37.5128 69.0853 36.9782 70.0086C35.1042 73.228 36.4095 74.5036 36.4095 74.5036L35.6952 75.4541Z" fill="white"/>
<path d="M40.8119 71.37C41.0158 71.1844 41.1786 70.9581 41.2897 70.7058C41.4796 70.2809 41.4566 69.6353 41.4566 69.6353C41.5273 69.6764 41.5944 69.7236 41.6571 69.7763C41.7586 69.8616 41.9343 70.2286 41.8079 70.6609C41.6816 71.0931 41.4529 71.1958 41.2372 71.2123C41.0867 71.2374 40.9424 71.2909 40.8119 71.37Z" fill="white"/>
<path d="M28.2824 69.4499C27.7464 70.5104 26.9055 71.3229 25.769 71.5727C26.6852 71.7173 28.2314 71.006 28.8983 69.7796C28.6677 69.7254 28.4553 69.6117 28.2824 69.4499Z" fill="white"/>
<path d="M31.95 72.4682C30.3692 74.4028 29.4795 75.389 28.3252 75.7102C29.6015 75.355 30.5844 74.8065 31.7545 74.1439C31.6709 73.9494 31.641 73.1666 31.95 72.4682Z" fill="white"/>
<path d="M24.5103 65.2761C23.1883 65.3648 22.591 65.0135 21.7842 64.103C22.233 65.2405 23.685 66.1796 24.9356 66.042C24.7675 65.8022 24.625 65.5455 24.5103 65.2761Z" fill="white"/>
<path d="M15.7336 64.8266C15.7289 64.8469 15.7243 64.8675 15.72 64.8882C15.7208 64.8695 15.7255 64.8489 15.7336 64.8266C16.0733 63.3632 17.349 62.9695 18.9059 62.8791C17.8369 62.9777 15.9146 64.3299 15.7336 64.8266Z" fill="white"/>
<path d="M14.5678 57.0007C14.5678 57.0007 15.6215 58.4283 18.0959 59.2218C19.8162 59.8656 22.266 59.6653 22.7715 59.5056C22.9028 59.307 22.7802 57.1865 23.5029 55.6612C22.4606 56.6523 22.5035 57.9223 21.1799 58.572C20.4217 58.8115 17.2862 59.1266 14.5678 57.0007Z" fill="white"/>
<path d="M20.793 49.6139C20.793 49.6139 22.8393 49.9332 23.6621 50.8592C24.3681 51.6503 24.2221 53.1013 24.2221 53.1013C24.2221 53.1013 24.5756 52.2787 25.0443 51.8952C25.3077 51.6769 25.9025 51.1214 26.1985 50.9498C26.1985 50.9498 24.5257 50.3835 23.2094 49.9825C21.8932 49.5815 20.793 49.6139 20.793 49.6139Z" fill="white"/>
<path d="M14.8522 51.4434C15.4805 50.5579 19.2264 48.718 21.8626 48.9975C18.9958 48.2815 15.7434 49.8648 14.8522 51.4434Z" fill="white"/>
<path d="M10.3291 46.1858C10.3291 46.1858 7.29121 46.89 6.05684 47.782C5.20735 48.3958 4.63861 49.0526 4.78188 49.7325C4.95213 50.5404 6.21382 51.8124 6.69447 52.0666C6.51024 51.821 5.44994 50.1538 5.62719 49.4167C5.78832 48.7465 6.93464 47.454 10.3291 46.1858Z" fill="white"/>
<path d="M14.8078 49.4081C14.8078 49.4081 14.1468 48.1227 13.4192 47.4317C12.2322 46.3058 11.7771 45.9269 11.2291 45.9611C11.0029 45.9753 8.70175 46.6443 8.23001 46.9083C9.0062 46.7105 11.0795 46.1714 11.7937 46.541C12.7454 47.0336 14.4304 48.7176 14.8078 49.4081Z" fill="white"/>
<path d="M3.33066 38.6599C3.33066 38.6599 2.50165 41.1386 2.77254 43.0606C3.04344 44.9826 3.72754 46.2333 3.97897 46.2418C4.23041 46.2504 5.57647 45.4059 6.12317 45.3516C6.66987 45.2973 4.83312 45.3398 4.30638 44.8069C3.77963 44.2739 2.91425 42.2891 3.33066 38.6599Z" fill="white"/>
<path d="M10.4083 43.2276C10.4083 43.2276 10.3629 41.7791 10.0186 40.7223C9.5581 39.5298 9.10534 39.2732 8.67438 39.1583C7.97933 39.0282 7.26728 38.9666 6.55176 38.9744C7.56773 39.2462 8.11056 39.4196 8.78304 39.8088C9.45552 40.198 10.0079 41.1054 10.4083 43.2276Z" fill="white"/>
<path d="M13.6334 31.4445C13.4337 32.2366 13.1381 33.0013 12.7532 33.7218C12.1534 34.7884 10.3209 36.6479 9.90051 36.5935C9.75346 36.5741 9.43281 36.1826 8.7067 35.9107C8.0039 35.6805 7.28399 35.5063 6.55371 35.3896C6.55371 35.3896 8.7984 35.4803 9.42917 35.4391C11.0978 35.3305 13.6334 31.4445 13.6334 31.4445Z" fill="white"/>
<path d="M12.5399 29.1505C12.5399 29.1505 11.4776 28.1293 10.8603 27.8616C10.2429 27.594 10.0342 27.6712 9.1786 28.1112C8.323 28.5511 4.97471 32.5424 4.3837 33.5057C3.16593 35.3631 3.57913 35.6863 3.57913 35.6863C3.57913 35.6863 3.56503 33.8045 8.2297 29.6134C10.1657 28.1342 11.3514 28.6427 12.5399 29.1505Z" fill="white"/>
<path d="M19.3096 27.0009C19.3096 27.0009 19.0175 27.3051 18.2478 27.792C17.4782 28.2789 15.9274 28.893 15.6703 28.708C15.4721 28.5659 14.7897 27.438 14.7897 27.438C14.7897 27.438 15.3804 27.8069 15.8266 27.9116C16.4559 28.0601 17.5389 27.8225 18.1734 27.4753C18.5326 27.2739 18.9138 27.1147 19.3096 27.0009Z" fill="white"/>
<path d="M20.589 25.0374C20.589 25.0374 20.586 23.5873 20.2175 23.0382C19.8491 22.4892 19.6362 22.4359 18.6931 22.349C17.75 22.2621 15.5111 23.2087 14.5148 23.6921C12.7545 24.5462 11.6679 25.5857 11.6679 25.5857C11.6679 25.5857 15.7829 23.2303 17.937 23.0563C20.326 22.8625 20.4127 24.0889 20.589 25.0374Z" fill="white"/>
<path d="M28.722 22.7891C28.714 21.7637 26.9658 21.4758 26.1839 21.3499C24.6768 21.107 23.4265 21.328 23.0131 21.4816C22.5996 21.6352 22.1094 21.8278 21.9934 22.1131C21.8775 22.3984 22.2358 23.1206 22.2358 23.1206C22.2358 23.1206 22.2093 22.5796 23.0186 22.1763C23.8279 21.7729 26.0598 21.6542 27.0409 21.8899C27.5613 22.0017 28.1485 22.0899 28.722 22.7891Z" fill="white"/>
<path d="M27.109 25.9379C26.724 26.3003 26.2843 26.3113 25.5931 26.4372C24.6001 26.618 23.3825 26.6043 23.1137 26.4421C22.88 26.3045 22.9735 25.0412 22.9735 25.0412C23.0648 25.3259 23.1399 25.6921 23.3896 25.8566C23.7612 26.1013 23.9764 26.1377 24.996 26.0993C25.6166 26.0758 26.7656 26.097 27.109 25.9379Z" fill="white"/>
<path d="M30.8281 26.75C35.4717 29.3656 42.5697 31.7984 47.4363 30.47C41.8871 32.7488 34.9833 29.6757 30.8281 26.75Z" fill="white"/>
<path d="M41.7861 13.1113C37.2213 15.154 32.8182 18.6936 31.4407 21.5671C32.7277 19.3434 37.0494 15.7809 41.9199 13.6569C46.5044 11.6576 51.6219 11.0276 53.6961 11.0371C51.0587 10.5275 46.3422 11.0726 41.7861 13.1113Z" fill="white"/>
<path d="M33.2746 68.8883C33.2746 68.8883 30.1901 67.3581 27.9293 64.8023C24.4125 60.8234 25.9439 56.7877 25.9439 56.7877C25.9439 56.7877 25.5461 59.6844 27.3074 62.0042C31.0489 66.9357 34.0268 67.3714 34.0268 67.3714L33.2746 68.8883Z" fill="white"/>
<path d="M38.1968 51.1226C39.225 51.6749 40.2102 52.3037 41.1442 53.0036C42.7477 54.1927 43.3137 55.206 43.3943 55.813C43.4456 56.1727 43.4181 56.5392 43.3138 56.8873C43.5337 56.647 43.7813 56.4335 44.0514 56.2514C44.337 56.1008 44.6736 55.9176 44.6736 55.9176C44.6187 55.6433 44.6047 55.3624 44.632 55.084C44.6846 54.7902 44.7889 54.5081 44.9399 54.2507C44.9399 54.2507 43.6919 53.1575 41.5157 52.2445C39.2904 51.3007 38.1968 51.1226 38.1968 51.1226Z" fill="white"/>
<path d="M46.5817 50.5016C46.5774 50.8816 46.5108 51.2584 46.3848 51.617C46.3848 51.617 46.9358 52.0604 47.076 52.1314C47.2162 52.2025 47.2896 52.2518 47.401 52.1991C47.5125 52.1464 47.7533 51.9022 47.881 51.7969C48.0087 51.6916 46.6044 49.6567 46.5817 50.5016Z" fill="white"/>
<path d="M39.8596 47.2928C39.7614 47.6901 39.6246 48.0769 39.4511 48.4476C39.4511 48.4476 40.0697 48.7668 40.2105 48.8461C40.4664 48.9976 40.7164 48.93 40.8185 48.921C40.6167 48.8671 39.9035 48.6823 39.8596 47.2928Z" fill="white"/>
<path d="M33.47 46.1211C33.5271 46.5763 33.5333 47.0364 33.4884 47.493C33.4884 47.493 34.4201 47.4968 34.5984 47.5215C35.0318 47.5897 35.0006 47.4462 34.7148 47.263C33.7391 46.6375 33.3517 45.1561 33.47 46.1211Z" fill="white"/>
<path d="M46.9842 44.1488L46.9784 44.1447C47.7451 43.8794 48.9748 43.6888 51.0313 44.083C49.8645 44.0222 48.674 44.0902 47.6753 44.324C48.0422 44.5347 48.7928 45.6843 49.041 46.294C48.3993 45.1507 47.5353 44.539 46.9842 44.1488Z" fill="white"/>
<path d="M50.8851 56.3321C50.8851 56.3321 51.509 56.355 51.8741 56.0144C52.2393 55.6739 52.2794 55.2723 52.4337 54.9703C52.5879 54.6683 52.6849 54.6456 52.6849 54.6456C52.6156 54.8747 52.5639 55.1089 52.5302 55.3459C52.4942 55.6656 52.5314 56.0787 52.4333 56.3625C52.3352 56.6464 52.1513 56.8143 51.6599 56.7414C51.3626 56.6969 51.0894 56.5525 50.8851 56.3321Z" fill="white"/>
</svg>
