<svg width="16" height="13" viewBox="0 0 16 13" fill="none" xmlns="http://www.w3.org/2000/svg">
<path d="M15.2 7.25011H2.73137L6.96565 11.2198C7.27811 11.5128 7.27811 11.9875 6.96565 12.2803C6.65319 12.5732 6.14667 12.5732 5.83422 12.2803L0.234341 7.03032C-0.0781155 6.73738 -0.0781155 6.26251 0.234341 5.96984L5.83422 0.719855C5.99052 0.573326 6.19529 0.5 6.40007 0.5C6.60472 0.5 6.80948 0.573326 6.96565 0.719729C7.27811 1.01266 7.27811 1.48754 6.96565 1.78021L2.73137 5.75024H15.2C15.6419 5.75024 16 6.08611 16 6.50021C16 6.91444 15.6419 7.25018 15.2 7.25018V7.25011Z" fill="white"/>
</svg>
