<svg width="728" height="197" viewBox="0 0 728 197" fill="none" xmlns="http://www.w3.org/2000/svg">
<path d="M579.8 154.231H595C598.6 154.231 601.716 154.831 604.35 156.031C606.983 157.198 610 158.898 611.4 161.131C612.833 163.331 613.55 165.931 613.55 168.931C613.55 172.998 612.616 176.565 610.75 179.631C608.916 182.698 606.35 185.065 603.05 186.731C599.75 188.398 595.966 189.231 591.7 189.231H573.8L579.8 154.231ZM592 181.331C594.4 181.331 596.466 180.831 598.2 179.831C599.966 178.798 601.3 177.398 602.2 175.631C603.1 173.831 603.55 171.798 603.55 169.531C603.55 167.165 602.816 165.348 601.35 164.081C599.883 162.781 597.733 162.131 594.9 162.131H589.1L585.3 181.331H592Z" fill="white"/>
<path d="M634.008 189.931C630.475 189.931 627.392 189.281 624.758 187.981C622.158 186.681 620.142 184.865 618.708 182.531C617.308 180.198 616.608 177.531 616.608 174.531C616.608 170.531 617.525 166.931 619.358 163.731C621.225 160.531 622 159 626.108 156.231C629.442 154.431 633.225 153.531 637.458 153.531C640.992 153.531 644.058 154.181 646.658 155.481C649.292 156.781 651.95 158 653.708 160.931C655.467 163.863 655.858 165.931 655.858 168.931C655.858 172.931 654.925 176.531 653.058 179.731C651.225 182.931 648.642 185.431 645.308 187.231C642.008 189.031 638.242 189.931 634.008 189.931ZM634.858 181.731C637.058 181.731 638.992 181.181 640.658 180.081C642.325 178.981 643.608 177.515 644.508 175.681C645.408 173.815 645.858 171.765 645.858 169.531C645.858 167.165 645.125 165.281 643.658 163.881C642.225 162.448 640.208 161.731 637.608 161.731C635.408 161.731 633.475 162.281 631.808 163.381C630.142 164.481 628.858 165.965 627.958 167.831C627.058 169.665 626.608 171.698 626.608 173.931C626.608 176.298 627.325 178.198 628.758 179.631C630.225 181.031 632.258 181.731 634.858 181.731Z" fill="white"/>
<path d="M678.194 154.231C682.727 154.231 686.227 155.215 688.694 157.181C691.16 159.148 693.394 161.915 693.394 165.481C693.394 168.415 692.677 170.981 691.244 173.181C689.844 175.381 687.827 177.081 685.194 178.281C682.594 179.481 679.56 180.081 676.094 180.081H669.094L667.294 189.231H657.394L663.394 154.231H678.194ZM676.544 172.281C678.744 172.281 680.427 171.765 681.594 170.731C682.794 169.698 683.394 168.231 683.394 166.331C683.394 164.898 682.91 163.831 681.944 163.131C681.01 162.398 679.66 162.031 677.894 162.031H672.694L670.644 172.281H676.544Z" fill="white"/>
<path d="M708.971 161.881L707.821 167.781H723.371L721.921 175.181H706.321L705.071 181.581H723.421L721.821 189.231H693.771L699.771 154.231H727.171L726.621 161.881H708.971Z" fill="white"/>
<path d="M582.866 133.746C580.077 132.952 577.528 131.863 575.219 130.478C572.91 129.093 571.12 127.648 569.85 126.143L575.627 120.093C577.016 121.667 578.59 123.016 580.349 124.14C582.118 125.232 583.964 126.052 585.887 126.6C587.715 127.12 589.199 127.265 590.338 127.034C591.519 126.781 592.242 126.19 592.507 125.26C592.735 124.459 592.448 123.701 591.646 122.988C590.876 122.284 589.602 121.401 587.824 120.341C585.808 119.143 584.161 118.051 582.883 117.063C581.613 116.044 580.623 114.774 579.912 113.255C579.232 111.744 579.176 109.995 579.741 108.008C580.425 105.603 581.68 103.69 583.506 102.269C585.34 100.815 587.617 99.9384 590.336 99.6379C593.056 99.3374 596.051 99.6524 599.321 100.583C601.725 101.267 603.897 102.162 605.835 103.268C607.782 104.342 609.376 105.558 610.619 106.917L605.145 113.001C604.067 111.793 602.786 110.753 601.302 109.88C599.859 108.984 598.304 108.299 596.636 107.825C594.745 107.286 593.167 107.167 591.904 107.466C590.673 107.774 589.92 108.409 589.646 109.371C589.409 110.204 589.692 110.978 590.494 111.691C591.296 112.405 592.602 113.296 594.411 114.365C596.436 115.531 598.072 116.603 599.319 117.581C600.597 118.569 601.58 119.802 602.269 121.28C602.957 122.758 603.028 124.459 602.48 126.383C601.805 128.755 600.534 130.664 598.668 132.108C596.843 133.529 594.554 134.386 591.803 134.677C589.083 134.978 586.104 134.667 582.866 133.746ZM619.63 144.207C616.232 143.24 613.444 141.771 611.267 139.8C609.122 137.838 607.679 135.539 606.939 132.902C606.231 130.275 606.288 127.518 607.109 124.633C608.204 120.785 610.071 117.574 612.71 114.998C615.381 112.431 618.55 110.733 622.217 109.905C625.915 109.086 629.801 109.256 633.872 110.415C637.271 111.382 640.042 112.846 642.187 114.808C644.364 116.779 645.807 119.078 646.515 121.706C647.255 124.342 647.214 127.103 646.393 129.989C645.298 133.836 643.415 137.043 640.744 139.61C638.105 142.186 634.936 143.884 631.237 144.703C627.571 145.531 623.702 145.366 619.63 144.207ZM622.692 136.553C624.808 137.155 626.818 137.155 628.722 136.553C630.626 135.951 632.262 134.892 633.629 133.375C635.006 131.826 636 129.977 636.611 127.829C637.258 125.553 637.069 123.541 636.041 121.793C635.055 120.022 633.311 118.781 630.811 118.069C628.695 117.467 626.684 117.467 624.78 118.069C622.876 118.67 621.236 119.746 619.859 121.295C618.492 122.812 617.503 124.644 616.892 126.793C616.244 129.069 616.413 131.092 617.399 132.863C618.427 134.611 620.191 135.841 622.692 136.553Z" fill="white"/>
<path d="M545.472 149.301C545.491 149.305 545.493 149.306 545.512 149.312C546.116 149.494 546.736 149.608 547.013 149.049L589.934 30.3539C590.06 29.7674 590.015 29.5467 589.712 29.3943C589.67 29.3728 589.624 29.3596 589.577 29.3507L561.541 23.9959C560.842 23.8981 560.333 23.771 560.079 24.5024L520.294 143.508C520.215 143.747 520.304 143.94 520.549 143.998C523.683 144.735 544.9 149.181 545.472 149.301Z" fill="white"/>
<path d="M443.217 24.6648C442.894 24.6648 442.618 24.8972 442.563 25.2154L413.966 189.648C413.896 190.054 414.209 190.426 414.621 190.426H441.498C441.824 190.426 442.101 190.189 442.153 189.868L456.808 99.2671C456.933 98.4914 458.064 98.5374 458.126 99.3207L465.289 189.814C465.316 190.159 465.605 190.426 465.951 190.426H503.312C503.636 190.426 503.913 190.192 503.967 189.873L531.98 25.4481C532.049 25.04 531.733 24.6683 531.319 24.6721L504.922 24.915C504.6 24.9179 504.327 25.1513 504.273 25.4688L489.425 113.438C489.295 114.21 488.17 114.16 488.108 113.38L481.051 25.2762C481.024 24.9309 480.736 24.6648 480.389 24.6648H443.217Z" fill="white"/>
<path d="M341.87 24.6648C341.545 24.6648 341.268 24.8997 341.214 25.22L313.808 189.652C313.741 190.057 314.053 190.426 314.464 190.426H341.352C341.675 190.426 341.952 190.193 342.006 189.874L357.639 99.0359C357.772 98.2654 358.895 98.3168 358.957 99.0961L366.138 189.814C366.165 190.159 366.453 190.426 366.8 190.426H404.16C404.484 190.426 404.761 190.192 404.815 189.873L432.828 25.4481C432.898 25.04 432.581 24.6683 432.167 24.6721L405.572 24.915C405.249 24.9179 404.975 25.1521 404.922 25.4702L390.27 113.391C390.142 114.164 389.015 114.116 388.953 113.335L381.9 25.2762C381.872 24.9309 381.584 24.6648 381.238 24.6648H341.87Z" fill="white"/>
<path d="M210.983 24.6633C210.698 24.6624 210.444 24.8432 210.352 25.1128L154.232 189.273C154.084 189.706 154.406 190.154 154.863 190.153L181.823 190.043C182.101 190.042 182.35 189.867 182.445 189.605L219.506 87.6712C219.765 86.9578 220.825 87.1669 220.794 87.9253L216.636 189.734C216.621 190.112 216.923 190.426 217.3 190.426H247.627C247.89 190.426 248.129 190.271 248.235 190.03L290.805 93.5316C291.12 92.8197 292.191 93.1349 292.07 93.9035L276.982 189.381C276.919 189.782 277.227 190.145 277.633 190.149L304.846 190.358C305.171 190.361 305.449 190.128 305.505 189.808L334.183 25.4428C334.254 25.0355 333.94 24.6629 333.526 24.6642L291.75 24.7907C291.488 24.7914 291.251 24.9463 291.145 25.186L247.992 122.619C247.693 123.294 246.683 123.052 246.721 122.316L251.783 25.4889C251.803 25.1096 251.501 24.791 251.122 24.7898L210.983 24.6633Z" fill="white"/>
<path fill-rule="evenodd" clip-rule="evenodd" d="M117.153 165.753C116.791 165.76 116.489 165.475 116.476 165.113L110.338 0.697911C110.323 0.319756 110.628 0.00618528 111.006 0.00871988L139.621 0.200383C139.978 0.202772 140.269 0.486496 140.28 0.843076L141.452 36.6776C141.463 37.033 141.753 37.3162 142.108 37.3203L168.741 37.6254C169.025 37.6286 169.279 37.4517 169.375 37.1848L182.515 0.442763C182.61 0.177449 182.861 0.000838457 183.143 0.00209208L211.222 0.127018C211.68 0.129055 211.998 0.582663 211.845 1.01403L153.67 164.616C153.577 164.876 153.333 165.052 153.057 165.058L117.153 165.753ZM157.356 68.3932C157.812 68.3932 158.132 68.8419 157.984 69.2732L145.046 107.001C144.807 107.698 143.78 107.546 143.753 106.81L142.379 69.0818C142.365 68.7056 142.667 68.3932 143.043 68.3932H157.356Z" fill="white"/>
<path fill-rule="evenodd" clip-rule="evenodd" d="M28.6693 25.1075C28.3437 25.1054 28.0646 25.3396 28.01 25.6605L0.132474 189.651C0.0633188 190.058 0.377829 190.429 0.790469 190.427L85.1686 190.05C96.7617 189.752 104.974 183.622 106.779 174.914C108.583 166.206 103.946 49.5956 103.945 49.5798C103.945 49.5794 103.945 49.5796 103.945 49.5791C103.092 29.2369 87.9323 25.7342 82.4865 25.4489L28.6693 25.1075ZM35.2443 159.773C34.83 159.782 34.5086 159.414 34.5736 159.005L51.0121 55.4656C51.0634 55.1424 51.3423 54.9047 51.6695 54.9053L62.1394 54.9245C67.6531 54.9129 74.8756 54.8977 75.6361 59.9791L76.7965 117.956C76.9986 138.937 77.0331 155.973 76.906 157.244C76.8678 157.626 76.7774 158.897 75.3806 158.897L35.2443 159.773Z" fill="white"/>
<ellipse cx="536.806" cy="173.269" rx="15.6259" ry="17.415" transform="rotate(32.9249 536.806 173.269)" fill="white"/>
</svg>
